solid Visualization Toolkit generated SLA File
 facet normal 1 -0 0
  outer loop
   vertex 0.01224974263459444 0.0079280436038970947 -0.0012047005584463477
   vertex 0.01224974263459444 0.0012584723299369216 -0.0056389435194432735
   vertex 0.01224974263459444 0.0015615507727488875 -0.042999990284442902
  endloop
 endfacet
 facet normal 1 0 0
  outer loop
   vertex 0.01224974263459444 0.0055223428644239902 -0.0017462832620367408
   vertex 0.01224974263459444 0.0012584723299369216 -0.0056389435194432735
   vertex 0.01224974263459444 0.0079280436038970947 -0.0012047005584463477
  endloop
 endfacet
 facet normal 1 0 0
  outer loop
   vertex 0.01224974263459444 0.0080184657126665115 0.00011347103281877935
   vertex 0.01224974263459444 0.0055223428644239902 -0.0017462832620367408
   vertex 0.01224974263459444 0.0079280436038970947 -0.0012047005584463477
  endloop
 endfacet
 facet normal 1 0 0
  outer loop
   vertex 0.01224974263459444 -0.014439502730965614 -0.041795283555984497
   vertex 0.01224974263459444 -0.004244599025696516 -0.003892646636813879
   vertex 0.01224974263459444 -0.0054838000796735287 0.0017462956020608544
  endloop
 endfacet
 facet normal 1 0 0
  outer loop
   vertex 0.01224974263459444 -0.00086367287440225482 -0.044103540480136871
   vertex 0.01224974263459444 0.0014692716067656875 -0.042999990284442902
   vertex 0.01224974263459444 -0.0027415023650974035 -0.038643956184387207
  endloop
 endfacet
 facet normal 1 0 0
  outer loop
   vertex 0.01224974263459444 0.0013610929017886519 -0.044311150908470154
   vertex 0.01224974263459444 0.0014692716067656875 -0.042999990284442902
   vertex 0.01224974263459444 -0.00086367287440225482 -0.044103540480136871
  endloop
 endfacet
 facet normal 1 0 0
  outer loop
   vertex 0.01224974263459444 0.0010394848650321364 -0.045586854219436646
   vertex 0.01224974263459444 0.0013610929017886519 -0.044311150908470154
   vertex 0.01224974263459444 -0.00086367287440225482 -0.044103540480136871
  endloop
 endfacet
 facet normal 1 0 -0
  outer loop
   vertex 0.01224974263459444 -0.00086367287440225482 -0.044103540480136871
   vertex 0.01224974263459444 0.00051314599113538861 -0.046792596578598022
   vertex 0.01224974263459444 0.0010394848650321364 -0.045586854219436646
  endloop
 endfacet
 facet normal 1 0 0
  outer loop
   vertex 0.01224974263459444 -0.00020369111734908074 -0.047895766794681549
   vertex 0.01224974263459444 0.00051314599113538861 -0.046792596578598022
   vertex 0.01224974263459444 -0.00086367287440225482 -0.044103540480136871
  endloop
 endfacet
 facet normal 1 0 0
  outer loop
   vertex 0.01224974263459444 -0.004652900155633688 -0.048459582030773163
   vertex 0.01224974263459444 -0.00020369111734908074 -0.047895766794681549
   vertex 0.01224974263459444 -0.00086367287440225482 -0.044103540480136871
  endloop
 endfacet
 facet normal 1 0 0
  outer loop
   vertex 0.01224974263459444 -0.0010916400933638215 -0.048866532742977142
   vertex 0.01224974263459444 -0.00020369111734908074 -0.047895766794681549
   vertex 0.01224974263459444 -0.004652900155633688 -0.048459582030773163
  endloop
 endfacet
 facet normal 1 0 -0
  outer loop
   vertex 0.01224974263459444 -0.004652900155633688 -0.048459582030773163
   vertex 0.01224974263459444 -0.0021266860421746969 -0.04967864602804184
   vertex 0.01224974263459444 -0.0010916400933638215 -0.048866532742977142
  endloop
 endfacet
 facet normal 1 0 0
  outer loop
   vertex 0.01224974263459444 -0.0032808368559926748 -0.050310134887695312
   vertex 0.01224974263459444 -0.0021266860421746969 -0.04967864602804184
   vertex 0.01224974263459444 -0.004652900155633688 -0.048459582030773163
  endloop
 endfacet
 facet normal 1 0 0
  outer loop
   vertex 0.01224974263459444 -0.004522878210991621 -0.050743930041790009
   vertex 0.01224974263459444 -0.0032808368559926748 -0.050310134887695312
   vertex 0.01224974263459444 -0.004652900155633688 -0.048459582030773163
  endloop
 endfacet
 facet normal 1 0 0
  outer loop
   vertex 0.01224974263459444 0.0042831399478018284 0.003892658744007349
   vertex 0.01224974263459444 0.0075482060201466084 0.0027046636678278446
   vertex 0.01224974263459444 0.0070003499276936054 0.0039069936610758305
  endloop
 endfacet
 facet normal 1 0 0
  outer loop
   vertex 0.01224974263459444 -0.0012199297780171037 0.0056389556266367435
   vertex 0.01224974263459444 -0.0020544079598039389 0.0077265785075724125
   vertex 0.01224974263459444 -0.0032978763338178396 0.0072798714973032475
  endloop
 endfacet
 facet normal 1 -0 0
  outer loop
   vertex 0.01224974263459444 -0.00075437285704538226 0.0079625090584158897
   vertex 0.01224974263459444 -0.0020544079598039389 0.0077265785075724125
   vertex 0.01224974263459444 -0.0012199297780171037 0.0056389556266367435
  endloop
 endfacet
 facet normal 1 -0 0
  outer loop
   vertex 0.01224974263459444 -0.010319957509636879 -0.047356031835079193
   vertex 0.01224974263459444 -0.010844385251402855 -0.04973737895488739
   vertex 0.01224974263459444 -0.0096818301826715469 -0.050353258848190308
  endloop
 endfacet
 facet normal 1 0 -0
  outer loop
   vertex 0.01224974263459444 -0.01189027912914753 -0.048939287662506104
   vertex 0.01224974263459444 -0.010844385251402855 -0.04973737895488739
   vertex 0.01224974263459444 -0.010319957509636879 -0.047356031835079193
  endloop
 endfacet
 facet normal 1 0 -0
  outer loop
   vertex 0.01224974263459444 -0.012791229411959648 -0.047980569303035736
   vertex 0.01224974263459444 -0.01189027912914753 -0.048939287662506104
   vertex 0.01224974263459444 -0.010319957509636879 -0.047356031835079193
  endloop
 endfacet
 facet normal 1 0 0
  outer loop
   vertex 0.01224974263459444 -0.004652900155633688 -0.048459582030773163
   vertex 0.01224974263459444 -0.005819221492856741 -0.050968289375305176
   vertex 0.01224974263459444 -0.004522878210991621 -0.050743930041790009
  endloop
 endfacet
 facet normal 1 0 -0
  outer loop
   vertex 0.01224974263459444 -0.0071348077617585659 -0.050977155566215515
   vertex 0.01224974263459444 -0.005819221492856741 -0.050968289375305176
   vertex 0.01224974263459444 -0.004652900155633688 -0.048459582030773163
  endloop
 endfacet
 facet normal 1 0 -0
  outer loop
   vertex 0.01224974263459444 -0.010319957509636879 -0.047356031835079193
   vertex 0.01224974263459444 -0.0071348077617585659 -0.050977155566215515
   vertex 0.01224974263459444 -0.004652900155633688 -0.048459582030773163
  endloop
 endfacet
 facet normal 1 0 0
  outer loop
   vertex 0.01224974263459444 -0.0084340553730726242 -0.050770275294780731
   vertex 0.01224974263459444 -0.0071348077617585659 -0.050977155566215515
   vertex 0.01224974263459444 -0.010319957509636879 -0.047356031835079193
  endloop
 endfacet
 facet normal 1 0 0
  outer loop
   vertex 0.01224974263459444 -0.0096818301826715469 -0.050353258848190308
   vertex 0.01224974263459444 -0.0084340553730726242 -0.050770275294780731
   vertex 0.01224974263459444 -0.010319957509636879 -0.047356031835079193
  endloop
 endfacet
 facet normal 1 -0 0
  outer loop
   vertex 0.01224974263459444 -0.0054838000796735287 0.0017462956020608544
   vertex 0.01224974263459444 -0.0078894998878240585 0.0012047128984704614
   vertex 0.01224974263459444 -0.014439502730965614 -0.041795283555984497
  endloop
 endfacet
 facet normal 1 0 0
  outer loop
   vertex 0.01224974263459444 -0.0075833476148545742 0.002490027341991663
   vertex 0.01224974263459444 -0.0078894998878240585 0.0012047128984704614
   vertex 0.01224974263459444 -0.0054838000796735287 0.0017462956020608544
  endloop
 endfacet
 facet normal 1 -0 0
  outer loop
   vertex 0.01224974263459444 -0.0070698126219213009 0.003707407508045435
   vertex 0.01224974263459444 -0.0075833476148545742 0.002490027341991663
   vertex 0.01224974263459444 -0.0054838000796735287 0.0017462956020608544
  endloop
 endfacet
 facet normal 1 0 -0
  outer loop
   vertex 0.01224974263459444 0.0012584723299369216 -0.0056389435194432735
   vertex 0.01224974263459444 0.0014692716067656875 -0.042999990284442902
   vertex 0.01224974263459444 0.0015615507727488875 -0.042999990284442902
  endloop
 endfacet
 facet normal 1 0 0
  outer loop
   vertex 0.01224974263459444 -0.0027415023650974035 -0.038643956184387207
   vertex 0.01224974263459444 0.0014692716067656875 -0.042999990284442902
   vertex 0.01224974263459444 0.0012584723299369216 -0.0056389435194432735
  endloop
 endfacet
 facet normal 1 0 -0
  outer loop
   vertex 0.01224974263459444 -0.004244599025696516 -0.003892646636813879
   vertex 0.01224974263459444 -0.0027415023650974035 -0.038643956184387207
   vertex 0.01224974263459444 0.0012584723299369216 -0.0056389435194432735
  endloop
 endfacet
 facet normal 1 0 0
  outer loop
   vertex 0.01224974263459444 -0.0084085594862699509 -0.037540405988693237
   vertex 0.01224974263459444 -0.0027415023650974035 -0.038643956184387207
   vertex 0.01224974263459444 -0.004244599025696516 -0.003892646636813879
  endloop
 endfacet
 facet normal 1 0 -0
  outer loop
   vertex 0.01224974263459444 -0.014439502730965614 -0.041795283555984497
   vertex 0.01224974263459444 -0.0084085594862699509 -0.037540405988693237
   vertex 0.01224974263459444 -0.004244599025696516 -0.003892646636813879
  endloop
 endfacet
 facet normal 1 0 0
  outer loop
   vertex 0.01224974263459444 -0.012197783216834068 -0.041896447539329529
   vertex 0.01224974263459444 -0.0084085594862699509 -0.037540405988693237
   vertex 0.01224974263459444 -0.014439502730965614 -0.041795283555984497
  endloop
 endfacet
 facet normal 1 0 0
  outer loop
   vertex 0.01224974263459444 -0.014530004933476448 -0.043107785284519196
   vertex 0.01224974263459444 -0.012197783216834068 -0.041896447539329529
   vertex 0.01224974263459444 -0.014439502730965614 -0.041795283555984497
  endloop
 endfacet
 facet normal 1 0 0
  outer loop
   vertex 0.01224974263459444 0.0055223428644239902 -0.0017462832620367408
   vertex 0.01224974263459444 0.0075482060201466084 0.0027046636678278446
   vertex 0.01224974263459444 0.0042831399478018284 0.003892658744007349
  endloop
 endfacet
 facet normal 1 0 0
  outer loop
   vertex 0.01224974263459444 0.0078906919807195663 0.001428543240763247
   vertex 0.01224974263459444 0.0075482060201466084 0.0027046636678278446
   vertex 0.01224974263459444 0.0055223428644239902 -0.0017462832620367408
  endloop
 endfacet
 facet normal 1 0 0
  outer loop
   vertex 0.01224974263459444 0.0080184657126665115 0.00011347103281877935
   vertex 0.01224974263459444 0.0078906919807195663 0.001428543240763247
   vertex 0.01224974263459444 0.0055223428644239902 -0.0017462832620367408
  endloop
 endfacet
 facet normal 1 0 0
  outer loop
   vertex 0.01224974263459444 -0.0054838000796735287 0.0017462956020608544
   vertex 0.01224974263459444 -0.006362908985465765 0.0048236683942377567
   vertex 0.01224974263459444 -0.0070698126219213009 0.003707407508045435
  endloop
 endfacet
 facet normal 1 -0 0
  outer loop
   vertex 0.01224974263459444 -0.0054819150827825069 0.0058083520270884037
   vertex 0.01224974263459444 -0.006362908985465765 0.0048236683942377567
   vertex 0.01224974263459444 -0.0054838000796735287 0.0017462956020608544
  endloop
 endfacet
 facet normal 1 0 0
  outer loop
   vertex 0.01224974263459444 -0.0012199297780171037 0.0056389556266367435
   vertex 0.01224974263459444 -0.0054819150827825069 0.0058083520270884037
   vertex 0.01224974263459444 -0.0054838000796735287 0.0017462956020608544
  endloop
 endfacet
 facet normal 1 -0 0
  outer loop
   vertex 0.01224974263459444 -0.0044508627615869045 0.0066346065141260624
   vertex 0.01224974263459444 -0.0054819150827825069 0.0058083520270884037
   vertex 0.01224974263459444 -0.0012199297780171037 0.0056389556266367435
  endloop
 endfacet
 facet normal 1 -0 0
  outer loop
   vertex 0.01224974263459444 -0.0032978763338178396 0.0072798714973032475
   vertex 0.01224974263459444 -0.0044508627615869045 0.0066346065141260624
   vertex 0.01224974263459444 -0.0012199297780171037 0.0056389556266367435
  endloop
 endfacet
 facet normal 1 0 0
  outer loop
   vertex 0.01224974263459444 0.0042831399478018284 0.003892658744007349
   vertex 0.01224974263459444 0.0053535015322268009 0.0059620575048029423
   vertex 0.01224974263459444 0.0042994287796318531 0.0067587182857096195
  endloop
 endfacet
 facet normal 1 0 0
  outer loop
   vertex 0.01224974263459444 0.0062620700336992741 0.0050027505494654179
   vertex 0.01224974263459444 0.0053535015322268009 0.0059620575048029423
   vertex 0.01224974263459444 0.0042831399478018284 0.003892658744007349
  endloop
 endfacet
 facet normal 1 0 0
  outer loop
   vertex 0.01224974263459444 0.0070003499276936054 0.0039069936610758305
   vertex 0.01224974263459444 0.0062620700336992741 0.0050027505494654179
   vertex 0.01224974263459444 0.0042831399478018284 0.003892658744007349
  endloop
 endfacet
 facet normal 1 0 0
  outer loop
   vertex 0.01224974263459444 -0.010319957509636879 -0.047356031835079193
   vertex 0.01224974263459444 -0.013522865250706673 -0.04688715934753418
   vertex 0.01224974263459444 -0.012791229411959648 -0.047980569303035736
  endloop
 endfacet
 facet normal 1 -0 -0
  outer loop
   vertex 0.01224974263459444 -0.014065401628613472 -0.045688621699810028
   vertex 0.01224974263459444 -0.013522865250706673 -0.04688715934753418
   vertex 0.01224974263459444 -0.010319957509636879 -0.047356031835079193
  endloop
 endfacet
 facet normal 1 -0 0
  outer loop
   vertex 0.01224974263459444 -0.012197783216834068 -0.041896447539329529
   vertex 0.01224974263459444 -0.014065401628613472 -0.045688621699810028
   vertex 0.01224974263459444 -0.010319957509636879 -0.047356031835079193
  endloop
 endfacet
 facet normal 1 0 -0
  outer loop
   vertex 0.01224974263459444 -0.014404168352484703 -0.0444173663854599
   vertex 0.01224974263459444 -0.014065401628613472 -0.045688621699810028
   vertex 0.01224974263459444 -0.012197783216834068 -0.041896447539329529
  endloop
 endfacet
 facet normal 1 0 -0
  outer loop
   vertex 0.01224974263459444 -0.014530004933476448 -0.043107785284519196
   vertex 0.01224974263459444 -0.014404168352484703 -0.0444173663854599
   vertex 0.01224974263459444 -0.012197783216834068 -0.041896447539329529
  endloop
 endfacet
 facet normal 1 0 0
  outer loop
   vertex 0.01224974263459444 -0.0012199297780171037 0.0056389556266367435
   vertex 0.01224974263459444 0.00056676409440115094 0.0079812547191977501
   vertex 0.01224974263459444 -0.00075437285704538226 0.0079625090584158897
  endloop
 endfacet
 facet normal 1 0 0
  outer loop
   vertex 0.01224974263459444 0.0018729664152488112 0.007782279048115015
   vertex 0.01224974263459444 0.00056676409440115094 0.0079812547191977501
   vertex 0.01224974263459444 -0.0012199297780171037 0.0056389556266367435
  endloop
 endfacet
 facet normal 1 0 0
  outer loop
   vertex 0.01224974263459444 0.0042831399478018284 0.003892658744007349
   vertex 0.01224974263459444 0.0018729664152488112 0.007782279048115015
   vertex 0.01224974263459444 -0.0012199297780171037 0.0056389556266367435
  endloop
 endfacet
 facet normal 1 0 0
  outer loop
   vertex 0.01224974263459444 0.003128603333607316 0.0073710368014872074
   vertex 0.01224974263459444 0.0018729664152488112 0.007782279048115015
   vertex 0.01224974263459444 0.0042831399478018284 0.003892658744007349
  endloop
 endfacet
 facet normal 1 0 0
  outer loop
   vertex 0.01224974263459444 0.0042994287796318531 0.0067587182857096195
   vertex 0.01224974263459444 0.003128603333607316 0.0073710368014872074
   vertex 0.01224974263459444 0.0042831399478018284 0.003892658744007349
  endloop
 endfacet
 facet normal -1 -0 0
  outer loop
   vertex 0.00024974049301818013 -0.004652900155633688 -0.048459582030773163
   vertex 0.00024974049301818013 -0.004522878210991621 -0.050743930041790009
   vertex 0.00024974049301818013 -0.005819221492856741 -0.050968289375305176
  endloop
 endfacet
 facet normal -1 0 0
  outer loop
   vertex 0.00024974049301818013 -0.012197783216834068 -0.041896447539329529
   vertex 0.00024974049301818013 -0.0078894998878240585 0.0012047128984704614
   vertex 0.00024974049301818013 -0.0084085594862699509 -0.037540405988693237
  endloop
 endfacet
 facet normal -1 0 0
  outer loop
   vertex 0.00024974049301818013 -0.014439502730965614 -0.041795283555984497
   vertex 0.00024974049301818013 -0.0078894998878240585 0.0012047128984704614
   vertex 0.00024974049301818013 -0.012197783216834068 -0.041896447539329529
  endloop
 endfacet
 facet normal -1 0 0
  outer loop
   vertex 0.00024974049301818013 -0.0012199297780171037 0.0056389556266367435
   vertex 0.00024974049301818013 -0.0020544079598039389 0.0077265785075724125
   vertex 0.00024974049301818013 -0.00075437285704538226 0.0079625090584158897
  endloop
 endfacet
 facet normal -1 0 0
  outer loop
   vertex 0.00024974049301818013 -0.0054838000796735287 0.0017462956020608544
   vertex 0.00024974049301818013 -0.0070698126219213009 0.003707407508045435
   vertex 0.00024974049301818013 -0.006362908985465765 0.0048236683942377567
  endloop
 endfacet
 facet normal -1 0 0
  outer loop
   vertex 0.00024974049301818013 -0.010319957509636879 -0.047356031835079193
   vertex 0.00024974049301818013 -0.012791229411959648 -0.047980569303035736
   vertex 0.00024974049301818013 -0.013522865250706673 -0.04688715934753418
  endloop
 endfacet
 facet normal -1 0 0
  outer loop
   vertex 0.00024974049301818013 -0.01189027912914753 -0.048939287662506104
   vertex 0.00024974049301818013 -0.012791229411959648 -0.047980569303035736
   vertex 0.00024974049301818013 -0.010319957509636879 -0.047356031835079193
  endloop
 endfacet
 facet normal -1 0 0
  outer loop
   vertex 0.00024974049301818013 -0.010844385251402855 -0.04973737895488739
   vertex 0.00024974049301818013 -0.01189027912914753 -0.048939287662506104
   vertex 0.00024974049301818013 -0.010319957509636879 -0.047356031835079193
  endloop
 endfacet
 facet normal -1 0 0
  outer loop
   vertex 0.00024974049301818013 0.00056676409440115094 0.0079812547191977501
   vertex 0.00024974049301818013 -0.0012199297780171037 0.0056389556266367435
   vertex 0.00024974049301818013 -0.00075437285704538226 0.0079625090584158897
  endloop
 endfacet
 facet normal -1 0 0
  outer loop
   vertex 0.00024974049301818013 -0.0012199297780171037 0.0056389556266367435
   vertex 0.00024974049301818013 -0.0032978763338178396 0.0072798714973032475
   vertex 0.00024974049301818013 -0.0020544079598039389 0.0077265785075724125
  endloop
 endfacet
 facet normal -1 0 -0
  outer loop
   vertex 0.00024974049301818013 -0.0044508627615869045 0.0066346065141260624
   vertex 0.00024974049301818013 -0.0032978763338178396 0.0072798714973032475
   vertex 0.00024974049301818013 -0.0012199297780171037 0.0056389556266367435
  endloop
 endfacet
 facet normal -1 0 -0
  outer loop
   vertex 0.00024974049301818013 -0.0054838000796735287 0.0017462956020608544
   vertex 0.00024974049301818013 -0.0044508627615869045 0.0066346065141260624
   vertex 0.00024974049301818013 -0.0012199297780171037 0.0056389556266367435
  endloop
 endfacet
 facet normal -1 0 0
  outer loop
   vertex 0.00024974049301818013 -0.0054819150827825069 0.0058083520270884037
   vertex 0.00024974049301818013 -0.0044508627615869045 0.0066346065141260624
   vertex 0.00024974049301818013 -0.0054838000796735287 0.0017462956020608544
  endloop
 endfacet
 facet normal -1 0 0
  outer loop
   vertex 0.00024974049301818013 -0.006362908985465765 0.0048236683942377567
   vertex 0.00024974049301818013 -0.0054819150827825069 0.0058083520270884037
   vertex 0.00024974049301818013 -0.0054838000796735287 0.0017462956020608544
  endloop
 endfacet
 facet normal -1 0 -0
  outer loop
   vertex 0.00024974049301818013 0.0015615507727488875 -0.042999990284442902
   vertex 0.00024974049301818013 0.0055223428644239902 -0.0017462832620367408
   vertex 0.00024974049301818013 0.0079280436038970947 -0.0012047005584463477
  endloop
 endfacet
 facet normal -1 0 0
  outer loop
   vertex 0.00024974049301818013 0.0012584723299369216 -0.0056389435194432735
   vertex 0.00024974049301818013 0.0055223428644239902 -0.0017462832620367408
   vertex 0.00024974049301818013 0.0015615507727488875 -0.042999990284442902
  endloop
 endfacet
 facet normal -1 0 0
  outer loop
   vertex 0.00024974049301818013 -0.00086367287440225482 -0.044103540480136871
   vertex 0.00024974049301818013 -0.0010916400933638215 -0.048866532742977142
   vertex 0.00024974049301818013 -0.004652900155633688 -0.048459582030773163
  endloop
 endfacet
 facet normal -1 0 0
  outer loop
   vertex 0.00024974049301818013 -0.00020369111734908074 -0.047895766794681549
   vertex 0.00024974049301818013 -0.0010916400933638215 -0.048866532742977142
   vertex 0.00024974049301818013 -0.00086367287440225482 -0.044103540480136871
  endloop
 endfacet
 facet normal -1 0 0
  outer loop
   vertex 0.00024974049301818013 0.00051314599113538861 -0.046792596578598022
   vertex 0.00024974049301818013 -0.00020369111734908074 -0.047895766794681549
   vertex 0.00024974049301818013 -0.00086367287440225482 -0.044103540480136871
  endloop
 endfacet
 facet normal -1 0 0
  outer loop
   vertex 0.00024974049301818013 0.0013610929017886519 -0.044311150908470154
   vertex 0.00024974049301818013 -0.0027415023650974035 -0.038643956184387207
   vertex 0.00024974049301818013 0.0014692716067656875 -0.042999990284442902
  endloop
 endfacet
 facet normal -1 0 0
  outer loop
   vertex 0.00024974049301818013 -0.00086367287440225482 -0.044103540480136871
   vertex 0.00024974049301818013 -0.0027415023650974035 -0.038643956184387207
   vertex 0.00024974049301818013 0.0013610929017886519 -0.044311150908470154
  endloop
 endfacet
 facet normal -1 0 0
  outer loop
   vertex 0.00024974049301818013 0.0010394848650321364 -0.045586854219436646
   vertex 0.00024974049301818013 -0.00086367287440225482 -0.044103540480136871
   vertex 0.00024974049301818013 0.0013610929017886519 -0.044311150908470154
  endloop
 endfacet
 facet normal -1 0 0
  outer loop
   vertex 0.00024974049301818013 0.00051314599113538861 -0.046792596578598022
   vertex 0.00024974049301818013 -0.00086367287440225482 -0.044103540480136871
   vertex 0.00024974049301818013 0.0010394848650321364 -0.045586854219436646
  endloop
 endfacet
 facet normal -1 0 0
  outer loop
   vertex 0.00024974049301818013 0.0078906919807195663 0.001428543240763247
   vertex 0.00024974049301818013 0.0042831399478018284 0.003892658744007349
   vertex 0.00024974049301818013 0.0075482060201466084 0.0027046636678278446
  endloop
 endfacet
 facet normal -1 0 0
  outer loop
   vertex 0.00024974049301818013 0.0055223428644239902 -0.0017462832620367408
   vertex 0.00024974049301818013 0.0042831399478018284 0.003892658744007349
   vertex 0.00024974049301818013 0.0078906919807195663 0.001428543240763247
  endloop
 endfacet
 facet normal -1 0 0
  outer loop
   vertex 0.00024974049301818013 0.0080184657126665115 0.00011347103281877935
   vertex 0.00024974049301818013 0.0055223428644239902 -0.0017462832620367408
   vertex 0.00024974049301818013 0.0078906919807195663 0.001428543240763247
  endloop
 endfacet
 facet normal -1 0 0
  outer loop
   vertex 0.00024974049301818013 0.0079280436038970947 -0.0012047005584463477
   vertex 0.00024974049301818013 0.0055223428644239902 -0.0017462832620367408
   vertex 0.00024974049301818013 0.0080184657126665115 0.00011347103281877935
  endloop
 endfacet
 facet normal -1 0 0
  outer loop
   vertex 0.00024974049301818013 -0.0027415023650974035 -0.038643956184387207
   vertex 0.00024974049301818013 0.0015615507727488875 -0.042999990284442902
   vertex 0.00024974049301818013 0.0014692716067656875 -0.042999990284442902
  endloop
 endfacet
 facet normal -1 0 0
  outer loop
   vertex 0.00024974049301818013 0.0012584723299369216 -0.0056389435194432735
   vertex 0.00024974049301818013 0.0015615507727488875 -0.042999990284442902
   vertex 0.00024974049301818013 -0.0027415023650974035 -0.038643956184387207
  endloop
 endfacet
 facet normal -1 0 0
  outer loop
   vertex 0.00024974049301818013 -0.0084085594862699509 -0.037540405988693237
   vertex 0.00024974049301818013 0.0012584723299369216 -0.0056389435194432735
   vertex 0.00024974049301818013 -0.0027415023650974035 -0.038643956184387207
  endloop
 endfacet
 facet normal -1 -0 0
  outer loop
   vertex 0.00024974049301818013 -0.004244599025696516 -0.003892646636813879
   vertex 0.00024974049301818013 0.0012584723299369216 -0.0056389435194432735
   vertex 0.00024974049301818013 -0.0084085594862699509 -0.037540405988693237
  endloop
 endfacet
 facet normal -1 -0 0
  outer loop
   vertex 0.00024974049301818013 -0.0078894998878240585 0.0012047128984704614
   vertex 0.00024974049301818013 -0.004244599025696516 -0.003892646636813879
   vertex 0.00024974049301818013 -0.0084085594862699509 -0.037540405988693237
  endloop
 endfacet
 facet normal -1 0 0
  outer loop
   vertex 0.00024974049301818013 -0.0054838000796735287 0.0017462956020608544
   vertex 0.00024974049301818013 -0.004244599025696516 -0.003892646636813879
   vertex 0.00024974049301818013 -0.0078894998878240585 0.0012047128984704614
  endloop
 endfacet
 facet normal -1 -0 0
  outer loop
   vertex 0.00024974049301818013 -0.0075833476148545742 0.002490027341991663
   vertex 0.00024974049301818013 -0.0054838000796735287 0.0017462956020608544
   vertex 0.00024974049301818013 -0.0078894998878240585 0.0012047128984704614
  endloop
 endfacet
 facet normal -1 0 0
  outer loop
   vertex 0.00024974049301818013 -0.0070698126219213009 0.003707407508045435
   vertex 0.00024974049301818013 -0.0054838000796735287 0.0017462956020608544
   vertex 0.00024974049301818013 -0.0075833476148545742 0.002490027341991663
  endloop
 endfacet
 facet normal -1 -0 0
  outer loop
   vertex 0.00024974049301818013 -0.004652900155633688 -0.048459582030773163
   vertex 0.00024974049301818013 -0.0032808368559926748 -0.050310134887695312
   vertex 0.00024974049301818013 -0.004522878210991621 -0.050743930041790009
  endloop
 endfacet
 facet normal -1 0 0
  outer loop
   vertex 0.00024974049301818013 -0.0021266860421746969 -0.04967864602804184
   vertex 0.00024974049301818013 -0.0032808368559926748 -0.050310134887695312
   vertex 0.00024974049301818013 -0.004652900155633688 -0.048459582030773163
  endloop
 endfacet
 facet normal -1 0 0
  outer loop
   vertex 0.00024974049301818013 -0.0010916400933638215 -0.048866532742977142
   vertex 0.00024974049301818013 -0.0021266860421746969 -0.04967864602804184
   vertex 0.00024974049301818013 -0.004652900155633688 -0.048459582030773163
  endloop
 endfacet
 facet normal -1 0 0
  outer loop
   vertex 0.00024974049301818013 -0.012197783216834068 -0.041896447539329529
   vertex 0.00024974049301818013 -0.014530004933476448 -0.043107785284519196
   vertex 0.00024974049301818013 -0.014439502730965614 -0.041795283555984497
  endloop
 endfacet
 facet normal -1 0 0
  outer loop
   vertex 0.00024974049301818013 -0.014404168352484703 -0.0444173663854599
   vertex 0.00024974049301818013 -0.014530004933476448 -0.043107785284519196
   vertex 0.00024974049301818013 -0.012197783216834068 -0.041896447539329529
  endloop
 endfacet
 facet normal -1 0 0
  outer loop
   vertex 0.00024974049301818013 -0.010319957509636879 -0.047356031835079193
   vertex 0.00024974049301818013 -0.014404168352484703 -0.0444173663854599
   vertex 0.00024974049301818013 -0.012197783216834068 -0.041896447539329529
  endloop
 endfacet
 facet normal -1 0 0
  outer loop
   vertex 0.00024974049301818013 -0.014065401628613472 -0.045688621699810028
   vertex 0.00024974049301818013 -0.014404168352484703 -0.0444173663854599
   vertex 0.00024974049301818013 -0.010319957509636879 -0.047356031835079193
  endloop
 endfacet
 facet normal -1 0 0
  outer loop
   vertex 0.00024974049301818013 -0.013522865250706673 -0.04688715934753418
   vertex 0.00024974049301818013 -0.014065401628613472 -0.045688621699810028
   vertex 0.00024974049301818013 -0.010319957509636879 -0.047356031835079193
  endloop
 endfacet
 facet normal -1 0 -0
  outer loop
   vertex 0.00024974049301818013 0.0042831399478018284 0.003892658744007349
   vertex 0.00024974049301818013 0.0070003499276936054 0.0039069936610758305
   vertex 0.00024974049301818013 0.0075482060201466084 0.0027046636678278446
  endloop
 endfacet
 facet normal -1 -0 0
  outer loop
   vertex 0.00024974049301818013 0.0062620700336992741 0.0050027505494654179
   vertex 0.00024974049301818013 0.0070003499276936054 0.0039069936610758305
   vertex 0.00024974049301818013 0.0042831399478018284 0.003892658744007349
  endloop
 endfacet
 facet normal -1 -0 0
  outer loop
   vertex 0.00024974049301818013 0.0053535015322268009 0.0059620575048029423
   vertex 0.00024974049301818013 0.0062620700336992741 0.0050027505494654179
   vertex 0.00024974049301818013 0.0042831399478018284 0.003892658744007349
  endloop
 endfacet
 facet normal -1 0 0
  outer loop
   vertex 0.00024974049301818013 -0.010319957509636879 -0.047356031835079193
   vertex 0.00024974049301818013 -0.0096818301826715469 -0.050353258848190308
   vertex 0.00024974049301818013 -0.010844385251402855 -0.04973737895488739
  endloop
 endfacet
 facet normal -1 0 0
  outer loop
   vertex 0.00024974049301818013 -0.0084340553730726242 -0.050770275294780731
   vertex 0.00024974049301818013 -0.0096818301826715469 -0.050353258848190308
   vertex 0.00024974049301818013 -0.010319957509636879 -0.047356031835079193
  endloop
 endfacet
 facet normal -1 0 0
  outer loop
   vertex 0.00024974049301818013 -0.004652900155633688 -0.048459582030773163
   vertex 0.00024974049301818013 -0.0084340553730726242 -0.050770275294780731
   vertex 0.00024974049301818013 -0.010319957509636879 -0.047356031835079193
  endloop
 endfacet
 facet normal -1 0 0
  outer loop
   vertex 0.00024974049301818013 -0.0071348077617585659 -0.050977155566215515
   vertex 0.00024974049301818013 -0.0084340553730726242 -0.050770275294780731
   vertex 0.00024974049301818013 -0.004652900155633688 -0.048459582030773163
  endloop
 endfacet
 facet normal -1 0 0
  outer loop
   vertex 0.00024974049301818013 -0.005819221492856741 -0.050968289375305176
   vertex 0.00024974049301818013 -0.0071348077617585659 -0.050977155566215515
   vertex 0.00024974049301818013 -0.004652900155633688 -0.048459582030773163
  endloop
 endfacet
 facet normal -1 0 -0
  outer loop
   vertex 0.00024974049301818013 0.0042831399478018284 0.003892658744007349
   vertex 0.00024974049301818013 0.0042994287796318531 0.0067587182857096195
   vertex 0.00024974049301818013 0.0053535015322268009 0.0059620575048029423
  endloop
 endfacet
 facet normal -1 -0 0
  outer loop
   vertex 0.00024974049301818013 0.003128603333607316 0.0073710368014872074
   vertex 0.00024974049301818013 0.0042994287796318531 0.0067587182857096195
   vertex 0.00024974049301818013 0.0042831399478018284 0.003892658744007349
  endloop
 endfacet
 facet normal -1 0 -0
  outer loop
   vertex 0.00024974049301818013 -0.0012199297780171037 0.0056389556266367435
   vertex 0.00024974049301818013 0.003128603333607316 0.0073710368014872074
   vertex 0.00024974049301818013 0.0042831399478018284 0.003892658744007349
  endloop
 endfacet
 facet normal -1 -0 0
  outer loop
   vertex 0.00024974049301818013 0.0018729664152488112 0.007782279048115015
   vertex 0.00024974049301818013 0.003128603333607316 0.0073710368014872074
   vertex 0.00024974049301818013 -0.0012199297780171037 0.0056389556266367435
  endloop
 endfacet
 facet normal -1 -0 0
  outer loop
   vertex 0.00024974049301818013 0.00056676409440115094 0.0079812547191977501
   vertex 0.00024974049301818013 0.0018729664152488112 0.007782279048115015
   vertex 0.00024974049301818013 -0.0012199297780171037 0.0056389556266367435
  endloop
 endfacet
 facet normal 0 -0.99763111919141934 0.068790624512906781
  outer loop
   vertex 0.01224974263459444 -0.014530004933476448 -0.043107785284519196
   vertex 0.01224974263459444 -0.014439502730965614 -0.041795283555984497
   vertex 0.00024974049301818013 -0.014439502730965614 -0.041795283555984497
  endloop
 endfacet
 facet normal 0 -0.99763111919141934 0.068790624512906781
  outer loop
   vertex 0.00024974049301818013 -0.014530004933476448 -0.043107785284519196
   vertex 0.01224974263459444 -0.014530004933476448 -0.043107785284519196
   vertex 0.00024974049301818013 -0.014439502730965614 -0.041795283555984497
  endloop
 endfacet
 facet normal -0 -0.9954151592517414 -0.095648631625498734
  outer loop
   vertex 0.01224974263459444 -0.014404168352484703 -0.0444173663854599
   vertex 0.01224974263459444 -0.014530004933476448 -0.043107785284519196
   vertex 0.00024974049301818013 -0.014530004933476448 -0.043107785284519196
  endloop
 endfacet
 facet normal -0 -0.9954151592517414 -0.095648631625498734
  outer loop
   vertex 0.00024974049301818013 -0.014404168352484703 -0.0444173663854599
   vertex 0.01224974263459444 -0.014404168352484703 -0.0444173663854599
   vertex 0.00024974049301818013 -0.014530004933476448 -0.043107785284519196
  endloop
 endfacet
 facet normal -0 -0.96627933770368846 -0.25749610002274087
  outer loop
   vertex 0.01224974263459444 -0.014065401628613472 -0.045688621699810028
   vertex 0.01224974263459444 -0.014404168352484703 -0.0444173663854599
   vertex 0.00024974049301818013 -0.014404168352484703 -0.0444173663854599
  endloop
 endfacet
 facet normal -0 -0.96627933770368846 -0.25749610002274087
  outer loop
   vertex 0.00024974049301818013 -0.014065401628613472 -0.045688621699810028
   vertex 0.01224974263459444 -0.014065401628613472 -0.045688621699810028
   vertex 0.00024974049301818013 -0.014404168352484703 -0.0444173663854599
  endloop
 endfacet
 facet normal -0 -0.91101062634732954 -0.41238287874528234
  outer loop
   vertex 0.01224974263459444 -0.013522865250706673 -0.04688715934753418
   vertex 0.01224974263459444 -0.014065401628613472 -0.045688621699810028
   vertex 0.00024974049301818013 -0.014065401628613472 -0.045688621699810028
  endloop
 endfacet
 facet normal -0 -0.91101062634732954 -0.41238287874528234
  outer loop
   vertex 0.00024974049301818013 -0.013522865250706673 -0.04688715934753418
   vertex 0.01224974263459444 -0.013522865250706673 -0.04688715934753418
   vertex 0.00024974049301818013 -0.014065401628613472 -0.045688621699810028
  endloop
 endfacet
 facet normal -0 -0.83110333009316728 -0.55611802228308327
  outer loop
   vertex 0.01224974263459444 -0.012791229411959648 -0.047980569303035736
   vertex 0.01224974263459444 -0.013522865250706673 -0.04688715934753418
   vertex 0.00024974049301818013 -0.013522865250706673 -0.04688715934753418
  endloop
 endfacet
 facet normal -0 -0.83110333009316728 -0.55611802228308327
  outer loop
   vertex 0.00024974049301818013 -0.012791229411959648 -0.047980569303035736
   vertex 0.01224974263459444 -0.012791229411959648 -0.047980569303035736
   vertex 0.00024974049301818013 -0.013522865250706673 -0.04688715934753418
  endloop
 endfacet
 facet normal -0 -0.72872058687978691 -0.68481114641744767
  outer loop
   vertex 0.01224974263459444 -0.01189027912914753 -0.048939287662506104
   vertex 0.01224974263459444 -0.012791229411959648 -0.047980569303035736
   vertex 0.00024974049301818013 -0.012791229411959648 -0.047980569303035736
  endloop
 endfacet
 facet normal -0 -0.72872058687978691 -0.68481114641744767
  outer loop
   vertex 0.00024974049301818013 -0.01189027912914753 -0.048939287662506104
   vertex 0.01224974263459444 -0.01189027912914753 -0.048939287662506104
   vertex 0.00024974049301818013 -0.012791229411959648 -0.047980569303035736
  endloop
 endfacet
 facet normal -0 -0.60662966601602886 -0.79498455853512107
  outer loop
   vertex 0.01224974263459444 -0.010844385251402855 -0.04973737895488739
   vertex 0.01224974263459444 -0.01189027912914753 -0.048939287662506104
   vertex 0.00024974049301818013 -0.01189027912914753 -0.048939287662506104
  endloop
 endfacet
 facet normal -0 -0.60662966601602886 -0.79498455853512107
  outer loop
   vertex 0.00024974049301818013 -0.010844385251402855 -0.04973737895488739
   vertex 0.01224974263459444 -0.010844385251402855 -0.04973737895488739
   vertex 0.00024974049301818013 -0.01189027912914753 -0.048939287662506104
  endloop
 endfacet
 facet normal -0 -0.46813086032014811 -0.88365915239752812
  outer loop
   vertex 0.01224974263459444 -0.0096818301826715469 -0.050353258848190308
   vertex 0.01224974263459444 -0.010844385251402855 -0.04973737895488739
   vertex 0.00024974049301818013 -0.010844385251402855 -0.04973737895488739
  endloop
 endfacet
 facet normal -0 -0.46813086032014811 -0.88365915239752812
  outer loop
   vertex 0.00024974049301818013 -0.0096818301826715469 -0.050353258848190308
   vertex 0.01224974263459444 -0.0096818301826715469 -0.050353258848190308
   vertex 0.00024974049301818013 -0.010844385251402855 -0.04973737895488739
  endloop
 endfacet
 facet normal -0 -0.31697435955417047 -0.94843410703391706
  outer loop
   vertex 0.01224974263459444 -0.0084340553730726242 -0.050770275294780731
   vertex 0.01224974263459444 -0.0096818301826715469 -0.050353258848190308
   vertex 0.00024974049301818013 -0.0096818301826715469 -0.050353258848190308
  endloop
 endfacet
 facet normal -0 -0.31697435955417047 -0.94843410703391706
  outer loop
   vertex 0.00024974049301818013 -0.0084340553730726242 -0.050770275294780731
   vertex 0.01224974263459444 -0.0084340553730726242 -0.050770275294780731
   vertex 0.00024974049301818013 -0.0096818301826715469 -0.050353258848190308
  endloop
 endfacet
 facet normal -0 -0.15724981337733085 -0.9875588570777919
  outer loop
   vertex 0.01224974263459444 -0.0071348077617585659 -0.050977155566215515
   vertex 0.01224974263459444 -0.0084340553730726242 -0.050770275294780731
   vertex 0.00024974049301818013 -0.0084340553730726242 -0.050770275294780731
  endloop
 endfacet
 facet normal -0 -0.15724981337733085 -0.9875588570777919
  outer loop
   vertex 0.00024974049301818013 -0.0071348077617585659 -0.050977155566215515
   vertex 0.01224974263459444 -0.0071348077617585659 -0.050977155566215515
   vertex 0.00024974049301818013 -0.0084340553730726242 -0.050770275294780731
  endloop
 endfacet
 facet normal 0 0.0067391928457858873 -0.99997729138205305
  outer loop
   vertex 0.01224974263459444 -0.005819221492856741 -0.050968289375305176
   vertex 0.01224974263459444 -0.0071348077617585659 -0.050977155566215515
   vertex 0.00024974049301818013 -0.0071348077617585659 -0.050977155566215515
  endloop
 endfacet
 facet normal 0 0.0067391928457858873 -0.99997729138205305
  outer loop
   vertex 0.00024974049301818013 -0.005819221492856741 -0.050968289375305176
   vertex 0.01224974263459444 -0.005819221492856741 -0.050968289375305176
   vertex 0.00024974049301818013 -0.0071348077617585659 -0.050977155566215515
  endloop
 endfacet
 facet normal 0 0.17053569730633836 -0.98535149867660987
  outer loop
   vertex 0.01224974263459444 -0.004522878210991621 -0.050743930041790009
   vertex 0.01224974263459444 -0.005819221492856741 -0.050968289375305176
   vertex 0.00024974049301818013 -0.005819221492856741 -0.050968289375305176
  endloop
 endfacet
 facet normal 0 0.17053569730633836 -0.98535149867660987
  outer loop
   vertex 0.00024974049301818013 -0.004522878210991621 -0.050743930041790009
   vertex 0.01224974263459444 -0.004522878210991621 -0.050743930041790009
   vertex 0.00024974049301818013 -0.005819221492856741 -0.050968289375305176
  endloop
 endfacet
 facet normal 0 0.32972783568807817 -0.94407603209299618
  outer loop
   vertex 0.01224974263459444 -0.0032808368559926748 -0.050310134887695312
   vertex 0.01224974263459444 -0.004522878210991621 -0.050743930041790009
   vertex 0.00024974049301818013 -0.004522878210991621 -0.050743930041790009
  endloop
 endfacet
 facet normal 0 0.32972783568807817 -0.94407603209299618
  outer loop
   vertex 0.00024974049301818013 -0.0032808368559926748 -0.050310134887695312
   vertex 0.01224974263459444 -0.0032808368559926748 -0.050310134887695312
   vertex 0.00024974049301818013 -0.004522878210991621 -0.050743930041790009
  endloop
 endfacet
 facet normal 0 0.47999525658892611 -0.87727108333292914
  outer loop
   vertex 0.01224974263459444 -0.0021266860421746969 -0.04967864602804184
   vertex 0.01224974263459444 -0.0032808368559926748 -0.050310134887695312
   vertex 0.00024974049301818013 -0.0032808368559926748 -0.050310134887695312
  endloop
 endfacet
 facet normal 0 0.47999525658892611 -0.87727108333292914
  outer loop
   vertex 0.00024974049301818013 -0.0021266860421746969 -0.04967864602804184
   vertex 0.01224974263459444 -0.0021266860421746969 -0.04967864602804184
   vertex 0.00024974049301818013 -0.0032808368559926748 -0.050310134887695312
  endloop
 endfacet
 facet normal 0 0.61728700826968741 -0.78673804371052181
  outer loop
   vertex 0.01224974263459444 -0.0010916400933638215 -0.048866532742977142
   vertex 0.01224974263459444 -0.0021266860421746969 -0.04967864602804184
   vertex 0.00024974049301818013 -0.0021266860421746969 -0.04967864602804184
  endloop
 endfacet
 facet normal 0 0.61728700826968741 -0.78673804371052181
  outer loop
   vertex 0.00024974049301818013 -0.0010916400933638215 -0.048866532742977142
   vertex 0.01224974263459444 -0.0010916400933638215 -0.048866532742977142
   vertex 0.00024974049301818013 -0.0021266860421746969 -0.04967864602804184
  endloop
 endfacet
 facet normal 0 0.73788058554641334 -0.67493128648306266
  outer loop
   vertex 0.01224974263459444 -0.00020369111734908074 -0.047895766794681549
   vertex 0.01224974263459444 -0.0010916400933638215 -0.048866532742977142
   vertex 0.00024974049301818013 -0.0010916400933638215 -0.048866532742977142
  endloop
 endfacet
 facet normal 0 0.73788058554641334 -0.67493128648306266
  outer loop
   vertex 0.00024974049301818013 -0.00020369111734908074 -0.047895766794681549
   vertex 0.01224974263459444 -0.00020369111734908074 -0.047895766794681549
   vertex 0.00024974049301818013 -0.0010916400933638215 -0.048866532742977142
  endloop
 endfacet
 facet normal 0 0.83852124542290851 -0.5448689025576835
  outer loop
   vertex 0.01224974263459444 0.00051314599113538861 -0.046792596578598022
   vertex 0.01224974263459444 -0.00020369111734908074 -0.047895766794681549
   vertex 0.00024974049301818013 -0.00020369111734908074 -0.047895766794681549
  endloop
 endfacet
 facet normal 0 0.83852124542290851 -0.5448689025576835
  outer loop
   vertex 0.00024974049301818013 0.00051314599113538861 -0.046792596578598022
   vertex 0.01224974263459444 0.00051314599113538861 -0.046792596578598022
   vertex 0.00024974049301818013 -0.00020369111734908074 -0.047895766794681549
  endloop
 endfacet
 facet normal 0 0.91648454913433497 -0.40007008285803491
  outer loop
   vertex 0.01224974263459444 0.0010394848650321364 -0.045586854219436646
   vertex 0.01224974263459444 0.00051314599113538861 -0.046792596578598022
   vertex 0.00024974049301818013 0.00051314599113538861 -0.046792596578598022
  endloop
 endfacet
 facet normal 0 0.91648454913433497 -0.40007008285803491
  outer loop
   vertex 0.00024974049301818013 0.0010394848650321364 -0.045586854219436646
   vertex 0.01224974263459444 0.0010394848650321364 -0.045586854219436646
   vertex 0.00024974049301818013 0.00051314599113538861 -0.046792596578598022
  endloop
 endfacet
 facet normal 0 0.96966089794874621 -0.24445396906008926
  outer loop
   vertex 0.01224974263459444 0.0013610929017886519 -0.044311150908470154
   vertex 0.01224974263459444 0.0010394848650321364 -0.045586854219436646
   vertex 0.00024974049301818013 0.0010394848650321364 -0.045586854219436646
  endloop
 endfacet
 facet normal 0 0.96966089794874621 -0.24445396906008926
  outer loop
   vertex 0.00024974049301818013 0.0013610929017886519 -0.044311150908470154
   vertex 0.01224974263459444 0.0013610929017886519 -0.044311150908470154
   vertex 0.00024974049301818013 0.0010394848650321364 -0.045586854219436646
  endloop
 endfacet
 facet normal 0 0.99661365354529752 -0.082226671871684712
  outer loop
   vertex 0.01224974263459444 0.0014692716067656875 -0.042999990284442902
   vertex 0.01224974263459444 0.0013610929017886519 -0.044311150908470154
   vertex 0.00024974049301818013 0.0013610929017886519 -0.044311150908470154
  endloop
 endfacet
 facet normal 0 0.99661365354529752 -0.082226671871684712
  outer loop
   vertex 0.00024974049301818013 0.0014692716067656875 -0.042999990284442902
   vertex 0.01224974263459444 0.0014692716067656875 -0.042999990284442902
   vertex 0.00024974049301818013 0.0013610929017886519 -0.044311150908470154
  endloop
 endfacet
 facet normal 0 -0.98859651453126496 0.15058861662368234
  outer loop
   vertex 0.00024974049301818013 -0.0078894998878240585 0.0012047128984704614
   vertex 0.01224974263459444 -0.014439502730965614 -0.041795283555984497
   vertex 0.01224974263459444 -0.0078894998878240585 0.0012047128984704614
  endloop
 endfacet
 facet normal 0 -0.98859651453126496 0.15058861662368234
  outer loop
   vertex 0.00024974049301818013 -0.014439502730965614 -0.041795283555984497
   vertex 0.01224974263459444 -0.014439502730965614 -0.041795283555984497
   vertex 0.00024974049301818013 -0.0078894998878240585 0.0012047128984704614
  endloop
 endfacet
 facet normal 0 0.99765552293307092 -0.068435791521256784
  outer loop
   vertex 0.01224974263459444 0.0080184657126665115 0.00011347103281877935
   vertex 0.01224974263459444 0.0079280436038970947 -0.0012047005584463477
   vertex 0.00024974049301818013 0.0079280436038970947 -0.0012047005584463477
  endloop
 endfacet
 facet normal 0 0.99765552293307092 -0.068435791521256784
  outer loop
   vertex 0.00024974049301818013 0.0080184657126665115 0.00011347103281877935
   vertex 0.01224974263459444 0.0080184657126665115 0.00011347103281877935
   vertex 0.00024974049301818013 0.0079280436038970947 -0.0012047005584463477
  endloop
 endfacet
 facet normal 0 0.99531302864246995 0.096705610046954479
  outer loop
   vertex 0.01224974263459444 0.0078906919807195663 0.001428543240763247
   vertex 0.01224974263459444 0.0080184657126665115 0.00011347103281877935
   vertex 0.00024974049301818013 0.0080184657126665115 0.00011347103281877935
  endloop
 endfacet
 facet normal 0 0.99531302864246995 0.096705610046954479
  outer loop
   vertex 0.00024974049301818013 0.0078906919807195663 0.001428543240763247
   vertex 0.01224974263459444 0.0078906919807195663 0.001428543240763247
   vertex 0.00024974049301818013 0.0080184657126665115 0.00011347103281877935
  endloop
 endfacet
 facet normal 0 0.96582158338137436 0.25920777201830736
  outer loop
   vertex 0.01224974263459444 0.0075482060201466084 0.0027046636678278446
   vertex 0.01224974263459444 0.0078906919807195663 0.001428543240763247
   vertex 0.00024974049301818013 0.0078906919807195663 0.001428543240763247
  endloop
 endfacet
 facet normal 0 0.96582158338137436 0.25920777201830736
  outer loop
   vertex 0.00024974049301818013 0.0075482060201466084 0.0027046636678278446
   vertex 0.01224974263459444 0.0075482060201466084 0.0027046636678278446
   vertex 0.00024974049301818013 0.0078906919807195663 0.001428543240763247
  endloop
 endfacet
 facet normal 0 0.90998333319884039 0.41464482789530616
  outer loop
   vertex 0.01224974263459444 0.0070003499276936054 0.0039069936610758305
   vertex 0.01224974263459444 0.0075482060201466084 0.0027046636678278446
   vertex 0.00024974049301818013 0.0075482060201466084 0.0027046636678278446
  endloop
 endfacet
 facet normal 0 0.90998333319884039 0.41464482789530616
  outer loop
   vertex 0.00024974049301818013 0.0070003499276936054 0.0039069936610758305
   vertex 0.01224974263459444 0.0070003499276936054 0.0039069936610758305
   vertex 0.00024974049301818013 0.0075482060201466084 0.0027046636678278446
  endloop
 endfacet
 facet normal 0 0.82932428542350667 0.55876759892355088
  outer loop
   vertex 0.01224974263459444 0.0062620700336992741 0.0050027505494654179
   vertex 0.01224974263459444 0.0070003499276936054 0.0039069936610758305
   vertex 0.00024974049301818013 0.0070003499276936054 0.0039069936610758305
  endloop
 endfacet
 facet normal 0 0.82932428542350667 0.55876759892355088
  outer loop
   vertex 0.00024974049301818013 0.0062620700336992741 0.0050027505494654179
   vertex 0.01224974263459444 0.0062620700336992741 0.0050027505494654179
   vertex 0.00024974049301818013 0.0070003499276936054 0.0039069936610758305
  endloop
 endfacet
 facet normal 0 0.72604662095489758 0.68764547857160785
  outer loop
   vertex 0.01224974263459444 0.0053535015322268009 0.0059620575048029423
   vertex 0.01224974263459444 0.0062620700336992741 0.0050027505494654179
   vertex 0.00024974049301818013 0.0062620700336992741 0.0050027505494654179
  endloop
 endfacet
 facet normal 0 0.72604662095489758 0.68764547857160785
  outer loop
   vertex 0.00024974049301818013 0.0053535015322268009 0.0059620575048029423
   vertex 0.01224974263459444 0.0053535015322268009 0.0059620575048029423
   vertex 0.00024974049301818013 0.0062620700336992741 0.0050027505494654179
  endloop
 endfacet
 facet normal 0 0.60295365739608431 0.79777621362928919
  outer loop
   vertex 0.01224974263459444 0.0042994287796318531 0.0067587182857096195
   vertex 0.01224974263459444 0.0053535015322268009 0.0059620575048029423
   vertex 0.00024974049301818013 0.0053535015322268009 0.0059620575048029423
  endloop
 endfacet
 facet normal 0 0.60295365739608431 0.79777621362928919
  outer loop
   vertex 0.00024974049301818013 0.0042994287796318531 0.0067587182857096195
   vertex 0.01224974263459444 0.0042994287796318531 0.0067587182857096195
   vertex 0.00024974049301818013 0.0053535015322268009 0.0059620575048029423
  endloop
 endfacet
 facet normal 0 0.46343022276035412 0.88613341469120133
  outer loop
   vertex 0.01224974263459444 0.003128603333607316 0.0073710368014872074
   vertex 0.01224974263459444 0.0042994287796318531 0.0067587182857096195
   vertex 0.00024974049301818013 0.0042994287796318531 0.0067587182857096195
  endloop
 endfacet
 facet normal 0 0.46343022276035412 0.88613341469120133
  outer loop
   vertex 0.00024974049301818013 0.003128603333607316 0.0073710368014872074
   vertex 0.01224974263459444 0.003128603333607316 0.0073710368014872074
   vertex 0.00024974049301818013 0.0042994287796318531 0.0067587182857096195
  endloop
 endfacet
 facet normal 0 0.31124860394180276 0.95032852558695657
  outer loop
   vertex 0.01224974263459444 0.0018729664152488112 0.007782279048115015
   vertex 0.01224974263459444 0.003128603333607316 0.0073710368014872074
   vertex 0.00024974049301818013 0.003128603333607316 0.0073710368014872074
  endloop
 endfacet
 facet normal 0 0.31124860394180276 0.95032852558695657
  outer loop
   vertex 0.00024974049301818013 0.0018729664152488112 0.007782279048115015
   vertex 0.01224974263459444 0.0018729664152488112 0.007782279048115015
   vertex 0.00024974049301818013 0.003128603333607316 0.0073710368014872074
  endloop
 endfacet
 facet normal 0 0.15059419411332955 0.98859566492037421
  outer loop
   vertex 0.01224974263459444 0.00056676409440115094 0.0079812547191977501
   vertex 0.01224974263459444 0.0018729664152488112 0.007782279048115015
   vertex 0.00024974049301818013 0.0018729664152488112 0.007782279048115015
  endloop
 endfacet
 facet normal 0 0.15059419411332955 0.98859566492037421
  outer loop
   vertex 0.00024974049301818013 0.00056676409440115094 0.0079812547191977501
   vertex 0.01224974263459444 0.00056676409440115094 0.0079812547191977501
   vertex 0.00024974049301818013 0.0018729664152488112 0.007782279048115015
  endloop
 endfacet
 facet normal 0 -0.014187608654697988 0.99989935081520154
  outer loop
   vertex 0.01224974263459444 -0.00075437285704538226 0.0079625090584158897
   vertex 0.01224974263459444 0.00056676409440115094 0.0079812547191977501
   vertex 0.00024974049301818013 0.00056676409440115094 0.0079812547191977501
  endloop
 endfacet
 facet normal 0 -0.014187608654697988 0.99989935081520154
  outer loop
   vertex 0.00024974049301818013 -0.00075437285704538226 0.0079625090584158897
   vertex 0.01224974263459444 -0.00075437285704538226 0.0079625090584158897
   vertex 0.00024974049301818013 0.00056676409440115094 0.0079812547191977501
  endloop
 endfacet
 facet normal 0 -0.17856346198403966 0.9839283968075494
  outer loop
   vertex 0.01224974263459444 -0.0020544079598039389 0.0077265785075724125
   vertex 0.01224974263459444 -0.00075437285704538226 0.0079625090584158897
   vertex 0.00024974049301818013 -0.00075437285704538226 0.0079625090584158897
  endloop
 endfacet
 facet normal 0 -0.17856346198403966 0.9839283968075494
  outer loop
   vertex 0.00024974049301818013 -0.0020544079598039389 0.0077265785075724125
   vertex 0.01224974263459444 -0.0020544079598039389 0.0077265785075724125
   vertex 0.00024974049301818013 -0.00075437285704538226 0.0079625090584158897
  endloop
 endfacet
 facet normal 0 -0.33808850535587243 0.94111431959471958
  outer loop
   vertex 0.01224974263459444 -0.0032978763338178396 0.0072798714973032475
   vertex 0.01224974263459444 -0.0020544079598039389 0.0077265785075724125
   vertex 0.00024974049301818013 -0.0020544079598039389 0.0077265785075724125
  endloop
 endfacet
 facet normal 0 -0.33808850535587243 0.94111431959471958
  outer loop
   vertex 0.00024974049301818013 -0.0032978763338178396 0.0072798714973032475
   vertex 0.01224974263459444 -0.0032978763338178396 0.0072798714973032475
   vertex 0.00024974049301818013 -0.0020544079598039389 0.0077265785075724125
  endloop
 endfacet
 facet normal 0 -0.48836861239194085 0.87263743813245276
  outer loop
   vertex 0.01224974263459444 -0.0044508627615869045 0.0066346065141260624
   vertex 0.01224974263459444 -0.0032978763338178396 0.0072798714973032475
   vertex 0.00024974049301818013 -0.0032978763338178396 0.0072798714973032475
  endloop
 endfacet
 facet normal 0 -0.48836861239194085 0.87263743813245276
  outer loop
   vertex 0.00024974049301818013 -0.0044508627615869045 0.0066346065141260624
   vertex 0.01224974263459444 -0.0044508627615869045 0.0066346065141260624
   vertex 0.00024974049301818013 -0.0032978763338178396 0.0072798714973032475
  endloop
 endfacet
 facet normal 0 -0.62534674588884731 0.78034700448340888
  outer loop
   vertex 0.01224974263459444 -0.0054819150827825069 0.0058083520270884037
   vertex 0.01224974263459444 -0.0044508627615869045 0.0066346065141260624
   vertex 0.00024974049301818013 -0.0044508627615869045 0.0066346065141260624
  endloop
 endfacet
 facet normal 0 -0.62534674588884731 0.78034700448340888
  outer loop
   vertex 0.00024974049301818013 -0.0054819150827825069 0.0058083520270884037
   vertex 0.01224974263459444 -0.0054819150827825069 0.0058083520270884037
   vertex 0.00024974049301818013 -0.0044508627615869045 0.0066346065141260624
  endloop
 endfacet
 facet normal 0 -0.74525591390895773 0.66677854103422096
  outer loop
   vertex 0.01224974263459444 -0.006362908985465765 0.0048236683942377567
   vertex 0.01224974263459444 -0.0054819150827825069 0.0058083520270884037
   vertex 0.00024974049301818013 -0.0054819150827825069 0.0058083520270884037
  endloop
 endfacet
 facet normal 0 -0.74525591390895773 0.66677854103422096
  outer loop
   vertex 0.00024974049301818013 -0.006362908985465765 0.0048236683942377567
   vertex 0.01224974263459444 -0.006362908985465765 0.0048236683942377567
   vertex 0.00024974049301818013 -0.0054819150827825069 0.0058083520270884037
  endloop
 endfacet
 facet normal 0 -0.844840146093223 0.53501881046294208
  outer loop
   vertex 0.01224974263459444 -0.0070698126219213009 0.003707407508045435
   vertex 0.01224974263459444 -0.006362908985465765 0.0048236683942377567
   vertex 0.00024974049301818013 -0.006362908985465765 0.0048236683942377567
  endloop
 endfacet
 facet normal 0 -0.844840146093223 0.53501881046294208
  outer loop
   vertex 0.00024974049301818013 -0.0070698126219213009 0.003707407508045435
   vertex 0.01224974263459444 -0.0070698126219213009 0.003707407508045435
   vertex 0.00024974049301818013 -0.006362908985465765 0.0048236683942377567
  endloop
 endfacet
 facet normal 0 -0.92137697177345179 0.38867013763033559
  outer loop
   vertex 0.01224974263459444 -0.0075833476148545742 0.002490027341991663
   vertex 0.01224974263459444 -0.0070698126219213009 0.003707407508045435
   vertex 0.00024974049301818013 -0.0070698126219213009 0.003707407508045435
  endloop
 endfacet
 facet normal 0 -0.92137697177345179 0.38867013763033559
  outer loop
   vertex 0.00024974049301818013 -0.0075833476148545742 0.002490027341991663
   vertex 0.01224974263459444 -0.0075833476148545742 0.002490027341991663
   vertex 0.00024974049301818013 -0.0070698126219213009 0.003707407508045435
  endloop
 endfacet
 facet normal 0 -0.9727848896420026 0.23171007419660686
  outer loop
   vertex 0.01224974263459444 -0.0078894998878240585 0.0012047128984704614
   vertex 0.01224974263459444 -0.0075833476148545742 0.002490027341991663
   vertex 0.00024974049301818013 -0.0075833476148545742 0.002490027341991663
  endloop
 endfacet
 facet normal 0 -0.9727848896420026 0.23171007419660686
  outer loop
   vertex 0.00024974049301818013 -0.0078894998878240585 0.0012047128984704614
   vertex 0.01224974263459444 -0.0078894998878240585 0.0012047128984704614
   vertex 0.00024974049301818013 -0.0075833476148545742 0.002490027341991663
  endloop
 endfacet
 facet normal 0 0.98859652250483876 -0.15058856427810141
  outer loop
   vertex 0.00024974049301818013 0.0015615507727488875 -0.042999990284442902
   vertex 0.01224974263459444 0.0079280436038970947 -0.0012047005584463477
   vertex 0.01224974263459444 0.0015615507727488875 -0.042999990284442902
  endloop
 endfacet
 facet normal 0 0.98859652250483876 -0.15058856427810141
  outer loop
   vertex 0.00024974049301818013 0.0079280436038970947 -0.0012047005584463477
   vertex 0.01224974263459444 0.0079280436038970947 -0.0012047005584463477
   vertex 0.00024974049301818013 0.0015615507727488875 -0.042999990284442902
  endloop
 endfacet
 facet normal 0 -0 -1
  outer loop
   vertex 0.00024974049301818013 0.0014692716067656875 -0.042999990284442902
   vertex 0.01224974263459444 0.0015615507727488875 -0.042999990284442902
   vertex 0.01224974263459444 0.0014692716067656875 -0.042999990284442902
  endloop
 endfacet
 facet normal -0 0 -1
  outer loop
   vertex 0.00024974049301818013 0.0015615507727488875 -0.042999990284442902
   vertex 0.01224974263459444 0.0015615507727488875 -0.042999990284442902
   vertex 0.00024974049301818013 0.0014692716067656875 -0.042999990284442902
  endloop
 endfacet
 facet normal 0 0.6742279004308499 -0.73852334985470036
  outer loop
   vertex 0.01224974263459444 -0.0012199297780171037 0.0056389556266367435
   vertex 0.00024974049301818013 -0.0054838000796735287 0.0017462956020608544
   vertex 0.00024974049301818013 -0.0012199297780171037 0.0056389556266367435
  endloop
 endfacet
 facet normal 0 0.6742279004308499 -0.73852334985470036
  outer loop
   vertex 0.01224974263459444 -0.0054838000796735287 0.0017462956020608544
   vertex 0.00024974049301818013 -0.0054838000796735287 0.0017462956020608544
   vertex 0.01224974263459444 -0.0012199297780171037 0.0056389556266367435
  endloop
 endfacet
 facet normal 0 -0.30246751129118299 -0.95315969523124411
  outer loop
   vertex 0.01224974263459444 0.0042831399478018284 0.003892658744007349
   vertex 0.00024974049301818013 -0.0012199297780171037 0.0056389556266367435
   vertex 0.00024974049301818013 0.0042831399478018284 0.003892658744007349
  endloop
 endfacet
 facet normal 0 -0.30246751129118299 -0.95315969523124411
  outer loop
   vertex 0.01224974263459444 -0.0012199297780171037 0.0056389556266367435
   vertex 0.00024974049301818013 -0.0012199297780171037 0.0056389556266367435
   vertex 0.01224974263459444 0.0042831399478018284 0.003892658744007349
  endloop
 endfacet
 facet normal 0 0.30246742990641601 0.95315972105718316
  outer loop
   vertex 0.01224974263459444 -0.004244599025696516 -0.003892646636813879
   vertex 0.00024974049301818013 0.0012584723299369216 -0.0056389435194432735
   vertex 0.00024974049301818013 -0.004244599025696516 -0.003892646636813879
  endloop
 endfacet
 facet normal -0 0.30246742990641601 0.95315972105718316
  outer loop
   vertex 0.01224974263459444 0.0012584723299369216 -0.0056389435194432735
   vertex 0.00024974049301818013 0.0012584723299369216 -0.0056389435194432735
   vertex 0.01224974263459444 -0.004244599025696516 -0.003892646636813879
  endloop
 endfacet
 facet normal 0 0.97669409792537831 0.21463606192280826
  outer loop
   vertex 0.01224974263459444 -0.0054838000796735287 0.0017462956020608544
   vertex 0.00024974049301818013 -0.004244599025696516 -0.003892646636813879
   vertex 0.00024974049301818013 -0.0054838000796735287 0.0017462956020608544
  endloop
 endfacet
 facet normal -0 0.97669409792537831 0.21463606192280826
  outer loop
   vertex 0.01224974263459444 -0.004244599025696516 -0.003892646636813879
   vertex 0.00024974049301818013 -0.004244599025696516 -0.003892646636813879
   vertex 0.01224974263459444 -0.0054838000796735287 0.0017462956020608544
  endloop
 endfacet
 facet normal 0 -0.97669402843548669 -0.21463637813395178
  outer loop
   vertex 0.01224974263459444 0.0055223428644239902 -0.0017462832620367408
   vertex 0.00024974049301818013 0.0042831399478018284 0.003892658744007349
   vertex 0.00024974049301818013 0.0055223428644239902 -0.0017462832620367408
  endloop
 endfacet
 facet normal 0 -0.97669402843548669 -0.21463637813395178
  outer loop
   vertex 0.01224974263459444 0.0042831399478018284 0.003892658744007349
   vertex 0.00024974049301818013 0.0042831399478018284 0.003892658744007349
   vertex 0.01224974263459444 0.0055223428644239902 -0.0017462832620367408
  endloop
 endfacet
 facet normal 0 -0.67422790234574426 0.73852334810651565
  outer loop
   vertex 0.01224974263459444 0.0012584723299369216 -0.0056389435194432735
   vertex 0.00024974049301818013 0.0055223428644239902 -0.0017462832620367408
   vertex 0.00024974049301818013 0.0012584723299369216 -0.0056389435194432735
  endloop
 endfacet
 facet normal 0 -0.67422790234574426 0.73852334810651565
  outer loop
   vertex 0.01224974263459444 0.0055223428644239902 -0.0017462832620367408
   vertex 0.00024974049301818013 0.0055223428644239902 -0.0017462832620367408
   vertex 0.01224974263459444 0.0012584723299369216 -0.0056389435194432735
  endloop
 endfacet
 facet normal 0 0.75448874202803451 -0.65631298795083592
  outer loop
   vertex 0.01224974263459444 -0.0084085594862699509 -0.037540405988693237
   vertex 0.00024974049301818013 -0.012197783216834068 -0.041896447539329529
   vertex 0.00024974049301818013 -0.0084085594862699509 -0.037540405988693237
  endloop
 endfacet
 facet normal 0 0.75448874202803451 -0.65631298795083592
  outer loop
   vertex 0.01224974263459444 -0.012197783216834068 -0.041896447539329529
   vertex 0.00024974049301818013 -0.012197783216834068 -0.041896447539329529
   vertex 0.01224974263459444 -0.0084085594862699509 -0.037540405988693237
  endloop
 endfacet
 facet normal 0 0.94562835252416044 0.32524916433780732
  outer loop
   vertex 0.01224974263459444 -0.012197783216834068 -0.041896447539329529
   vertex 0.00024974049301818013 -0.010319957509636879 -0.047356031835079193
   vertex 0.00024974049301818013 -0.012197783216834068 -0.041896447539329529
  endloop
 endfacet
 facet normal -0 0.94562835252416044 0.32524916433780732
  outer loop
   vertex 0.01224974263459444 -0.010319957509636879 -0.047356031835079193
   vertex 0.00024974049301818013 -0.010319957509636879 -0.047356031835079193
   vertex 0.01224974263459444 -0.012197783216834068 -0.041896447539329529
  endloop
 endfacet
 facet normal 0 0.19114041832184933 0.98156270328682949
  outer loop
   vertex 0.01224974263459444 -0.010319957509636879 -0.047356031835079193
   vertex 0.00024974049301818013 -0.004652900155633688 -0.048459582030773163
   vertex 0.00024974049301818013 -0.010319957509636879 -0.047356031835079193
  endloop
 endfacet
 facet normal -0 0.19114041832184933 0.98156270328682949
  outer loop
   vertex 0.01224974263459444 -0.004652900155633688 -0.048459582030773163
   vertex 0.00024974049301818013 -0.004652900155633688 -0.048459582030773163
   vertex 0.01224974263459444 -0.010319957509636879 -0.047356031835079193
  endloop
 endfacet
 facet normal 0 -0.75448843749498185 0.65631333803784664
  outer loop
   vertex 0.01224974263459444 -0.004652900155633688 -0.048459582030773163
   vertex 0.00024974049301818013 -0.00086367287440225482 -0.044103540480136871
   vertex 0.00024974049301818013 -0.004652900155633688 -0.048459582030773163
  endloop
 endfacet
 facet normal 0 -0.75448843749498185 0.65631333803784664
  outer loop
   vertex 0.01224974263459444 -0.00086367287440225482 -0.044103540480136871
   vertex 0.00024974049301818013 -0.00086367287440225482 -0.044103540480136871
   vertex 0.01224974263459444 -0.004652900155633688 -0.048459582030773163
  endloop
 endfacet
 facet normal 0 -0.94562815097017683 -0.32524975033460751
  outer loop
   vertex 0.01224974263459444 -0.00086367287440225482 -0.044103540480136871
   vertex 0.00024974049301818013 -0.0027415023650974035 -0.038643956184387207
   vertex 0.00024974049301818013 -0.00086367287440225482 -0.044103540480136871
  endloop
 endfacet
 facet normal 0 -0.94562815097017683 -0.32524975033460751
  outer loop
   vertex 0.01224974263459444 -0.0027415023650974035 -0.038643956184387207
   vertex 0.00024974049301818013 -0.0027415023650974035 -0.038643956184387207
   vertex 0.01224974263459444 -0.00086367287440225482 -0.044103540480136871
  endloop
 endfacet
 facet normal 0 -0.19114042588793365 -0.98156270181348027
  outer loop
   vertex 0.01224974263459444 -0.0027415023650974035 -0.038643956184387207
   vertex 0.00024974049301818013 -0.0084085594862699509 -0.037540405988693237
   vertex 0.00024974049301818013 -0.0027415023650974035 -0.038643956184387207
  endloop
 endfacet
 facet normal 0 -0.19114042588793365 -0.98156270181348027
  outer loop
   vertex 0.01224974263459444 -0.0084085594862699509 -0.037540405988693237
   vertex 0.00024974049301818013 -0.0084085594862699509 -0.037540405988693237
   vertex 0.01224974263459444 -0.0027415023650974035 -0.038643956184387207
  endloop
 endfacet
endsolid
