solid Visualization Toolkit generated SLA File
 facet normal 0 -1 0
  outer loop
   vertex 0.1385786384344101 -0.24499998986721039 7.0799144324951158e-09
   vertex -0.13857866823673248 -0.24499998986721039 7.0799144324951158e-09
   vertex 0.1385786384344101 -0.24499998986721039 -0.076999999582767487
  endloop
 endfacet
 facet normal 0 -1 0
  outer loop
   vertex 0.1385786384344101 -0.24499998986721039 -0.076999999582767487
   vertex -0.13857866823673248 -0.24499998986721039 7.0799144324951158e-09
   vertex -0.13857866823673248 -0.24499998986721039 -0.076999999582767487
  endloop
 endfacet
 facet normal -0.70710678118654757 -0.70710678118654757 0
  outer loop
   vertex 0.15857863426208496 -0.26499998569488525 7.0799144324951158e-09
   vertex 0.1385786384344101 -0.24499998986721039 7.0799144324951158e-09
   vertex 0.15857863426208496 -0.26499998569488525 -0.076999999582767487
  endloop
 endfacet
 facet normal -0.70710678118654757 -0.70710678118654757 -0
  outer loop
   vertex 0.15857863426208496 -0.26499998569488525 -0.076999999582767487
   vertex 0.1385786384344101 -0.24499998986721039 7.0799144324951158e-09
   vertex 0.1385786384344101 -0.24499998986721039 -0.076999999582767487
  endloop
 endfacet
 facet normal 0 -1 0
  outer loop
   vertex 0.24142134189605713 -0.26499998569488525 7.0799144324951158e-09
   vertex 0.15857863426208496 -0.26499998569488525 7.0799144324951158e-09
   vertex 0.24142134189605713 -0.26499998569488525 -0.076999999582767487
  endloop
 endfacet
 facet normal 0 -1 0
  outer loop
   vertex 0.24142134189605713 -0.26499998569488525 -0.076999999582767487
   vertex 0.15857863426208496 -0.26499998569488525 7.0799144324951158e-09
   vertex 0.15857863426208496 -0.26499998569488525 -0.076999999582767487
  endloop
 endfacet
 facet normal 0.70710660131363223 -0.70710696105941695 0
  outer loop
   vertex 0.30000001192092896 -0.20642134547233582 7.0799144324951158e-09
   vertex 0.24142134189605713 -0.26499998569488525 7.0799144324951158e-09
   vertex 0.30000001192092896 -0.20642134547233582 -0.076999999582767487
  endloop
 endfacet
 facet normal 0.70710660131363223 -0.70710696105941695 0
  outer loop
   vertex 0.30000001192092896 -0.20642134547233582 -0.076999999582767487
   vertex 0.24142134189605713 -0.26499998569488525 7.0799144324951158e-09
   vertex 0.24142134189605713 -0.26499998569488525 -0.076999999582767487
  endloop
 endfacet
 facet normal 1 -0 0
  outer loop
   vertex 0.30000001192092896 -0.12357863783836365 7.0799144324951158e-09
   vertex 0.30000001192092896 -0.20642134547233582 7.0799144324951158e-09
   vertex 0.30000001192092896 -0.12357863783836365 -0.076999999582767487
  endloop
 endfacet
 facet normal 1 0 0
  outer loop
   vertex 0.30000001192092896 -0.12357863783836365 -0.076999999582767487
   vertex 0.30000001192092896 -0.20642134547233582 7.0799144324951158e-09
   vertex 0.30000001192092896 -0.20642134547233582 -0.076999999582767487
  endloop
 endfacet
 facet normal 0.70710678118654757 0.70710678118654757 0
  outer loop
   vertex 0.2955000102519989 -0.11907863616943359 7.0799144324951158e-09
   vertex 0.30000001192092896 -0.12357863783836365 7.0799144324951158e-09
   vertex 0.2955000102519989 -0.11907863616943359 -0.076999999582767487
  endloop
 endfacet
 facet normal 0.70710678118654757 0.70710678118654757 0
  outer loop
   vertex 0.2955000102519989 -0.11907863616943359 -0.076999999582767487
   vertex 0.30000001192092896 -0.12357863783836365 7.0799144324951158e-09
   vertex 0.30000001192092896 -0.12357863783836365 -0.076999999582767487
  endloop
 endfacet
 facet normal 1 -0 0
  outer loop
   vertex 0.2955000102519989 0.11907882988452911 7.0799144324951158e-09
   vertex 0.2955000102519989 -0.11907863616943359 7.0799144324951158e-09
   vertex 0.2955000102519989 0.11907882988452911 -0.076999999582767487
  endloop
 endfacet
 facet normal 1 0 0
  outer loop
   vertex 0.2955000102519989 0.11907882988452911 -0.076999999582767487
   vertex 0.2955000102519989 -0.11907863616943359 7.0799144324951158e-09
   vertex 0.2955000102519989 -0.11907863616943359 -0.076999999582767487
  endloop
 endfacet
 facet normal 0.70710678118654757 -0.70710678118654757 0
  outer loop
   vertex 0.30000001192092896 0.12357883155345917 7.0799144324951158e-09
   vertex 0.2955000102519989 0.11907882988452911 7.0799144324951158e-09
   vertex 0.30000001192092896 0.12357883155345917 -0.076999999582767487
  endloop
 endfacet
 facet normal 0.70710678118654757 -0.70710678118654757 0
  outer loop
   vertex 0.30000001192092896 0.12357883155345917 -0.076999999582767487
   vertex 0.2955000102519989 0.11907882988452911 7.0799144324951158e-09
   vertex 0.2955000102519989 0.11907882988452911 -0.076999999582767487
  endloop
 endfacet
 facet normal 1 -0 0
  outer loop
   vertex 0.30000001192092896 0.20642153918743134 7.0799144324951158e-09
   vertex 0.30000001192092896 0.12357883155345917 7.0799144324951158e-09
   vertex 0.30000001192092896 0.20642153918743134 -0.076999999582767487
  endloop
 endfacet
 facet normal 1 0 0
  outer loop
   vertex 0.30000001192092896 0.20642153918743134 -0.076999999582767487
   vertex 0.30000001192092896 0.12357883155345917 7.0799144324951158e-09
   vertex 0.30000001192092896 0.12357883155345917 -0.076999999582767487
  endloop
 endfacet
 facet normal 0.70710687112295378 0.70710669125012993 0
  outer loop
   vertex 0.24142134189605713 0.26500022411346436 7.0799144324951158e-09
   vertex 0.30000001192092896 0.20642153918743134 7.0799144324951158e-09
   vertex 0.24142134189605713 0.26500022411346436 -0.076999999582767487
  endloop
 endfacet
 facet normal 0.70710687112295378 0.70710669125012993 0
  outer loop
   vertex 0.24142134189605713 0.26500022411346436 -0.076999999582767487
   vertex 0.30000001192092896 0.20642153918743134 7.0799144324951158e-09
   vertex 0.30000001192092896 0.20642153918743134 -0.076999999582767487
  endloop
 endfacet
 facet normal 0 1 0
  outer loop
   vertex 0.15857863426208496 0.26500022411346436 7.0799144324951158e-09
   vertex 0.24142134189605713 0.26500022411346436 7.0799144324951158e-09
   vertex 0.15857863426208496 0.26500022411346436 -0.076999999582767487
  endloop
 endfacet
 facet normal 0 1 0
  outer loop
   vertex 0.15857863426208496 0.26500022411346436 -0.076999999582767487
   vertex 0.24142134189605713 0.26500022411346436 7.0799144324951158e-09
   vertex 0.24142134189605713 0.26500022411346436 -0.076999999582767487
  endloop
 endfacet
 facet normal -0.70710678118654757 0.70710678118654757 0
  outer loop
   vertex 0.1385786384344101 0.24500022828578949 7.0799144324951158e-09
   vertex 0.15857863426208496 0.26500022411346436 7.0799144324951158e-09
   vertex 0.1385786384344101 0.24500022828578949 -0.076999999582767487
  endloop
 endfacet
 facet normal -0.70710678118654757 0.70710678118654757 0
  outer loop
   vertex 0.1385786384344101 0.24500022828578949 -0.076999999582767487
   vertex 0.15857863426208496 0.26500022411346436 7.0799144324951158e-09
   vertex 0.15857863426208496 0.26500022411346436 -0.076999999582767487
  endloop
 endfacet
 facet normal 0 1 0
  outer loop
   vertex -0.13857866823673248 0.24500022828578949 7.0799144324951158e-09
   vertex 0.1385786384344101 0.24500022828578949 7.0799144324951158e-09
   vertex -0.13857866823673248 0.24500022828578949 -0.076999999582767487
  endloop
 endfacet
 facet normal 0 1 0
  outer loop
   vertex -0.13857866823673248 0.24500022828578949 -0.076999999582767487
   vertex 0.1385786384344101 0.24500022828578949 7.0799144324951158e-09
   vertex 0.1385786384344101 0.24500022828578949 -0.076999999582767487
  endloop
 endfacet
 facet normal 0.70710704460445484 0.70710651776854228 0
  outer loop
   vertex -0.15857864916324615 0.26500022411346436 7.0799144324951158e-09
   vertex -0.13857866823673248 0.24500022828578949 7.0799144324951158e-09
   vertex -0.15857864916324615 0.26500022411346436 -0.076999999582767487
  endloop
 endfacet
 facet normal 0.70710704460445484 0.70710651776854228 0
  outer loop
   vertex -0.15857864916324615 0.26500022411346436 -0.076999999582767487
   vertex -0.13857866823673248 0.24500022828578949 7.0799144324951158e-09
   vertex -0.13857866823673248 0.24500022828578949 -0.076999999582767487
  endloop
 endfacet
 facet normal 0 1 0
  outer loop
   vertex -0.24142135679721832 0.26500022411346436 7.0799144324951158e-09
   vertex -0.15857864916324615 0.26500022411346436 7.0799144324951158e-09
   vertex -0.24142135679721832 0.26500022411346436 -0.076999999582767487
  endloop
 endfacet
 facet normal 0 1 0
  outer loop
   vertex -0.24142135679721832 0.26500022411346436 -0.076999999582767487
   vertex -0.15857864916324615 0.26500022411346436 7.0799144324951158e-09
   vertex -0.15857864916324615 0.26500022411346436 -0.076999999582767487
  endloop
 endfacet
 facet normal -0.70710696105937132 0.70710660131367808 0
  outer loop
   vertex -0.30000001192092896 0.20642153918743134 7.0799144324951158e-09
   vertex -0.24142135679721832 0.26500022411346436 7.0799144324951158e-09
   vertex -0.30000001192092896 0.20642153918743134 -0.076999999582767487
  endloop
 endfacet
 facet normal -0.70710696105937132 0.70710660131367808 0
  outer loop
   vertex -0.30000001192092896 0.20642153918743134 -0.076999999582767487
   vertex -0.24142135679721832 0.26500022411346436 7.0799144324951158e-09
   vertex -0.24142135679721832 0.26500022411346436 -0.076999999582767487
  endloop
 endfacet
 facet normal -1 -0 0
  outer loop
   vertex -0.30000001192092896 0.12357883155345917 7.0799144324951158e-09
   vertex -0.30000001192092896 0.20642153918743134 7.0799144324951158e-09
   vertex -0.30000001192092896 0.12357883155345917 -0.076999999582767487
  endloop
 endfacet
 facet normal -1 0 -0
  outer loop
   vertex -0.30000001192092896 0.12357883155345917 -0.076999999582767487
   vertex -0.30000001192092896 0.20642153918743134 7.0799144324951158e-09
   vertex -0.30000001192092896 0.20642153918743134 -0.076999999582767487
  endloop
 endfacet
 facet normal -0.70710443969970882 -0.70710912266563286 0
  outer loop
   vertex -0.29549998044967651 0.11907882988452911 7.0799144324951158e-09
   vertex -0.30000001192092896 0.12357883155345917 7.0799144324951158e-09
   vertex -0.29549998044967651 0.11907882988452911 -0.076999999582767487
  endloop
 endfacet
 facet normal -0.70710443969970882 -0.70710912266563286 -0
  outer loop
   vertex -0.29549998044967651 0.11907882988452911 -0.076999999582767487
   vertex -0.30000001192092896 0.12357883155345917 7.0799144324951158e-09
   vertex -0.30000001192092896 0.12357883155345917 -0.076999999582767487
  endloop
 endfacet
 facet normal -1 -0 0
  outer loop
   vertex -0.29549998044967651 -0.11907863616943359 7.0799144324951158e-09
   vertex -0.29549998044967651 0.11907882988452911 7.0799144324951158e-09
   vertex -0.29549998044967651 -0.11907863616943359 -0.076999999582767487
  endloop
 endfacet
 facet normal -1 0 -0
  outer loop
   vertex -0.29549998044967651 -0.11907863616943359 -0.076999999582767487
   vertex -0.29549998044967651 0.11907882988452911 7.0799144324951158e-09
   vertex -0.29549998044967651 0.11907882988452911 -0.076999999582767487
  endloop
 endfacet
 facet normal -0.70710443969970882 0.70710912266563286 0
  outer loop
   vertex -0.30000001192092896 -0.12357863783836365 7.0799144324951158e-09
   vertex -0.29549998044967651 -0.11907863616943359 7.0799144324951158e-09
   vertex -0.30000001192092896 -0.12357863783836365 -0.076999999582767487
  endloop
 endfacet
 facet normal -0.70710443969970882 0.70710912266563286 0
  outer loop
   vertex -0.30000001192092896 -0.12357863783836365 -0.076999999582767487
   vertex -0.29549998044967651 -0.11907863616943359 7.0799144324951158e-09
   vertex -0.29549998044967651 -0.11907863616943359 -0.076999999582767487
  endloop
 endfacet
 facet normal -1 -0 0
  outer loop
   vertex -0.30000001192092896 -0.20642134547233582 7.0799144324951158e-09
   vertex -0.30000001192092896 -0.12357863783836365 7.0799144324951158e-09
   vertex -0.30000001192092896 -0.20642134547233582 -0.076999999582767487
  endloop
 endfacet
 facet normal -1 0 -0
  outer loop
   vertex -0.30000001192092896 -0.20642134547233582 -0.076999999582767487
   vertex -0.30000001192092896 -0.12357863783836365 7.0799144324951158e-09
   vertex -0.30000001192092896 -0.12357863783836365 -0.076999999582767487
  endloop
 endfacet
 facet normal -0.70710669125008419 -0.70710687112299953 0
  outer loop
   vertex -0.24142135679721832 -0.26499998569488525 7.0799144324951158e-09
   vertex -0.30000001192092896 -0.20642134547233582 7.0799144324951158e-09
   vertex -0.24142135679721832 -0.26499998569488525 -0.076999999582767487
  endloop
 endfacet
 facet normal -0.70710669125008419 -0.70710687112299953 -0
  outer loop
   vertex -0.24142135679721832 -0.26499998569488525 -0.076999999582767487
   vertex -0.30000001192092896 -0.20642134547233582 7.0799144324951158e-09
   vertex -0.30000001192092896 -0.20642134547233582 -0.076999999582767487
  endloop
 endfacet
 facet normal 0 -1 0
  outer loop
   vertex -0.15857864916324615 -0.26499998569488525 7.0799144324951158e-09
   vertex -0.24142135679721832 -0.26499998569488525 7.0799144324951158e-09
   vertex -0.15857864916324615 -0.26499998569488525 -0.076999999582767487
  endloop
 endfacet
 facet normal 0 -1 0
  outer loop
   vertex -0.15857864916324615 -0.26499998569488525 -0.076999999582767487
   vertex -0.24142135679721832 -0.26499998569488525 7.0799144324951158e-09
   vertex -0.24142135679721832 -0.26499998569488525 -0.076999999582767487
  endloop
 endfacet
 facet normal 0.70710704460445484 -0.70710651776854228 0
  outer loop
   vertex -0.13857866823673248 -0.24499998986721039 7.0799144324951158e-09
   vertex -0.15857864916324615 -0.26499998569488525 7.0799144324951158e-09
   vertex -0.13857866823673248 -0.24499998986721039 -0.076999999582767487
  endloop
 endfacet
 facet normal 0.70710704460445484 -0.70710651776854228 0
  outer loop
   vertex -0.13857866823673248 -0.24499998986721039 -0.076999999582767487
   vertex -0.15857864916324615 -0.26499998569488525 7.0799144324951158e-09
   vertex -0.15857864916324615 -0.26499998569488525 -0.076999999582767487
  endloop
 endfacet
 facet normal 0 -0 1
  outer loop
   vertex 0.2955000102519989 0.11907882988452911 7.0799144324951158e-09
   vertex 0.30000001192092896 0.12357883155345917 7.0799144324951158e-09
   vertex 0.30000001192092896 0.20642153918743134 7.0799144324951158e-09
  endloop
 endfacet
 facet normal 0 -0 1
  outer loop
   vertex 0.1385786384344101 -0.24499998986721039 7.0799144324951158e-09
   vertex 0.15857863426208496 -0.26499998569488525 7.0799144324951158e-09
   vertex 0.24142134189605713 -0.26499998569488525 7.0799144324951158e-09
  endloop
 endfacet
 facet normal 0 0 1
  outer loop
   vertex 0.30000001192092896 -0.20642134547233582 7.0799144324951158e-09
   vertex 0.30000001192092896 -0.12357863783836365 7.0799144324951158e-09
   vertex 0.2955000102519989 -0.11907863616943359 7.0799144324951158e-09
  endloop
 endfacet
 facet normal -0 0 1
  outer loop
   vertex 0.2955000102519989 0.11907882988452911 7.0799144324951158e-09
   vertex 0.28650000691413879 0.11007882654666901 7.0799144324951158e-09
   vertex 0.2955000102519989 -0.11907863616943359 7.0799144324951158e-09
  endloop
 endfacet
 facet normal 0 0 1
  outer loop
   vertex 0.2955000102519989 -0.11907863616943359 7.0799144324951158e-09
   vertex 0.28650000691413879 0.11007882654666901 7.0799144324951158e-09
   vertex 0.28650000691413879 -0.11007864773273468 7.0799144324951158e-09
  endloop
 endfacet
 facet normal 0 0 1
  outer loop
   vertex 0.2955000102519989 -0.11907863616943359 7.0799144324951158e-09
   vertex 0.28650000691413879 -0.11007864773273468 7.0799144324951158e-09
   vertex 0.30000001192092896 -0.20642134547233582 7.0799144324951158e-09
  endloop
 endfacet
 facet normal 0 -0 1
  outer loop
   vertex 0.23441420495510101 0.23100019991397858 7.0799144324951158e-09
   vertex 0.28549998998641968 0.17991439998149872 7.0799144324951158e-09
   vertex 0.30000001192092896 0.20642153918743134 7.0799144324951158e-09
  endloop
 endfacet
 facet normal -0 0 1
  outer loop
   vertex 0.24142134189605713 0.26500022411346436 7.0799144324951158e-09
   vertex 0.15857863426208496 0.26500022411346436 7.0799144324951158e-09
   vertex 0.1385786384344101 0.24500022828578949 7.0799144324951158e-09
  endloop
 endfacet
 facet normal 0 0 1
  outer loop
   vertex 0.2955000102519989 0.11907882988452911 7.0799144324951158e-09
   vertex 0.30000001192092896 0.20642153918743134 7.0799144324951158e-09
   vertex 0.28650000691413879 0.11007882654666901 7.0799144324951158e-09
  endloop
 endfacet
 facet normal 0 0 1
  outer loop
   vertex 0.28650000691413879 0.11007882654666901 7.0799144324951158e-09
   vertex 0.30000001192092896 0.20642153918743134 7.0799144324951158e-09
   vertex 0.28549998998641968 0.17991439998149872 7.0799144324951158e-09
  endloop
 endfacet
 facet normal 0 0 1
  outer loop
   vertex 0.28650000691413879 0.11007882654666901 7.0799144324951158e-09
   vertex 0.28549998998641968 0.17991439998149872 7.0799144324951158e-09
   vertex 0.28549998998641968 0.10907883942127228 7.0799144324951158e-09
  endloop
 endfacet
 facet normal -0 0 1
  outer loop
   vertex -0.30000001192092896 0.20642153918743134 7.0799144324951158e-09
   vertex -0.30000001192092896 0.12357883155345917 7.0799144324951158e-09
   vertex -0.29549998044967651 0.11907882988452911 7.0799144324951158e-09
  endloop
 endfacet
 facet normal 0 0 1
  outer loop
   vertex -0.30000001192092896 -0.12357863783836365 7.0799144324951158e-09
   vertex -0.30000001192092896 -0.20642134547233582 7.0799144324951158e-09
   vertex -0.29549998044967651 -0.11907863616943359 7.0799144324951158e-09
  endloop
 endfacet
 facet normal 0 0 1
  outer loop
   vertex -0.29549998044967651 -0.11907863616943359 7.0799144324951158e-09
   vertex -0.30000001192092896 -0.20642134547233582 7.0799144324951158e-09
   vertex -0.28650003671646118 -0.11007864773273468 7.0799144324951158e-09
  endloop
 endfacet
 facet normal 0 0 1
  outer loop
   vertex -0.29549998044967651 -0.11907863616943359 7.0799144324951158e-09
   vertex -0.28650003671646118 -0.11007864773273468 7.0799144324951158e-09
   vertex -0.29549998044967651 0.11907882988452911 7.0799144324951158e-09
  endloop
 endfacet
 facet normal 0 -0 1
  outer loop
   vertex -0.29549998044967651 0.11907882988452911 7.0799144324951158e-09
   vertex -0.28650003671646118 -0.11007864773273468 7.0799144324951158e-09
   vertex -0.28650003671646118 0.11007882654666901 7.0799144324951158e-09
  endloop
 endfacet
 facet normal 0 0 1
  outer loop
   vertex -0.29549998044967651 0.11907882988452911 7.0799144324951158e-09
   vertex -0.28650003671646118 0.11007882654666901 7.0799144324951158e-09
   vertex -0.30000001192092896 0.20642153918743134 7.0799144324951158e-09
  endloop
 endfacet
 facet normal 0 0 1
  outer loop
   vertex -0.2344142347574234 0.23100019991397858 7.0799144324951158e-09
   vertex -0.24142135679721832 0.26500022411346436 7.0799144324951158e-09
   vertex -0.28549998998641968 0.17991439998149872 7.0799144324951158e-09
  endloop
 endfacet
 facet normal 0 0 1
  outer loop
   vertex -0.28549998998641968 0.17991439998149872 7.0799144324951158e-09
   vertex -0.24142135679721832 0.26500022411346436 7.0799144324951158e-09
   vertex -0.30000001192092896 0.20642153918743134 7.0799144324951158e-09
  endloop
 endfacet
 facet normal 0 0 1
  outer loop
   vertex -0.28549998998641968 0.17991439998149872 7.0799144324951158e-09
   vertex -0.30000001192092896 0.20642153918743134 7.0799144324951158e-09
   vertex -0.28549998998641968 0.10907883942127228 7.0799144324951158e-09
  endloop
 endfacet
 facet normal 0 0 1
  outer loop
   vertex -0.28549998998641968 0.10907883942127228 7.0799144324951158e-09
   vertex -0.30000001192092896 0.20642153918743134 7.0799144324951158e-09
   vertex -0.28650003671646118 0.11007882654666901 7.0799144324951158e-09
  endloop
 endfacet
 facet normal -0 0 1
  outer loop
   vertex -0.15857864916324615 0.26500022411346436 7.0799144324951158e-09
   vertex -0.24142135679721832 0.26500022411346436 7.0799144324951158e-09
   vertex -0.13857866823673248 0.24500022828578949 7.0799144324951158e-09
  endloop
 endfacet
 facet normal 0 0 1
  outer loop
   vertex -0.13857866823673248 0.24500022828578949 7.0799144324951158e-09
   vertex -0.24142135679721832 0.26500022411346436 7.0799144324951158e-09
   vertex -0.2344142347574234 0.23100019991397858 7.0799144324951158e-09
  endloop
 endfacet
 facet normal 0 0 1
  outer loop
   vertex -0.13857866823673248 0.24500022828578949 7.0799144324951158e-09
   vertex -0.2344142347574234 0.23100019991397858 7.0799144324951158e-09
   vertex 0.1385786384344101 0.24500022828578949 7.0799144324951158e-09
  endloop
 endfacet
 facet normal 0 0 1
  outer loop
   vertex 0.1385786384344101 0.24500022828578949 7.0799144324951158e-09
   vertex -0.2344142347574234 0.23100019991397858 7.0799144324951158e-09
   vertex 0.23441420495510101 0.23100019991397858 7.0799144324951158e-09
  endloop
 endfacet
 facet normal 0 -0 1
  outer loop
   vertex 0.1385786384344101 0.24500022828578949 7.0799144324951158e-09
   vertex 0.23441420495510101 0.23100019991397858 7.0799144324951158e-09
   vertex 0.24142134189605713 0.26500022411346436 7.0799144324951158e-09
  endloop
 endfacet
 facet normal -0 0 1
  outer loop
   vertex 0.24142134189605713 0.26500022411346436 7.0799144324951158e-09
   vertex 0.23441420495510101 0.23100019991397858 7.0799144324951158e-09
   vertex 0.30000001192092896 0.20642153918743134 7.0799144324951158e-09
  endloop
 endfacet
 facet normal -0 0 1
  outer loop
   vertex -0.28549998998641968 -0.10907863080501556 7.0799144324951158e-09
   vertex -0.28650003671646118 -0.11007864773273468 7.0799144324951158e-09
   vertex -0.28549998998641968 -0.1799142062664032 7.0799144324951158e-09
  endloop
 endfacet
 facet normal 0 0 1
  outer loop
   vertex -0.28549998998641968 -0.1799142062664032 7.0799144324951158e-09
   vertex -0.28650003671646118 -0.11007864773273468 7.0799144324951158e-09
   vertex -0.30000001192092896 -0.20642134547233582 7.0799144324951158e-09
  endloop
 endfacet
 facet normal -0 0 1
  outer loop
   vertex -0.28549998998641968 -0.1799142062664032 7.0799144324951158e-09
   vertex -0.30000001192092896 -0.20642134547233582 7.0799144324951158e-09
   vertex -0.2344142347574234 -0.23099999129772186 7.0799144324951158e-09
  endloop
 endfacet
 facet normal 0 0 1
  outer loop
   vertex -0.2344142347574234 -0.23099999129772186 7.0799144324951158e-09
   vertex -0.30000001192092896 -0.20642134547233582 7.0799144324951158e-09
   vertex -0.24142135679721832 -0.26499998569488525 7.0799144324951158e-09
  endloop
 endfacet
 facet normal 0 0 1
  outer loop
   vertex -0.2344142347574234 -0.23099999129772186 7.0799144324951158e-09
   vertex -0.24142135679721832 -0.26499998569488525 7.0799144324951158e-09
   vertex -0.15857864916324615 -0.26499998569488525 7.0799144324951158e-09
  endloop
 endfacet
 facet normal 0 0 1
  outer loop
   vertex -0.15857864916324615 -0.26499998569488525 7.0799144324951158e-09
   vertex -0.13857866823673248 -0.24499998986721039 7.0799144324951158e-09
   vertex -0.2344142347574234 -0.23099999129772186 7.0799144324951158e-09
  endloop
 endfacet
 facet normal 0 -0 1
  outer loop
   vertex -0.2344142347574234 -0.23099999129772186 7.0799144324951158e-09
   vertex -0.13857866823673248 -0.24499998986721039 7.0799144324951158e-09
   vertex 0.1385786384344101 -0.24499998986721039 7.0799144324951158e-09
  endloop
 endfacet
 facet normal 0 -0 1
  outer loop
   vertex -0.2344142347574234 -0.23099999129772186 7.0799144324951158e-09
   vertex 0.1385786384344101 -0.24499998986721039 7.0799144324951158e-09
   vertex 0.23441420495510101 -0.23099999129772186 7.0799144324951158e-09
  endloop
 endfacet
 facet normal -0 0 1
  outer loop
   vertex 0.23441420495510101 -0.23099999129772186 7.0799144324951158e-09
   vertex 0.1385786384344101 -0.24499998986721039 7.0799144324951158e-09
   vertex 0.24142134189605713 -0.26499998569488525 7.0799144324951158e-09
  endloop
 endfacet
 facet normal 0 -0 1
  outer loop
   vertex 0.23441420495510101 -0.23099999129772186 7.0799144324951158e-09
   vertex 0.24142134189605713 -0.26499998569488525 7.0799144324951158e-09
   vertex 0.28549998998641968 -0.1799142062664032 7.0799144324951158e-09
  endloop
 endfacet
 facet normal 0 0 1
  outer loop
   vertex 0.28549998998641968 -0.1799142062664032 7.0799144324951158e-09
   vertex 0.24142134189605713 -0.26499998569488525 7.0799144324951158e-09
   vertex 0.30000001192092896 -0.20642134547233582 7.0799144324951158e-09
  endloop
 endfacet
 facet normal 0 0 1
  outer loop
   vertex 0.28549998998641968 -0.1799142062664032 7.0799144324951158e-09
   vertex 0.30000001192092896 -0.20642134547233582 7.0799144324951158e-09
   vertex 0.28549998998641968 -0.10907863080501556 7.0799144324951158e-09
  endloop
 endfacet
 facet normal 0 0 1
  outer loop
   vertex 0.28549998998641968 -0.10907863080501556 7.0799144324951158e-09
   vertex 0.30000001192092896 -0.20642134547233582 7.0799144324951158e-09
   vertex 0.28650000691413879 -0.11007864773273468 7.0799144324951158e-09
  endloop
 endfacet
 facet normal 0 0 -1
  outer loop
   vertex -0.30000001192092896 -0.20642134547233582 -0.076999999582767487
   vertex -0.30000001192092896 -0.12357863783836365 -0.076999999582767487
   vertex -0.29549998044967651 -0.11907863616943359 -0.076999999582767487
  endloop
 endfacet
 facet normal -0 0 -1
  outer loop
   vertex 0.30000001192092896 0.20642153918743134 -0.076999999582767487
   vertex 0.30000001192092896 0.12357883155345917 -0.076999999582767487
   vertex 0.2955000102519989 0.11907882988452911 -0.076999999582767487
  endloop
 endfacet
 facet normal 0 0 -1
  outer loop
   vertex -0.30000001192092896 0.12357883155345917 -0.076999999582767487
   vertex -0.30000001192092896 0.20642153918743134 -0.076999999582767487
   vertex -0.29549998044967651 0.11907882988452911 -0.076999999582767487
  endloop
 endfacet
 facet normal 0 0 -1
  outer loop
   vertex -0.29549998044967651 0.11907882988452911 -0.076999999582767487
   vertex -0.30000001192092896 0.20642153918743134 -0.076999999582767487
   vertex -0.28650003671646118 0.11007882654666901 -0.076999999582767487
  endloop
 endfacet
 facet normal -0 0 -1
  outer loop
   vertex -0.29549998044967651 0.11907882988452911 -0.076999999582767487
   vertex -0.28650003671646118 0.11007882654666901 -0.076999999582767487
   vertex -0.29549998044967651 -0.11907863616943359 -0.076999999582767487
  endloop
 endfacet
 facet normal 0 -0 -1
  outer loop
   vertex -0.29549998044967651 -0.11907863616943359 -0.076999999582767487
   vertex -0.28650003671646118 0.11007882654666901 -0.076999999582767487
   vertex -0.28650003671646118 -0.11007864773273468 -0.076999999582767487
  endloop
 endfacet
 facet normal 0 0 -1
  outer loop
   vertex -0.29549998044967651 -0.11907863616943359 -0.076999999582767487
   vertex -0.28650003671646118 -0.11007864773273468 -0.076999999582767487
   vertex -0.30000001192092896 -0.20642134547233582 -0.076999999582767487
  endloop
 endfacet
 facet normal -0 0 -1
  outer loop
   vertex 0.28549998998641968 -0.10907863080501556 -0.076999999582767487
   vertex 0.28650000691413879 -0.11007864773273468 -0.076999999582767487
   vertex 0.28549998998641968 -0.1799142062664032 -0.076999999582767487
  endloop
 endfacet
 facet normal 0 -0 -1
  outer loop
   vertex 0.28549998998641968 -0.1799142062664032 -0.076999999582767487
   vertex 0.28650000691413879 -0.11007864773273468 -0.076999999582767487
   vertex 0.30000001192092896 -0.20642134547233582 -0.076999999582767487
  endloop
 endfacet
 facet normal -0 0 -1
  outer loop
   vertex 0.28549998998641968 -0.1799142062664032 -0.076999999582767487
   vertex 0.30000001192092896 -0.20642134547233582 -0.076999999582767487
   vertex 0.23441420495510101 -0.23099999129772186 -0.076999999582767487
  endloop
 endfacet
 facet normal 0 0 -1
  outer loop
   vertex 0.23441420495510101 -0.23099999129772186 -0.076999999582767487
   vertex 0.30000001192092896 -0.20642134547233582 -0.076999999582767487
   vertex 0.24142134189605713 -0.26499998569488525 -0.076999999582767487
  endloop
 endfacet
 facet normal 0 0 -1
  outer loop
   vertex 0.30000001192092896 -0.12357863783836365 -0.076999999582767487
   vertex 0.30000001192092896 -0.20642134547233582 -0.076999999582767487
   vertex 0.2955000102519989 -0.11907863616943359 -0.076999999582767487
  endloop
 endfacet
 facet normal 0 0 -1
  outer loop
   vertex 0.2955000102519989 -0.11907863616943359 -0.076999999582767487
   vertex 0.30000001192092896 -0.20642134547233582 -0.076999999582767487
   vertex 0.28650000691413879 -0.11007864773273468 -0.076999999582767487
  endloop
 endfacet
 facet normal 0 0 -1
  outer loop
   vertex 0.2955000102519989 -0.11907863616943359 -0.076999999582767487
   vertex 0.28650000691413879 -0.11007864773273468 -0.076999999582767487
   vertex 0.2955000102519989 0.11907882988452911 -0.076999999582767487
  endloop
 endfacet
 facet normal 0 0 -1
  outer loop
   vertex 0.2955000102519989 0.11907882988452911 -0.076999999582767487
   vertex 0.28650000691413879 -0.11007864773273468 -0.076999999582767487
   vertex 0.28650000691413879 0.11007882654666901 -0.076999999582767487
  endloop
 endfacet
 facet normal 0 0 -1
  outer loop
   vertex 0.2955000102519989 0.11907882988452911 -0.076999999582767487
   vertex 0.28650000691413879 0.11007882654666901 -0.076999999582767487
   vertex 0.30000001192092896 0.20642153918743134 -0.076999999582767487
  endloop
 endfacet
 facet normal -0 0 -1
  outer loop
   vertex -0.15857864916324615 0.26500022411346436 -0.076999999582767487
   vertex -0.13857866823673248 0.24500022828578949 -0.076999999582767487
   vertex -0.2344142347574234 0.23100019991397858 -0.076999999582767487
  endloop
 endfacet
 facet normal 0 -0 -1
  outer loop
   vertex -0.2344142347574234 0.23100019991397858 -0.076999999582767487
   vertex -0.13857866823673248 0.24500022828578949 -0.076999999582767487
   vertex 0.1385786384344101 0.24500022828578949 -0.076999999582767487
  endloop
 endfacet
 facet normal 0 -0 -1
  outer loop
   vertex -0.2344142347574234 0.23100019991397858 -0.076999999582767487
   vertex 0.1385786384344101 0.24500022828578949 -0.076999999582767487
   vertex 0.23441420495510101 0.23100019991397858 -0.076999999582767487
  endloop
 endfacet
 facet normal 0 0 -1
  outer loop
   vertex -0.28549998998641968 0.10907883942127228 -0.076999999582767487
   vertex -0.28650003671646118 0.11007882654666901 -0.076999999582767487
   vertex -0.28549998998641968 0.17991439998149872 -0.076999999582767487
  endloop
 endfacet
 facet normal 0 0 -1
  outer loop
   vertex -0.28549998998641968 0.17991439998149872 -0.076999999582767487
   vertex -0.28650003671646118 0.11007882654666901 -0.076999999582767487
   vertex -0.30000001192092896 0.20642153918743134 -0.076999999582767487
  endloop
 endfacet
 facet normal 0 0 -1
  outer loop
   vertex -0.28549998998641968 0.17991439998149872 -0.076999999582767487
   vertex -0.30000001192092896 0.20642153918743134 -0.076999999582767487
   vertex -0.2344142347574234 0.23100019991397858 -0.076999999582767487
  endloop
 endfacet
 facet normal 0 0 -1
  outer loop
   vertex -0.2344142347574234 0.23100019991397858 -0.076999999582767487
   vertex -0.30000001192092896 0.20642153918743134 -0.076999999582767487
   vertex -0.24142135679721832 0.26500022411346436 -0.076999999582767487
  endloop
 endfacet
 facet normal 0 0 -1
  outer loop
   vertex -0.2344142347574234 0.23100019991397858 -0.076999999582767487
   vertex -0.24142135679721832 0.26500022411346436 -0.076999999582767487
   vertex -0.15857864916324615 0.26500022411346436 -0.076999999582767487
  endloop
 endfacet
 facet normal 0 -0 -1
  outer loop
   vertex 0.1385786384344101 0.24500022828578949 -0.076999999582767487
   vertex 0.15857863426208496 0.26500022411346436 -0.076999999582767487
   vertex 0.23441420495510101 0.23100019991397858 -0.076999999582767487
  endloop
 endfacet
 facet normal 0 0 -1
  outer loop
   vertex 0.23441420495510101 0.23100019991397858 -0.076999999582767487
   vertex 0.15857863426208496 0.26500022411346436 -0.076999999582767487
   vertex 0.24142134189605713 0.26500022411346436 -0.076999999582767487
  endloop
 endfacet
 facet normal 0 -0 -1
  outer loop
   vertex 0.23441420495510101 0.23100019991397858 -0.076999999582767487
   vertex 0.24142134189605713 0.26500022411346436 -0.076999999582767487
   vertex 0.28549998998641968 0.17991439998149872 -0.076999999582767487
  endloop
 endfacet
 facet normal 0 0 -1
  outer loop
   vertex 0.28549998998641968 0.17991439998149872 -0.076999999582767487
   vertex 0.24142134189605713 0.26500022411346436 -0.076999999582767487
   vertex 0.30000001192092896 0.20642153918743134 -0.076999999582767487
  endloop
 endfacet
 facet normal 0 0 -1
  outer loop
   vertex 0.28549998998641968 0.17991439998149872 -0.076999999582767487
   vertex 0.30000001192092896 0.20642153918743134 -0.076999999582767487
   vertex 0.28549998998641968 0.10907883942127228 -0.076999999582767487
  endloop
 endfacet
 facet normal 0 0 -1
  outer loop
   vertex 0.28549998998641968 0.10907883942127228 -0.076999999582767487
   vertex 0.30000001192092896 0.20642153918743134 -0.076999999582767487
   vertex 0.28650000691413879 0.11007882654666901 -0.076999999582767487
  endloop
 endfacet
 facet normal 0 0 -1
  outer loop
   vertex -0.28650003671646118 -0.11007864773273468 -0.076999999582767487
   vertex -0.28549998998641968 -0.10907863080501556 -0.076999999582767487
   vertex -0.30000001192092896 -0.20642134547233582 -0.076999999582767487
  endloop
 endfacet
 facet normal 0 -0 -1
  outer loop
   vertex -0.30000001192092896 -0.20642134547233582 -0.076999999582767487
   vertex -0.28549998998641968 -0.10907863080501556 -0.076999999582767487
   vertex -0.28549998998641968 -0.1799142062664032 -0.076999999582767487
  endloop
 endfacet
 facet normal 0 -0 -1
  outer loop
   vertex -0.30000001192092896 -0.20642134547233582 -0.076999999582767487
   vertex -0.28549998998641968 -0.1799142062664032 -0.076999999582767487
   vertex -0.24142135679721832 -0.26499998569488525 -0.076999999582767487
  endloop
 endfacet
 facet normal 0 0 -1
  outer loop
   vertex -0.24142135679721832 -0.26499998569488525 -0.076999999582767487
   vertex -0.28549998998641968 -0.1799142062664032 -0.076999999582767487
   vertex -0.2344142347574234 -0.23099999129772186 -0.076999999582767487
  endloop
 endfacet
 facet normal 0 0 -1
  outer loop
   vertex -0.15857864916324615 -0.26499998569488525 -0.076999999582767487
   vertex -0.24142135679721832 -0.26499998569488525 -0.076999999582767487
   vertex -0.13857866823673248 -0.24499998986721039 -0.076999999582767487
  endloop
 endfacet
 facet normal 0 0 -1
  outer loop
   vertex -0.13857866823673248 -0.24499998986721039 -0.076999999582767487
   vertex -0.24142135679721832 -0.26499998569488525 -0.076999999582767487
   vertex -0.2344142347574234 -0.23099999129772186 -0.076999999582767487
  endloop
 endfacet
 facet normal 0 0 -1
  outer loop
   vertex -0.13857866823673248 -0.24499998986721039 -0.076999999582767487
   vertex -0.2344142347574234 -0.23099999129772186 -0.076999999582767487
   vertex 0.1385786384344101 -0.24499998986721039 -0.076999999582767487
  endloop
 endfacet
 facet normal 0 0 -1
  outer loop
   vertex 0.1385786384344101 -0.24499998986721039 -0.076999999582767487
   vertex -0.2344142347574234 -0.23099999129772186 -0.076999999582767487
   vertex 0.23441420495510101 -0.23099999129772186 -0.076999999582767487
  endloop
 endfacet
 facet normal 0 0 -1
  outer loop
   vertex 0.1385786384344101 -0.24499998986721039 -0.076999999582767487
   vertex 0.23441420495510101 -0.23099999129772186 -0.076999999582767487
   vertex 0.15857863426208496 -0.26499998569488525 -0.076999999582767487
  endloop
 endfacet
 facet normal 0 -0 -1
  outer loop
   vertex 0.15857863426208496 -0.26499998569488525 -0.076999999582767487
   vertex 0.23441420495510101 -0.23099999129772186 -0.076999999582767487
   vertex 0.24142134189605713 -0.26499998569488525 -0.076999999582767487
  endloop
 endfacet
 facet normal 0.70710698744184264 0.70710657493119244 0
  outer loop
   vertex -0.28549998998641968 -0.1799142062664032 7.0799144324951158e-09
   vertex -0.2344142347574234 -0.23099999129772186 7.0799144324951158e-09
   vertex -0.28549998998641968 -0.1799142062664032 -0.076999999582767487
  endloop
 endfacet
 facet normal 0.70710698744184264 0.70710657493119244 0
  outer loop
   vertex -0.28549998998641968 -0.1799142062664032 -0.076999999582767487
   vertex -0.2344142347574234 -0.23099999129772186 7.0799144324951158e-09
   vertex -0.2344142347574234 -0.23099999129772186 -0.076999999582767487
  endloop
 endfacet
 facet normal 0 1 0
  outer loop
   vertex -0.2344142347574234 -0.23099999129772186 7.0799144324951158e-09
   vertex 0.23441420495510101 -0.23099999129772186 7.0799144324951158e-09
   vertex -0.2344142347574234 -0.23099999129772186 -0.076999999582767487
  endloop
 endfacet
 facet normal 0 1 0
  outer loop
   vertex -0.2344142347574234 -0.23099999129772186 -0.076999999582767487
   vertex 0.23441420495510101 -0.23099999129772186 7.0799144324951158e-09
   vertex 0.23441420495510101 -0.23099999129772186 -0.076999999582767487
  endloop
 endfacet
 facet normal -0.70710678118654746 0.70710678118654746 0
  outer loop
   vertex 0.23441420495510101 -0.23099999129772186 7.0799144324951158e-09
   vertex 0.28549998998641968 -0.1799142062664032 7.0799144324951158e-09
   vertex 0.23441420495510101 -0.23099999129772186 -0.076999999582767487
  endloop
 endfacet
 facet normal -0.70710678118654746 0.70710678118654746 0
  outer loop
   vertex 0.23441420495510101 -0.23099999129772186 -0.076999999582767487
   vertex 0.28549998998641968 -0.1799142062664032 7.0799144324951158e-09
   vertex 0.28549998998641968 -0.1799142062664032 -0.076999999582767487
  endloop
 endfacet
 facet normal -1 -0 0
  outer loop
   vertex 0.28549998998641968 -0.1799142062664032 7.0799144324951158e-09
   vertex 0.28549998998641968 -0.10907863080501556 7.0799144324951158e-09
   vertex 0.28549998998641968 -0.1799142062664032 -0.076999999582767487
  endloop
 endfacet
 facet normal -1 0 -0
  outer loop
   vertex 0.28549998998641968 -0.1799142062664032 -0.076999999582767487
   vertex 0.28549998998641968 -0.10907863080501556 7.0799144324951158e-09
   vertex 0.28549998998641968 -0.10907863080501556 -0.076999999582767487
  endloop
 endfacet
 facet normal 0.70710678118654746 0.70710678118654746 0
  outer loop
   vertex 0.28549998998641968 -0.10907863080501556 7.0799144324951158e-09
   vertex 0.28650000691413879 -0.11007864773273468 7.0799144324951158e-09
   vertex 0.28549998998641968 -0.10907863080501556 -0.076999999582767487
  endloop
 endfacet
 facet normal 0.70710678118654746 0.70710678118654746 0
  outer loop
   vertex 0.28549998998641968 -0.10907863080501556 -0.076999999582767487
   vertex 0.28650000691413879 -0.11007864773273468 7.0799144324951158e-09
   vertex 0.28650000691413879 -0.11007864773273468 -0.076999999582767487
  endloop
 endfacet
 facet normal -1 -0 0
  outer loop
   vertex 0.28650000691413879 -0.11007864773273468 7.0799144324951158e-09
   vertex 0.28650000691413879 0.11007882654666901 7.0799144324951158e-09
   vertex 0.28650000691413879 -0.11007864773273468 -0.076999999582767487
  endloop
 endfacet
 facet normal -1 0 -0
  outer loop
   vertex 0.28650000691413879 -0.11007864773273468 -0.076999999582767487
   vertex 0.28650000691413879 0.11007882654666901 7.0799144324951158e-09
   vertex 0.28650000691413879 0.11007882654666901 -0.076999999582767487
  endloop
 endfacet
 facet normal 0.70709624441726993 -0.70711731779881659 0
  outer loop
   vertex 0.28650000691413879 0.11007882654666901 7.0799144324951158e-09
   vertex 0.28549998998641968 0.10907883942127228 7.0799144324951158e-09
   vertex 0.28650000691413879 0.11007882654666901 -0.076999999582767487
  endloop
 endfacet
 facet normal 0.70709624441726993 -0.70711731779881659 0
  outer loop
   vertex 0.28650000691413879 0.11007882654666901 -0.076999999582767487
   vertex 0.28549998998641968 0.10907883942127228 7.0799144324951158e-09
   vertex 0.28549998998641968 0.10907883942127228 -0.076999999582767487
  endloop
 endfacet
 facet normal -1 -0 0
  outer loop
   vertex 0.28549998998641968 0.10907883942127228 7.0799144324951158e-09
   vertex 0.28549998998641968 0.17991439998149872 7.0799144324951158e-09
   vertex 0.28549998998641968 0.10907883942127228 -0.076999999582767487
  endloop
 endfacet
 facet normal -1 0 -0
  outer loop
   vertex 0.28549998998641968 0.10907883942127228 -0.076999999582767487
   vertex 0.28549998998641968 0.17991439998149872 7.0799144324951158e-09
   vertex 0.28549998998641968 0.17991439998149872 -0.076999999582767487
  endloop
 endfacet
 facet normal -0.70710688431415736 -0.70710667805892247 0
  outer loop
   vertex 0.28549998998641968 0.17991439998149872 7.0799144324951158e-09
   vertex 0.23441420495510101 0.23100019991397858 7.0799144324951158e-09
   vertex 0.28549998998641968 0.17991439998149872 -0.076999999582767487
  endloop
 endfacet
 facet normal -0.70710688431415736 -0.70710667805892247 -0
  outer loop
   vertex 0.28549998998641968 0.17991439998149872 -0.076999999582767487
   vertex 0.23441420495510101 0.23100019991397858 7.0799144324951158e-09
   vertex 0.23441420495510101 0.23100019991397858 -0.076999999582767487
  endloop
 endfacet
 facet normal 0 -1 0
  outer loop
   vertex 0.23441420495510101 0.23100019991397858 7.0799144324951158e-09
   vertex -0.2344142347574234 0.23100019991397858 7.0799144324951158e-09
   vertex 0.23441420495510101 0.23100019991397858 -0.076999999582767487
  endloop
 endfacet
 facet normal 0 -1 0
  outer loop
   vertex 0.23441420495510101 0.23100019991397858 -0.076999999582767487
   vertex -0.2344142347574234 0.23100019991397858 7.0799144324951158e-09
   vertex -0.2344142347574234 0.23100019991397858 -0.076999999582767487
  endloop
 endfacet
 facet normal 0.70710709056942245 -0.70710647180353725 0
  outer loop
   vertex -0.2344142347574234 0.23100019991397858 7.0799144324951158e-09
   vertex -0.28549998998641968 0.17991439998149872 7.0799144324951158e-09
   vertex -0.2344142347574234 0.23100019991397858 -0.076999999582767487
  endloop
 endfacet
 facet normal 0.70710709056942245 -0.70710647180353725 0
  outer loop
   vertex -0.2344142347574234 0.23100019991397858 -0.076999999582767487
   vertex -0.28549998998641968 0.17991439998149872 7.0799144324951158e-09
   vertex -0.28549998998641968 0.17991439998149872 -0.076999999582767487
  endloop
 endfacet
 facet normal 1 -0 0
  outer loop
   vertex -0.28549998998641968 0.17991439998149872 7.0799144324951158e-09
   vertex -0.28549998998641968 0.10907883942127228 7.0799144324951158e-09
   vertex -0.28549998998641968 0.17991439998149872 -0.076999999582767487
  endloop
 endfacet
 facet normal 1 0 0
  outer loop
   vertex -0.28549998998641968 0.17991439998149872 -0.076999999582767487
   vertex -0.28549998998641968 0.10907883942127228 7.0799144324951158e-09
   vertex -0.28549998998641968 0.10907883942127228 -0.076999999582767487
  endloop
 endfacet
 facet normal -0.70708570780501256 -0.70712785394006661 0
  outer loop
   vertex -0.28549998998641968 0.10907883942127228 7.0799144324951158e-09
   vertex -0.28650003671646118 0.11007882654666901 7.0799144324951158e-09
   vertex -0.28549998998641968 0.10907883942127228 -0.076999999582767487
  endloop
 endfacet
 facet normal -0.70708570780501256 -0.70712785394006661 -0
  outer loop
   vertex -0.28549998998641968 0.10907883942127228 -0.076999999582767487
   vertex -0.28650003671646118 0.11007882654666901 7.0799144324951158e-09
   vertex -0.28650003671646118 0.11007882654666901 -0.076999999582767487
  endloop
 endfacet
 facet normal 1 -0 0
  outer loop
   vertex -0.28650003671646118 0.11007882654666901 7.0799144324951158e-09
   vertex -0.28650003671646118 -0.11007864773273468 7.0799144324951158e-09
   vertex -0.28650003671646118 0.11007882654666901 -0.076999999582767487
  endloop
 endfacet
 facet normal 1 0 0
  outer loop
   vertex -0.28650003671646118 0.11007882654666901 -0.076999999582767487
   vertex -0.28650003671646118 -0.11007864773273468 7.0799144324951158e-09
   vertex -0.28650003671646118 -0.11007864773273468 -0.076999999582767487
  endloop
 endfacet
 facet normal -0.70709624473128252 0.70711731748481332 0
  outer loop
   vertex -0.28650003671646118 -0.11007864773273468 7.0799144324951158e-09
   vertex -0.28549998998641968 -0.10907863080501556 7.0799144324951158e-09
   vertex -0.28650003671646118 -0.11007864773273468 -0.076999999582767487
  endloop
 endfacet
 facet normal -0.70709624473128252 0.70711731748481332 0
  outer loop
   vertex -0.28650003671646118 -0.11007864773273468 -0.076999999582767487
   vertex -0.28549998998641968 -0.10907863080501556 7.0799144324951158e-09
   vertex -0.28549998998641968 -0.10907863080501556 -0.076999999582767487
  endloop
 endfacet
 facet normal 1 -0 0
  outer loop
   vertex -0.28549998998641968 -0.10907863080501556 7.0799144324951158e-09
   vertex -0.28549998998641968 -0.1799142062664032 7.0799144324951158e-09
   vertex -0.28549998998641968 -0.10907863080501556 -0.076999999582767487
  endloop
 endfacet
 facet normal 1 0 0
  outer loop
   vertex -0.28549998998641968 -0.10907863080501556 -0.076999999582767487
   vertex -0.28549998998641968 -0.1799142062664032 7.0799144324951158e-09
   vertex -0.28549998998641968 -0.1799142062664032 -0.076999999582767487
  endloop
 endfacet
endsolid
