solid Visualization Toolkit generated SLA File
 facet normal 1 0 0
  outer loop
   vertex -4.0233136266998315e-10 0.032499998807907104 -0.0080000003799796104
   vertex -4.0233136266998315e-10 0.033889185637235641 -0.0078784618526697159
   vertex -4.0233136266998315e-10 0.032499998807907104 0.0080000003799796104
  endloop
 endfacet
 facet normal 1 0 -0
  outer loop
   vertex -4.0233136266998315e-10 0.032499998807907104 0.0080000003799796104
   vertex -4.0233136266998315e-10 0.033889185637235641 -0.0078784618526697159
   vertex -4.0233136266998315e-10 0.035236161202192307 -0.0075175403617322445
  endloop
 endfacet
 facet normal 1 0 -0
  outer loop
   vertex -4.0233136266998315e-10 0.032499998807907104 0.0080000003799796104
   vertex -4.0233136266998315e-10 0.035236161202192307 -0.0075175403617322445
   vertex -4.0233136266998315e-10 0.036499999463558197 -0.0069282026961445808
  endloop
 endfacet
 facet normal 1 0 0
  outer loop
   vertex -4.0233136266998315e-10 0.036499999463558197 0.0069282031618058681
   vertex -4.0233136266998315e-10 0.035236161202192307 0.0075175412930548191
   vertex -4.0233136266998315e-10 0.038628354668617249 -0.0051423003897070885
  endloop
 endfacet
 facet normal 1 0 0
  outer loop
   vertex -4.0233136266998315e-10 0.039428204298019409 -0.0039999997243285179
   vertex -4.0233136266998315e-10 0.040017541497945786 -0.0027361609973013401
   vertex -4.0233136266998315e-10 0.038628354668617249 0.0051423008553683758
  endloop
 endfacet
 facet normal 1 0 -0
  outer loop
   vertex -4.0233136266998315e-10 0.038628354668617249 0.0051423008553683758
   vertex -4.0233136266998315e-10 0.040017541497945786 -0.0027361609973013401
   vertex -4.0233136266998315e-10 0.04037846252322197 -0.0013891850830987096
  endloop
 endfacet
 facet normal 1 0 0
  outer loop
   vertex -4.0233136266998315e-10 0.036499999463558197 -0.0069282026961445808
   vertex -4.0233136266998315e-10 0.037642300128936768 -0.0061283549293875694
   vertex -4.0233136266998315e-10 0.032499998807907104 0.0080000003799796104
  endloop
 endfacet
 facet normal 1 0 -0
  outer loop
   vertex -4.0233136266998315e-10 0.032499998807907104 0.0080000003799796104
   vertex -4.0233136266998315e-10 0.037642300128936768 -0.0061283549293875694
   vertex -4.0233136266998315e-10 0.038628354668617249 -0.0051423003897070885
  endloop
 endfacet
 facet normal 1 0 0
  outer loop
   vertex -4.0233136266998315e-10 0.032499998807907104 0.0080000003799796104
   vertex -4.0233136266998315e-10 0.038628354668617249 -0.0051423003897070885
   vertex -4.0233136266998315e-10 0.033889185637235641 0.0078784609213471413
  endloop
 endfacet
 facet normal 1 0 0
  outer loop
   vertex -4.0233136266998315e-10 0.033889185637235641 0.0078784609213471413
   vertex -4.0233136266998315e-10 0.038628354668617249 -0.0051423003897070885
   vertex -4.0233136266998315e-10 0.035236161202192307 0.0075175412930548191
  endloop
 endfacet
 facet normal 1 -0 0
  outer loop
   vertex -4.0233136266998315e-10 -0.035236164927482605 0.0075175412930548191
   vertex -4.0233136266998315e-10 -0.036499999463558197 0.0069282031618058681
   vertex -4.0233136266998315e-10 -0.03388918936252594 -0.0078784618526697159
  endloop
 endfacet
 facet normal 1 -0 0
  outer loop
   vertex -4.0233136266998315e-10 -0.036499999463558197 0.0069282031618058681
   vertex -4.0233136266998315e-10 -0.037642300128936768 0.0061283563263714314
   vertex -4.0233136266998315e-10 -0.03388918936252594 -0.0078784618526697159
  endloop
 endfacet
 facet normal 1 0 0
  outer loop
   vertex -4.0233136266998315e-10 -0.03388918936252594 -0.0078784618526697159
   vertex -4.0233136266998315e-10 -0.037642300128936768 0.0061283563263714314
   vertex -4.0233136266998315e-10 -0.038628354668617249 0.0051423008553683758
  endloop
 endfacet
 facet normal 1 0 0
  outer loop
   vertex -4.0233136266998315e-10 -0.03388918936252594 -0.0078784618526697159
   vertex -4.0233136266998315e-10 -0.038628354668617249 0.0051423008553683758
   vertex -4.0233136266998315e-10 -0.039428204298019409 0.0040000001899898052
  endloop
 endfacet
 facet normal 1 -0 0
  outer loop
   vertex -4.0233136266998315e-10 -0.039428204298019409 0.0040000001899898052
   vertex -4.0233136266998315e-10 -0.040017545223236084 0.0027361619286239147
   vertex -4.0233136266998315e-10 -0.03388918936252594 -0.0078784618526697159
  endloop
 endfacet
 facet normal 1 0 0
  outer loop
   vertex -4.0233136266998315e-10 -0.03388918936252594 -0.0078784618526697159
   vertex -4.0233136266998315e-10 -0.040017545223236084 0.0027361619286239147
   vertex -4.0233136266998315e-10 -0.040378466248512268 0.0013891862472519279
  endloop
 endfacet
 facet normal 1 0 0
  outer loop
   vertex -4.0233136266998315e-10 -0.03388918936252594 -0.0078784618526697159
   vertex -4.0233136266998315e-10 -0.040378466248512268 0.0013891862472519279
   vertex -4.0233136266998315e-10 -0.04050000011920929 3.7997960333768788e-10
  endloop
 endfacet
 facet normal 1 -0 -0
  outer loop
   vertex -4.0233136266998315e-10 -0.04050000011920929 3.7997960333768788e-10
   vertex -4.0233136266998315e-10 -0.040378466248512268 -0.0013891846174374223
   vertex -4.0233136266998315e-10 -0.03388918936252594 -0.0078784618526697159
  endloop
 endfacet
 facet normal 1 0 0
  outer loop
   vertex -4.0233136266998315e-10 -0.03388918936252594 -0.0078784618526697159
   vertex -4.0233136266998315e-10 -0.040378466248512268 -0.0013891846174374223
   vertex -4.0233136266998315e-10 -0.040017545223236084 -0.0027361600659787655
  endloop
 endfacet
 facet normal 1 0 0
  outer loop
   vertex -4.0233136266998315e-10 -0.03388918936252594 -0.0078784618526697159
   vertex -4.0233136266998315e-10 -0.040017545223236084 -0.0027361600659787655
   vertex -4.0233136266998315e-10 -0.039428204298019409 -0.0039999992586672306
  endloop
 endfacet
 facet normal 1 0 0
  outer loop
   vertex -4.0233136266998315e-10 0.039428204298019409 -0.0039999997243285179
   vertex -4.0233136266998315e-10 0.038628354668617249 0.0051423008553683758
   vertex -4.0233136266998315e-10 0.038628354668617249 -0.0051423003897070885
  endloop
 endfacet
 facet normal 1 0 0
  outer loop
   vertex -4.0233136266998315e-10 0.038628354668617249 -0.0051423003897070885
   vertex -4.0233136266998315e-10 0.038628354668617249 0.0051423008553683758
   vertex -4.0233136266998315e-10 0.037642300128936768 0.0061283553950488567
  endloop
 endfacet
 facet normal 1 0 0
  outer loop
   vertex -4.0233136266998315e-10 0.038628354668617249 -0.0051423003897070885
   vertex -4.0233136266998315e-10 0.037642300128936768 0.0061283553950488567
   vertex -4.0233136266998315e-10 0.036499999463558197 0.0069282031618058681
  endloop
 endfacet
 facet normal 1 0 0
  outer loop
   vertex -4.0233136266998315e-10 0.032499998807907104 -0.0080000003799796104
   vertex -4.0233136266998315e-10 0.032499998807907104 0.0080000003799796104
   vertex -4.0233136266998315e-10 -0.032499998807907104 -0.0080000003799796104
  endloop
 endfacet
 facet normal 1 0 0
  outer loop
   vertex -4.0233136266998315e-10 -0.032499998807907104 -0.0080000003799796104
   vertex -4.0233136266998315e-10 0.032499998807907104 0.0080000003799796104
   vertex -4.0233136266998315e-10 -0.032499998807907104 0.0080000003799796104
  endloop
 endfacet
 facet normal 1 0 0
  outer loop
   vertex -4.0233136266998315e-10 -0.032499998807907104 -0.0080000003799796104
   vertex -4.0233136266998315e-10 -0.032499998807907104 0.0080000003799796104
   vertex -4.0233136266998315e-10 -0.03388918936252594 -0.0078784618526697159
  endloop
 endfacet
 facet normal 1 0 0
  outer loop
   vertex -4.0233136266998315e-10 -0.03388918936252594 -0.0078784618526697159
   vertex -4.0233136266998315e-10 -0.032499998807907104 0.0080000003799796104
   vertex -4.0233136266998315e-10 -0.03388918936252594 0.0078784609213471413
  endloop
 endfacet
 facet normal 1 0 0
  outer loop
   vertex -4.0233136266998315e-10 -0.03388918936252594 -0.0078784618526697159
   vertex -4.0233136266998315e-10 -0.03388918936252594 0.0078784609213471413
   vertex -4.0233136266998315e-10 -0.035236164927482605 0.0075175412930548191
  endloop
 endfacet
 facet normal 1 -0 -0
  outer loop
   vertex -4.0233136266998315e-10 -0.039428204298019409 -0.0039999992586672306
   vertex -4.0233136266998315e-10 -0.038628354668617249 -0.0051422999240458012
   vertex -4.0233136266998315e-10 -0.03388918936252594 -0.0078784618526697159
  endloop
 endfacet
 facet normal 1 0 0
  outer loop
   vertex -4.0233136266998315e-10 -0.03388918936252594 -0.0078784618526697159
   vertex -4.0233136266998315e-10 -0.038628354668617249 -0.0051422999240458012
   vertex -4.0233136266998315e-10 -0.037642300128936768 -0.0061283549293875694
  endloop
 endfacet
 facet normal 1 0 0
  outer loop
   vertex -4.0233136266998315e-10 -0.03388918936252594 -0.0078784618526697159
   vertex -4.0233136266998315e-10 -0.037642300128936768 -0.0061283549293875694
   vertex -4.0233136266998315e-10 -0.035236164927482605 -0.0075175403617322445
  endloop
 endfacet
 facet normal 1 0 0
  outer loop
   vertex -4.0233136266998315e-10 -0.035236164927482605 -0.0075175403617322445
   vertex -4.0233136266998315e-10 -0.037642300128936768 -0.0061283549293875694
   vertex -4.0233136266998315e-10 -0.036499999463558197 -0.0069282026961445808
  endloop
 endfacet
 facet normal 1 0 0
  outer loop
   vertex -4.0233136266998315e-10 0.04037846252322197 -0.0013891850830987096
   vertex -4.0233136266998315e-10 0.04050000011920929 3.7997960333768788e-10
   vertex -4.0233136266998315e-10 0.038628354668617249 0.0051423008553683758
  endloop
 endfacet
 facet normal 1 0 0
  outer loop
   vertex -4.0233136266998315e-10 0.038628354668617249 0.0051423008553683758
   vertex -4.0233136266998315e-10 0.04050000011920929 3.7997960333768788e-10
   vertex -4.0233136266998315e-10 0.04037846252322197 0.0013891862472519279
  endloop
 endfacet
 facet normal 1 0 0
  outer loop
   vertex -4.0233136266998315e-10 0.038628354668617249 0.0051423008553683758
   vertex -4.0233136266998315e-10 0.04037846252322197 0.0013891862472519279
   vertex -4.0233136266998315e-10 0.039428204298019409 0.0040000001899898052
  endloop
 endfacet
 facet normal 1 0 0
  outer loop
   vertex -4.0233136266998315e-10 0.039428204298019409 0.0040000001899898052
   vertex -4.0233136266998315e-10 0.04037846252322197 0.0013891862472519279
   vertex -4.0233136266998315e-10 0.040017541497945786 0.0027361619286239147
  endloop
 endfacet
 facet normal -1 0 0
  outer loop
   vertex -0.0010000005131587386 -0.039428204298019409 -0.0039999992586672306
   vertex -0.0010000005131587386 -0.040017545223236084 -0.0027361600659787655
   vertex -0.0010000005131587386 -0.03388918936252594 -0.0078784618526697159
  endloop
 endfacet
 facet normal -1 0 0
  outer loop
   vertex -0.0010000005131587386 -0.03388918936252594 -0.0078784618526697159
   vertex -0.0010000005131587386 -0.040017545223236084 -0.0027361600659787655
   vertex -0.0010000005131587386 -0.032499998807907104 -0.0080000003799796104
  endloop
 endfacet
 facet normal -1 0 0
  outer loop
   vertex -0.0010000005131587386 0.036499999463558197 -0.0069282026961445808
   vertex -0.0010000005131587386 0.035236161202192307 -0.0075175403617322445
   vertex -0.0010000005131587386 0.032499998807907104 0.0080000003799796104
  endloop
 endfacet
 facet normal -1 0 0
  outer loop
   vertex -0.0010000005131587386 -0.040017545223236084 -0.0027361600659787655
   vertex -0.0010000005131587386 -0.040378466248512268 -0.0013891846174374223
   vertex -0.0010000005131587386 -0.032499998807907104 -0.0080000003799796104
  endloop
 endfacet
 facet normal -1 0 0
  outer loop
   vertex -0.0010000005131587386 -0.032499998807907104 -0.0080000003799796104
   vertex -0.0010000005131587386 -0.040378466248512268 -0.0013891846174374223
   vertex -0.0010000005131587386 -0.04050000011920929 3.7997960333768788e-10
  endloop
 endfacet
 facet normal -1 0 0
  outer loop
   vertex -0.0010000005131587386 -0.032499998807907104 -0.0080000003799796104
   vertex -0.0010000005131587386 -0.04050000011920929 3.7997960333768788e-10
   vertex -0.0010000005131587386 -0.040378466248512268 0.0013891862472519279
  endloop
 endfacet
 facet normal -1 0 -0
  outer loop
   vertex -0.0010000005131587386 -0.040378466248512268 0.0013891862472519279
   vertex -0.0010000005131587386 -0.040017545223236084 0.0027361619286239147
   vertex -0.0010000005131587386 -0.032499998807907104 -0.0080000003799796104
  endloop
 endfacet
 facet normal -1 0 0
  outer loop
   vertex -0.0010000005131587386 -0.032499998807907104 -0.0080000003799796104
   vertex -0.0010000005131587386 -0.040017545223236084 0.0027361619286239147
   vertex -0.0010000005131587386 -0.039428204298019409 0.0040000001899898052
  endloop
 endfacet
 facet normal -1 0 0
  outer loop
   vertex -0.0010000005131587386 -0.032499998807907104 -0.0080000003799796104
   vertex -0.0010000005131587386 -0.039428204298019409 0.0040000001899898052
   vertex -0.0010000005131587386 -0.038628354668617249 0.0051423008553683758
  endloop
 endfacet
 facet normal -1 0 -0
  outer loop
   vertex -0.0010000005131587386 -0.038628354668617249 0.0051423008553683758
   vertex -0.0010000005131587386 -0.037642300128936768 0.0061283563263714314
   vertex -0.0010000005131587386 -0.032499998807907104 -0.0080000003799796104
  endloop
 endfacet
 facet normal -1 0 0
  outer loop
   vertex -0.0010000005131587386 -0.032499998807907104 -0.0080000003799796104
   vertex -0.0010000005131587386 -0.037642300128936768 0.0061283563263714314
   vertex -0.0010000005131587386 -0.036499999463558197 0.0069282031618058681
  endloop
 endfacet
 facet normal -1 0 0
  outer loop
   vertex -0.0010000005131587386 -0.032499998807907104 -0.0080000003799796104
   vertex -0.0010000005131587386 -0.036499999463558197 0.0069282031618058681
   vertex -0.0010000005131587386 -0.035236164927482605 0.0075175412930548191
  endloop
 endfacet
 facet normal -1 0 0
  outer loop
   vertex -0.0010000005131587386 -0.035236164927482605 -0.0075175403617322445
   vertex -0.0010000005131587386 -0.036499999463558197 -0.0069282026961445808
   vertex -0.0010000005131587386 -0.037642300128936768 -0.0061283549293875694
  endloop
 endfacet
 facet normal -1 0 0
  outer loop
   vertex -0.0010000005131587386 0.035236161202192307 -0.0075175403617322445
   vertex -0.0010000005131587386 0.033889185637235641 -0.0078784618526697159
   vertex -0.0010000005131587386 0.032499998807907104 0.0080000003799796104
  endloop
 endfacet
 facet normal -1 -0 0
  outer loop
   vertex -0.0010000005131587386 0.032499998807907104 0.0080000003799796104
   vertex -0.0010000005131587386 0.033889185637235641 -0.0078784618526697159
   vertex -0.0010000005131587386 0.032499998807907104 -0.0080000003799796104
  endloop
 endfacet
 facet normal -1 0 0
  outer loop
   vertex -0.0010000005131587386 0.032499998807907104 0.0080000003799796104
   vertex -0.0010000005131587386 0.032499998807907104 -0.0080000003799796104
   vertex -0.0010000005131587386 -0.032499998807907104 0.0080000003799796104
  endloop
 endfacet
 facet normal -1 0 0
  outer loop
   vertex -0.0010000005131587386 -0.032499998807907104 0.0080000003799796104
   vertex -0.0010000005131587386 0.032499998807907104 -0.0080000003799796104
   vertex -0.0010000005131587386 -0.032499998807907104 -0.0080000003799796104
  endloop
 endfacet
 facet normal -1 0 0
  outer loop
   vertex -0.0010000005131587386 -0.032499998807907104 0.0080000003799796104
   vertex -0.0010000005131587386 -0.032499998807907104 -0.0080000003799796104
   vertex -0.0010000005131587386 -0.03388918936252594 0.0078784609213471413
  endloop
 endfacet
 facet normal -1 0 0
  outer loop
   vertex -0.0010000005131587386 -0.03388918936252594 0.0078784609213471413
   vertex -0.0010000005131587386 -0.032499998807907104 -0.0080000003799796104
   vertex -0.0010000005131587386 -0.035236164927482605 0.0075175412930548191
  endloop
 endfacet
 facet normal -1 -0 -0
  outer loop
   vertex -0.0010000005131587386 0.033889185637235641 0.0078784609213471413
   vertex -0.0010000005131587386 0.035236161202192307 0.0075175412930548191
   vertex -0.0010000005131587386 0.038628354668617249 -0.0051423003897070885
  endloop
 endfacet
 facet normal -1 0 0
  outer loop
   vertex -0.0010000005131587386 0.038628354668617249 -0.0051423003897070885
   vertex -0.0010000005131587386 0.035236161202192307 0.0075175412930548191
   vertex -0.0010000005131587386 0.036499999463558197 0.0069282031618058681
  endloop
 endfacet
 facet normal -1 0 0
  outer loop
   vertex -0.0010000005131587386 0.033889185637235641 0.0078784609213471413
   vertex -0.0010000005131587386 0.038628354668617249 -0.0051423003897070885
   vertex -0.0010000005131587386 0.032499998807907104 0.0080000003799796104
  endloop
 endfacet
 facet normal -1 -0 0
  outer loop
   vertex -0.0010000005131587386 0.032499998807907104 0.0080000003799796104
   vertex -0.0010000005131587386 0.038628354668617249 -0.0051423003897070885
   vertex -0.0010000005131587386 0.037642300128936768 -0.0061283549293875694
  endloop
 endfacet
 facet normal -1 -0 0
  outer loop
   vertex -0.0010000005131587386 0.032499998807907104 0.0080000003799796104
   vertex -0.0010000005131587386 0.037642300128936768 -0.0061283549293875694
   vertex -0.0010000005131587386 0.036499999463558197 -0.0069282026961445808
  endloop
 endfacet
 facet normal -1 0 0
  outer loop
   vertex -0.0010000005131587386 -0.035236164927482605 -0.0075175403617322445
   vertex -0.0010000005131587386 -0.037642300128936768 -0.0061283549293875694
   vertex -0.0010000005131587386 -0.03388918936252594 -0.0078784618526697159
  endloop
 endfacet
 facet normal -1 0 0
  outer loop
   vertex -0.0010000005131587386 -0.03388918936252594 -0.0078784618526697159
   vertex -0.0010000005131587386 -0.037642300128936768 -0.0061283549293875694
   vertex -0.0010000005131587386 -0.038628354668617249 -0.0051422999240458012
  endloop
 endfacet
 facet normal -1 0 0
  outer loop
   vertex -0.0010000005131587386 -0.03388918936252594 -0.0078784618526697159
   vertex -0.0010000005131587386 -0.038628354668617249 -0.0051422999240458012
   vertex -0.0010000005131587386 -0.039428204298019409 -0.0039999992586672306
  endloop
 endfacet
 facet normal -1 -0 -0
  outer loop
   vertex -0.0010000005131587386 0.036499999463558197 0.0069282031618058681
   vertex -0.0010000005131587386 0.037642300128936768 0.0061283553950488567
   vertex -0.0010000005131587386 0.038628354668617249 -0.0051423003897070885
  endloop
 endfacet
 facet normal -1 0 0
  outer loop
   vertex -0.0010000005131587386 0.038628354668617249 -0.0051423003897070885
   vertex -0.0010000005131587386 0.037642300128936768 0.0061283553950488567
   vertex -0.0010000005131587386 0.038628354668617249 0.0051423008553683758
  endloop
 endfacet
 facet normal -1 0 0
  outer loop
   vertex -0.0010000005131587386 0.038628354668617249 -0.0051423003897070885
   vertex -0.0010000005131587386 0.038628354668617249 0.0051423008553683758
   vertex -0.0010000005131587386 0.039428204298019409 0.0040000001899898052
  endloop
 endfacet
 facet normal -1 -0 0
  outer loop
   vertex -0.0010000005131587386 0.039428204298019409 0.0040000001899898052
   vertex -0.0010000005131587386 0.040017541497945786 0.0027361619286239147
   vertex -0.0010000005131587386 0.038628354668617249 -0.0051423003897070885
  endloop
 endfacet
 facet normal -1 0 -0
  outer loop
   vertex -0.0010000005131587386 0.038628354668617249 -0.0051423003897070885
   vertex -0.0010000005131587386 0.040017541497945786 0.0027361619286239147
   vertex -0.0010000005131587386 0.04037846252322197 0.0013891862472519279
  endloop
 endfacet
 facet normal -1 0 -0
  outer loop
   vertex -0.0010000005131587386 0.038628354668617249 -0.0051423003897070885
   vertex -0.0010000005131587386 0.04037846252322197 0.0013891862472519279
   vertex -0.0010000005131587386 0.04050000011920929 3.7997960333768788e-10
  endloop
 endfacet
 facet normal -1 -0 0
  outer loop
   vertex -0.0010000005131587386 0.04050000011920929 3.7997960333768788e-10
   vertex -0.0010000005131587386 0.04037846252322197 -0.0013891850830987096
   vertex -0.0010000005131587386 0.038628354668617249 -0.0051423003897070885
  endloop
 endfacet
 facet normal -1 0 0
  outer loop
   vertex -0.0010000005131587386 0.038628354668617249 -0.0051423003897070885
   vertex -0.0010000005131587386 0.04037846252322197 -0.0013891850830987096
   vertex -0.0010000005131587386 0.040017541497945786 -0.0027361609973013401
  endloop
 endfacet
 facet normal -1 0 0
  outer loop
   vertex -0.0010000005131587386 0.038628354668617249 -0.0051423003897070885
   vertex -0.0010000005131587386 0.040017541497945786 -0.0027361609973013401
   vertex -0.0010000005131587386 0.039428204298019409 -0.0039999997243285179
  endloop
 endfacet
 facet normal 0 0.087156047497251005 -0.99619467142956397
  outer loop
   vertex -4.0233136266998315e-10 0.032499998807907104 -0.0080000003799796104
   vertex -0.0010000005131587386 0.032499998807907104 -0.0080000003799796104
   vertex -0.0010000005131587386 0.033889185637235641 -0.0078784618526697159
  endloop
 endfacet
 facet normal 0 0.087156047497251005 -0.99619467142956397
  outer loop
   vertex -4.0233136266998315e-10 0.032499998807907104 -0.0080000003799796104
   vertex -0.0010000005131587386 0.033889185637235641 -0.0078784618526697159
   vertex -4.0233136266998315e-10 0.033889185637235641 -0.0078784618526697159
  endloop
 endfacet
 facet normal 0 0.25881936363529329 -0.96592574093841288
  outer loop
   vertex -4.0233136266998315e-10 0.033889185637235641 -0.0078784618526697159
   vertex -0.0010000005131587386 0.033889185637235641 -0.0078784618526697159
   vertex -0.0010000005131587386 0.035236161202192307 -0.0075175403617322445
  endloop
 endfacet
 facet normal 0 0.25881936363529329 -0.96592574093841288
  outer loop
   vertex -4.0233136266998315e-10 0.033889185637235641 -0.0078784618526697159
   vertex -0.0010000005131587386 0.035236161202192307 -0.0075175403617322445
   vertex -4.0233136266998315e-10 0.035236161202192307 -0.0075175403617322445
  endloop
 endfacet
 facet normal 0 0.42261838287035336 -0.90630773055295488
  outer loop
   vertex -4.0233136266998315e-10 0.035236161202192307 -0.0075175403617322445
   vertex -0.0010000005131587386 0.035236161202192307 -0.0075175403617322445
   vertex -0.0010000005131587386 0.036499999463558197 -0.0069282026961445808
  endloop
 endfacet
 facet normal 0 0.42261838287035336 -0.90630773055295488
  outer loop
   vertex -4.0233136266998315e-10 0.035236161202192307 -0.0075175403617322445
   vertex -0.0010000005131587386 0.036499999463558197 -0.0069282026961445808
   vertex -4.0233136266998315e-10 0.036499999463558197 -0.0069282026961445808
  endloop
 endfacet
 facet normal 0 0.57357654700314153 -0.81915196680954927
  outer loop
   vertex -4.0233136266998315e-10 0.036499999463558197 -0.0069282026961445808
   vertex -0.0010000005131587386 0.036499999463558197 -0.0069282026961445808
   vertex -0.0010000005131587386 0.037642300128936768 -0.0061283549293875694
  endloop
 endfacet
 facet normal 0 0.57357654700314153 -0.81915196680954927
  outer loop
   vertex -4.0233136266998315e-10 0.036499999463558197 -0.0069282026961445808
   vertex -0.0010000005131587386 0.037642300128936768 -0.0061283549293875694
   vertex -4.0233136266998315e-10 0.037642300128936768 -0.0061283549293875694
  endloop
 endfacet
 facet normal 0 0.70710678118654746 -0.70710678118654746
  outer loop
   vertex -4.0233136266998315e-10 0.037642300128936768 -0.0061283549293875694
   vertex -0.0010000005131587386 0.037642300128936768 -0.0061283549293875694
   vertex -0.0010000005131587386 0.038628354668617249 -0.0051423003897070885
  endloop
 endfacet
 facet normal 0 0.70710678118654746 -0.70710678118654746
  outer loop
   vertex -4.0233136266998315e-10 0.037642300128936768 -0.0061283549293875694
   vertex -0.0010000005131587386 0.038628354668617249 -0.0051423003897070885
   vertex -4.0233136266998315e-10 0.038628354668617249 -0.0051423003897070885
  endloop
 endfacet
 facet normal 0 0.81915133922817718 -0.57357744328092608
  outer loop
   vertex -4.0233136266998315e-10 0.038628354668617249 -0.0051423003897070885
   vertex -0.0010000005131587386 0.038628354668617249 -0.0051423003897070885
   vertex -0.0010000005131587386 0.039428204298019409 -0.0039999997243285179
  endloop
 endfacet
 facet normal 0 0.81915133922817718 -0.57357744328092608
  outer loop
   vertex -4.0233136266998315e-10 0.038628354668617249 -0.0051423003897070885
   vertex -0.0010000005131587386 0.039428204298019409 -0.0039999997243285179
   vertex -4.0233136266998315e-10 0.039428204298019409 -0.0039999997243285179
  endloop
 endfacet
 facet normal 0 0.90630791809699274 -0.42261798068077355
  outer loop
   vertex -4.0233136266998315e-10 0.039428204298019409 -0.0039999997243285179
   vertex -0.0010000005131587386 0.039428204298019409 -0.0039999997243285179
   vertex -0.0010000005131587386 0.040017541497945786 -0.0027361609973013401
  endloop
 endfacet
 facet normal 0 0.90630791809699274 -0.42261798068077355
  outer loop
   vertex -4.0233136266998315e-10 0.039428204298019409 -0.0039999997243285179
   vertex -0.0010000005131587386 0.040017541497945786 -0.0027361609973013401
   vertex -4.0233136266998315e-10 0.040017541497945786 -0.0027361609973013401
  endloop
 endfacet
 facet normal 0 0.96592584119746716 -0.25881898946361248
  outer loop
   vertex -4.0233136266998315e-10 0.040017541497945786 -0.0027361609973013401
   vertex -0.0010000005131587386 0.040017541497945786 -0.0027361609973013401
   vertex -0.0010000005131587386 0.04037846252322197 -0.0013891850830987096
  endloop
 endfacet
 facet normal 0 0.96592584119746716 -0.25881898946361248
  outer loop
   vertex -4.0233136266998315e-10 0.040017541497945786 -0.0027361609973013401
   vertex -0.0010000005131587386 0.04037846252322197 -0.0013891850830987096
   vertex -4.0233136266998315e-10 0.04037846252322197 -0.0013891850830987096
  endloop
 endfacet
 facet normal 0 0.99619472197342385 -0.087155469778394237
  outer loop
   vertex -4.0233136266998315e-10 0.04037846252322197 -0.0013891850830987096
   vertex -0.0010000005131587386 0.04037846252322197 -0.0013891850830987096
   vertex -0.0010000005131587386 0.04050000011920929 3.7997960333768788e-10
  endloop
 endfacet
 facet normal 0 0.99619472197342385 -0.087155469778394237
  outer loop
   vertex -4.0233136266998315e-10 0.04037846252322197 -0.0013891850830987096
   vertex -0.0010000005131587386 0.04050000011920929 3.7997960333768788e-10
   vertex -4.0233136266998315e-10 0.04050000011920929 3.7997960333768788e-10
  endloop
 endfacet
 facet normal -0 0.99619472417514854 0.087155444612484145
  outer loop
   vertex -4.0233136266998315e-10 0.04050000011920929 3.7997960333768788e-10
   vertex -0.0010000005131587386 0.04050000011920929 3.7997960333768788e-10
   vertex -0.0010000005131587386 0.04037846252322197 0.0013891862472519279
  endloop
 endfacet
 facet normal -0 0.99619472417514854 0.087155444612484145
  outer loop
   vertex -4.0233136266998315e-10 0.04050000011920929 3.7997960333768788e-10
   vertex -0.0010000005131587386 0.04037846252322197 0.0013891862472519279
   vertex -4.0233136266998315e-10 0.04037846252322197 0.0013891862472519279
  endloop
 endfacet
 facet normal -0 0.96592583001296961 0.25881903120473104
  outer loop
   vertex -4.0233136266998315e-10 0.04037846252322197 0.0013891862472519279
   vertex -0.0010000005131587386 0.04037846252322197 0.0013891862472519279
   vertex -0.0010000005131587386 0.040017541497945786 0.0027361619286239147
  endloop
 endfacet
 facet normal -0 0.96592583001296961 0.25881903120473104
  outer loop
   vertex -4.0233136266998315e-10 0.04037846252322197 0.0013891862472519279
   vertex -0.0010000005131587386 0.040017541497945786 0.0027361619286239147
   vertex -4.0233136266998315e-10 0.040017541497945786 0.0027361619286239147
  endloop
 endfacet
 facet normal -0 0.90630785845524142 0.42261810858300214
  outer loop
   vertex -4.0233136266998315e-10 0.040017541497945786 0.0027361619286239147
   vertex -0.0010000005131587386 0.040017541497945786 0.0027361619286239147
   vertex -0.0010000005131587386 0.039428204298019409 0.0040000001899898052
  endloop
 endfacet
 facet normal -0 0.90630785845524142 0.42261810858300214
  outer loop
   vertex -4.0233136266998315e-10 0.040017541497945786 0.0027361619286239147
   vertex -0.0010000005131587386 0.039428204298019409 0.0040000001899898052
   vertex -4.0233136266998315e-10 0.039428204298019409 0.0040000001899898052
  endloop
 endfacet
 facet normal -0 0.81915133922817718 0.57357744328092608
  outer loop
   vertex -4.0233136266998315e-10 0.039428204298019409 0.0040000001899898052
   vertex -0.0010000005131587386 0.039428204298019409 0.0040000001899898052
   vertex -0.0010000005131587386 0.038628354668617249 0.0051423008553683758
  endloop
 endfacet
 facet normal -0 0.81915133922817718 0.57357744328092608
  outer loop
   vertex -4.0233136266998315e-10 0.039428204298019409 0.0040000001899898052
   vertex -0.0010000005131587386 0.038628354668617249 0.0051423008553683758
   vertex -4.0233136266998315e-10 0.038628354668617249 0.0051423008553683758
  endloop
 endfacet
 facet normal -0 0.70710678118654746 0.70710678118654746
  outer loop
   vertex -4.0233136266998315e-10 0.038628354668617249 0.0051423008553683758
   vertex -0.0010000005131587386 0.038628354668617249 0.0051423008553683758
   vertex -0.0010000005131587386 0.037642300128936768 0.0061283553950488567
  endloop
 endfacet
 facet normal -0 0.70710678118654746 0.70710678118654746
  outer loop
   vertex -4.0233136266998315e-10 0.038628354668617249 0.0051423008553683758
   vertex -0.0010000005131587386 0.037642300128936768 0.0061283553950488567
   vertex -4.0233136266998315e-10 0.037642300128936768 0.0061283553950488567
  endloop
 endfacet
 facet normal -0 0.57357654700314153 0.81915196680954927
  outer loop
   vertex -4.0233136266998315e-10 0.037642300128936768 0.0061283553950488567
   vertex -0.0010000005131587386 0.037642300128936768 0.0061283553950488567
   vertex -0.0010000005131587386 0.036499999463558197 0.0069282031618058681
  endloop
 endfacet
 facet normal -0 0.57357654700314153 0.81915196680954927
  outer loop
   vertex -4.0233136266998315e-10 0.037642300128936768 0.0061283553950488567
   vertex -0.0010000005131587386 0.036499999463558197 0.0069282031618058681
   vertex -4.0233136266998315e-10 0.036499999463558197 0.0069282031618058681
  endloop
 endfacet
 facet normal -0 0.42261865715758851 0.90630760265062138
  outer loop
   vertex -4.0233136266998315e-10 0.036499999463558197 0.0069282031618058681
   vertex -0.0010000005131587386 0.036499999463558197 0.0069282031618058681
   vertex -0.0010000005131587386 0.035236161202192307 0.0075175412930548191
  endloop
 endfacet
 facet normal -0 0.42261865715758851 0.90630760265062138
  outer loop
   vertex -4.0233136266998315e-10 0.036499999463558197 0.0069282031618058681
   vertex -0.0010000005131587386 0.035236161202192307 0.0075175412930548191
   vertex -4.0233136266998315e-10 0.035236161202192307 0.0075175412930548191
  endloop
 endfacet
 facet normal -0 0.25881811739481625 0.9659260748671209
  outer loop
   vertex -4.0233136266998315e-10 0.035236161202192307 0.0075175412930548191
   vertex -0.0010000005131587386 0.035236161202192307 0.0075175412930548191
   vertex -0.0010000005131587386 0.033889185637235641 0.0078784609213471413
  endloop
 endfacet
 facet normal -0 0.25881811739481625 0.9659260748671209
  outer loop
   vertex -4.0233136266998315e-10 0.035236161202192307 0.0075175412930548191
   vertex -0.0010000005131587386 0.033889185637235641 0.0078784609213471413
   vertex -4.0233136266998315e-10 0.033889185637235641 0.0078784609213471413
  endloop
 endfacet
 facet normal -0 0.087156710281346292 0.99619461344304283
  outer loop
   vertex -4.0233136266998315e-10 0.033889185637235641 0.0078784609213471413
   vertex -0.0010000005131587386 0.033889185637235641 0.0078784609213471413
   vertex -0.0010000005131587386 0.032499998807907104 0.0080000003799796104
  endloop
 endfacet
 facet normal -0 0.087156710281346292 0.99619461344304283
  outer loop
   vertex -4.0233136266998315e-10 0.033889185637235641 0.0078784609213471413
   vertex -0.0010000005131587386 0.032499998807907104 0.0080000003799796104
   vertex -4.0233136266998315e-10 0.032499998807907104 0.0080000003799796104
  endloop
 endfacet
 facet normal 0 0 -1
  outer loop
   vertex -0.0010000005131587386 -0.032499998807907104 -0.0080000003799796104
   vertex -0.0010000005131587386 0.032499998807907104 -0.0080000003799796104
   vertex -4.0233136266998315e-10 -0.032499998807907104 -0.0080000003799796104
  endloop
 endfacet
 facet normal 0 0 -1
  outer loop
   vertex -4.0233136266998315e-10 -0.032499998807907104 -0.0080000003799796104
   vertex -0.0010000005131587386 0.032499998807907104 -0.0080000003799796104
   vertex -4.0233136266998315e-10 0.032499998807907104 -0.0080000003799796104
  endloop
 endfacet
 facet normal 0 -0.087156478335008072 0.99619463373591777
  outer loop
   vertex -4.0233136266998315e-10 -0.032499998807907104 0.0080000003799796104
   vertex -0.0010000005131587386 -0.032499998807907104 0.0080000003799796104
   vertex -0.0010000005131587386 -0.03388918936252594 0.0078784609213471413
  endloop
 endfacet
 facet normal 0 -0.087156478335008072 0.99619463373591777
  outer loop
   vertex -4.0233136266998315e-10 -0.032499998807907104 0.0080000003799796104
   vertex -0.0010000005131587386 -0.03388918936252594 0.0078784609213471413
   vertex -4.0233136266998315e-10 -0.03388918936252594 0.0078784609213471413
  endloop
 endfacet
 facet normal 0 -0.25881811739481625 0.9659260748671209
  outer loop
   vertex -4.0233136266998315e-10 -0.03388918936252594 0.0078784609213471413
   vertex -0.0010000005131587386 -0.03388918936252594 0.0078784609213471413
   vertex -0.0010000005131587386 -0.035236164927482605 0.0075175412930548191
  endloop
 endfacet
 facet normal 0 -0.25881811739481625 0.9659260748671209
  outer loop
   vertex -4.0233136266998315e-10 -0.03388918936252594 0.0078784609213471413
   vertex -0.0010000005131587386 -0.035236164927482605 0.0075175412930548191
   vertex -4.0233136266998315e-10 -0.035236164927482605 0.0075175412930548191
  endloop
 endfacet
 facet normal 0 -0.42261968037865155 0.90630712551355697
  outer loop
   vertex -4.0233136266998315e-10 -0.035236164927482605 0.0075175412930548191
   vertex -0.0010000005131587386 -0.035236164927482605 0.0075175412930548191
   vertex -0.0010000005131587386 -0.036499999463558197 0.0069282031618058681
  endloop
 endfacet
 facet normal 0 -0.42261968037865155 0.90630712551355697
  outer loop
   vertex -4.0233136266998315e-10 -0.035236164927482605 0.0075175412930548191
   vertex -0.0010000005131587386 -0.036499999463558197 0.0069282031618058681
   vertex -4.0233136266998315e-10 -0.036499999463558197 0.0069282031618058681
  endloop
 endfacet
 facet normal 0 -0.57357609886347682 0.81915228060022827
  outer loop
   vertex -4.0233136266998315e-10 -0.036499999463558197 0.0069282031618058681
   vertex -0.0010000005131587386 -0.036499999463558197 0.0069282031618058681
   vertex -0.0010000005131587386 -0.037642300128936768 0.0061283563263714314
  endloop
 endfacet
 facet normal 0 -0.57357609886347682 0.81915228060022827
  outer loop
   vertex -4.0233136266998315e-10 -0.036499999463558197 0.0069282031618058681
   vertex -0.0010000005131587386 -0.037642300128936768 0.0061283563263714314
   vertex -4.0233136266998315e-10 -0.037642300128936768 0.0061283563263714314
  endloop
 endfacet
 facet normal 0 -0.70710711511535917 0.7071064472575781
  outer loop
   vertex -4.0233136266998315e-10 -0.037642300128936768 0.0061283563263714314
   vertex -0.0010000005131587386 -0.037642300128936768 0.0061283563263714314
   vertex -0.0010000005131587386 -0.038628354668617249 0.0051423008553683758
  endloop
 endfacet
 facet normal 0 -0.70710711511535917 0.7071064472575781
  outer loop
   vertex -4.0233136266998315e-10 -0.037642300128936768 0.0061283563263714314
   vertex -0.0010000005131587386 -0.038628354668617249 0.0051423008553683758
   vertex -4.0233136266998315e-10 -0.038628354668617249 0.0051423008553683758
  endloop
 endfacet
 facet normal 0 -0.81915133922817718 0.57357744328092608
  outer loop
   vertex -4.0233136266998315e-10 -0.038628354668617249 0.0051423008553683758
   vertex -0.0010000005131587386 -0.038628354668617249 0.0051423008553683758
   vertex -0.0010000005131587386 -0.039428204298019409 0.0040000001899898052
  endloop
 endfacet
 facet normal 0 -0.81915133922817718 0.57357744328092608
  outer loop
   vertex -4.0233136266998315e-10 -0.038628354668617249 0.0051423008553683758
   vertex -0.0010000005131587386 -0.039428204298019409 0.0040000001899898052
   vertex -4.0233136266998315e-10 -0.039428204298019409 0.0040000001899898052
  endloop
 endfacet
 facet normal 0 -0.90630683523563571 0.42262030287856051
  outer loop
   vertex -4.0233136266998315e-10 -0.039428204298019409 0.0040000001899898052
   vertex -0.0010000005131587386 -0.039428204298019409 0.0040000001899898052
   vertex -0.0010000005131587386 -0.040017545223236084 0.0027361619286239147
  endloop
 endfacet
 facet normal 0 -0.90630683523563571 0.42262030287856051
  outer loop
   vertex -4.0233136266998315e-10 -0.039428204298019409 0.0040000001899898052
   vertex -0.0010000005131587386 -0.040017545223236084 0.0027361619286239147
   vertex -4.0233136266998315e-10 -0.040017545223236084 0.0027361619286239147
  endloop
 endfacet
 facet normal 0 -0.96592583001296961 0.25881903120473104
  outer loop
   vertex -4.0233136266998315e-10 -0.040017545223236084 0.0027361619286239147
   vertex -0.0010000005131587386 -0.040017545223236084 0.0027361619286239147
   vertex -0.0010000005131587386 -0.040378466248512268 0.0013891862472519279
  endloop
 endfacet
 facet normal 0 -0.96592583001296961 0.25881903120473104
  outer loop
   vertex -4.0233136266998315e-10 -0.040017545223236084 0.0027361619286239147
   vertex -0.0010000005131587386 -0.040378466248512268 0.0013891862472519279
   vertex -4.0233136266998315e-10 -0.040378466248512268 0.0013891862472519279
  endloop
 endfacet
 facet normal 0 -0.99619495611547171 0.087152793472688631
  outer loop
   vertex -4.0233136266998315e-10 -0.040378466248512268 0.0013891862472519279
   vertex -0.0010000005131587386 -0.040378466248512268 0.0013891862472519279
   vertex -0.0010000005131587386 -0.04050000011920929 3.7997960333768788e-10
  endloop
 endfacet
 facet normal 0 -0.99619495611547171 0.087152793472688631
  outer loop
   vertex -4.0233136266998315e-10 -0.040378466248512268 0.0013891862472519279
   vertex -0.0010000005131587386 -0.04050000011920929 3.7997960333768788e-10
   vertex -4.0233136266998315e-10 -0.04050000011920929 3.7997960333768788e-10
  endloop
 endfacet
 facet normal 0 -0.99619495137748304 -0.087152847629977437
  outer loop
   vertex -4.0233136266998315e-10 -0.04050000011920929 3.7997960333768788e-10
   vertex -0.0010000005131587386 -0.04050000011920929 3.7997960333768788e-10
   vertex -0.0010000005131587386 -0.040378466248512268 -0.0013891846174374223
  endloop
 endfacet
 facet normal 0 -0.99619495137748304 -0.087152847629977437
  outer loop
   vertex -4.0233136266998315e-10 -0.04050000011920929 3.7997960333768788e-10
   vertex -0.0010000005131587386 -0.040378466248512268 -0.0013891846174374223
   vertex -4.0233136266998315e-10 -0.040378466248512268 -0.0013891846174374223
  endloop
 endfacet
 facet normal 0 -0.96592581882846684 -0.25881907294586259
  outer loop
   vertex -4.0233136266998315e-10 -0.040378466248512268 -0.0013891846174374223
   vertex -0.0010000005131587386 -0.040378466248512268 -0.0013891846174374223
   vertex -0.0010000005131587386 -0.040017545223236084 -0.0027361600659787655
  endloop
 endfacet
 facet normal 0 -0.96592581882846684 -0.25881907294586259
  outer loop
   vertex -4.0233136266998315e-10 -0.040378466248512268 -0.0013891846174374223
   vertex -0.0010000005131587386 -0.040017545223236084 -0.0027361600659787655
   vertex -4.0233136266998315e-10 -0.040017545223236084 -0.0027361600659787655
  endloop
 endfacet
 facet normal 0 -0.90630695452018828 -0.42262004707342188
  outer loop
   vertex -4.0233136266998315e-10 -0.040017545223236084 -0.0027361600659787655
   vertex -0.0010000005131587386 -0.040017545223236084 -0.0027361600659787655
   vertex -0.0010000005131587386 -0.039428204298019409 -0.0039999992586672306
  endloop
 endfacet
 facet normal 0 -0.90630695452018828 -0.42262004707342188
  outer loop
   vertex -4.0233136266998315e-10 -0.040017545223236084 -0.0027361600659787655
   vertex -0.0010000005131587386 -0.039428204298019409 -0.0039999992586672306
   vertex -4.0233136266998315e-10 -0.039428204298019409 -0.0039999992586672306
  endloop
 endfacet
 facet normal 0 -0.81915133922817718 -0.57357744328092608
  outer loop
   vertex -4.0233136266998315e-10 -0.039428204298019409 -0.0039999992586672306
   vertex -0.0010000005131587386 -0.039428204298019409 -0.0039999992586672306
   vertex -0.0010000005131587386 -0.038628354668617249 -0.0051422999240458012
  endloop
 endfacet
 facet normal 0 -0.81915133922817718 -0.57357744328092608
  outer loop
   vertex -4.0233136266998315e-10 -0.039428204298019409 -0.0039999992586672306
   vertex -0.0010000005131587386 -0.038628354668617249 -0.0051422999240458012
   vertex -4.0233136266998315e-10 -0.038628354668617249 -0.0051422999240458012
  endloop
 endfacet
 facet normal 0 -0.7071069481510126 -0.70710661422204313
  outer loop
   vertex -4.0233136266998315e-10 -0.038628354668617249 -0.0051422999240458012
   vertex -0.0010000005131587386 -0.038628354668617249 -0.0051422999240458012
   vertex -0.0010000005131587386 -0.037642300128936768 -0.0061283549293875694
  endloop
 endfacet
 facet normal 0 -0.7071069481510126 -0.70710661422204313
  outer loop
   vertex -4.0233136266998315e-10 -0.038628354668617249 -0.0051422999240458012
   vertex -0.0010000005131587386 -0.037642300128936768 -0.0061283549293875694
   vertex -4.0233136266998315e-10 -0.037642300128936768 -0.0061283549293875694
  endloop
 endfacet
 facet normal 0 -0.57357654700314153 -0.81915196680954927
  outer loop
   vertex -4.0233136266998315e-10 -0.037642300128936768 -0.0061283549293875694
   vertex -0.0010000005131587386 -0.037642300128936768 -0.0061283549293875694
   vertex -0.0010000005131587386 -0.036499999463558197 -0.0069282026961445808
  endloop
 endfacet
 facet normal 0 -0.57357654700314153 -0.81915196680954927
  outer loop
   vertex -4.0233136266998315e-10 -0.037642300128936768 -0.0061283549293875694
   vertex -0.0010000005131587386 -0.036499999463558197 -0.0069282026961445808
   vertex -4.0233136266998315e-10 -0.036499999463558197 -0.0069282026961445808
  endloop
 endfacet
 facet normal 0 -0.42261940609104115 -0.90630725341644236
  outer loop
   vertex -4.0233136266998315e-10 -0.036499999463558197 -0.0069282026961445808
   vertex -0.0010000005131587386 -0.036499999463558197 -0.0069282026961445808
   vertex -0.0010000005131587386 -0.035236164927482605 -0.0075175403617322445
  endloop
 endfacet
 facet normal 0 -0.42261940609104115 -0.90630725341644236
  outer loop
   vertex -4.0233136266998315e-10 -0.036499999463558197 -0.0069282026961445808
   vertex -0.0010000005131587386 -0.035236164927482605 -0.0075175403617322445
   vertex -4.0233136266998315e-10 -0.035236164927482605 -0.0075175403617322445
  endloop
 endfacet
 facet normal 0 -0.25881936363529329 -0.96592574093841288
  outer loop
   vertex -4.0233136266998315e-10 -0.035236164927482605 -0.0075175403617322445
   vertex -0.0010000005131587386 -0.035236164927482605 -0.0075175403617322445
   vertex -0.0010000005131587386 -0.03388918936252594 -0.0078784618526697159
  endloop
 endfacet
 facet normal 0 -0.25881936363529329 -0.96592574093841288
  outer loop
   vertex -4.0233136266998315e-10 -0.035236164927482605 -0.0075175403617322445
   vertex -0.0010000005131587386 -0.03388918936252594 -0.0078784618526697159
   vertex -4.0233136266998315e-10 -0.03388918936252594 -0.0078784618526697159
  endloop
 endfacet
 facet normal 0 -0.087155815552649632 -0.99619469172213138
  outer loop
   vertex -4.0233136266998315e-10 -0.03388918936252594 -0.0078784618526697159
   vertex -0.0010000005131587386 -0.03388918936252594 -0.0078784618526697159
   vertex -0.0010000005131587386 -0.032499998807907104 -0.0080000003799796104
  endloop
 endfacet
 facet normal 0 -0.087155815552649632 -0.99619469172213138
  outer loop
   vertex -4.0233136266998315e-10 -0.03388918936252594 -0.0078784618526697159
   vertex -0.0010000005131587386 -0.032499998807907104 -0.0080000003799796104
   vertex -4.0233136266998315e-10 -0.032499998807907104 -0.0080000003799796104
  endloop
 endfacet
 facet normal 0 0 1
  outer loop
   vertex -0.0010000005131587386 0.032499998807907104 0.0080000003799796104
   vertex -0.0010000005131587386 -0.032499998807907104 0.0080000003799796104
   vertex -4.0233136266998315e-10 0.032499998807907104 0.0080000003799796104
  endloop
 endfacet
 facet normal 0 0 1
  outer loop
   vertex -4.0233136266998315e-10 0.032499998807907104 0.0080000003799796104
   vertex -0.0010000005131587386 -0.032499998807907104 0.0080000003799796104
   vertex -4.0233136266998315e-10 -0.032499998807907104 0.0080000003799796104
  endloop
 endfacet
endsolid
