solid Visualization Toolkit generated SLA File
 facet normal -0.99518453484626124 0 -0.0980190879514313
  outer loop
   vertex 1.9215158317820169e-05 0.010999999940395355 0.0008049102034419775
   vertex 1.9215158317820169e-05 0.0073333331383764744 0.0008049102034419775
   vertex 1.1175870645585562e-10 0.010999999940395355 0.00099999993108212948
  endloop
 endfacet
 facet normal -0.99518453484626135 -0 -0.0980190879514313
  outer loop
   vertex 1.1175870645585562e-10 0.010999999940395355 0.00099999993108212948
   vertex 1.9215158317820169e-05 0.0073333331383764744 0.0008049102034419775
   vertex 1.9215158317820169e-05 0.0036666670348495245 0.0008049102034419775
  endloop
 endfacet
 facet normal -0.99518453484626135 0 -0.0980190879514313
  outer loop
   vertex 1.1175870645585562e-10 0.010999999940395355 0.00099999993108212948
   vertex 1.9215158317820169e-05 0.0036666670348495245 0.0008049102034419775
   vertex 1.1175870645585562e-10 -1.5043521864556863e-17 0.00099999993108212948
  endloop
 endfacet
 facet normal -0.99518453484626124 -0 -0.0980190879514313
  outer loop
   vertex 1.1175870645585562e-10 -1.5043521864556863e-17 0.00099999993108212948
   vertex 1.9215158317820169e-05 0.0036666670348495245 0.0008049102034419775
   vertex 1.9215158317820169e-05 -1.5023469352147352e-17 0.0008049102034419775
  endloop
 endfacet
 facet normal -0.95694173819953499 -0 -0.29028005389907957
  outer loop
   vertex 1.9215158317820169e-05 -1.5023469352147352e-17 0.0008049102034419775
   vertex 1.9215158317820169e-05 0.0036666670348495245 0.0008049102034419775
   vertex 7.6119897130411118e-05 -1.496408274724972e-17 0.00061731715686619282
  endloop
 endfacet
 facet normal -0.95694173819953499 0 -0.29028005389907957
  outer loop
   vertex 7.6119897130411118e-05 -1.496408274724972e-17 0.00061731715686619282
   vertex 1.9215158317820169e-05 0.0036666670348495245 0.0008049102034419775
   vertex 7.6119897130411118e-05 0.0036666670348495245 0.00061731715686619282
  endloop
 endfacet
 facet normal -0.88192123416401635 -0 -0.47139679329691903
  outer loop
   vertex 7.6119897130411118e-05 -1.496408274724972e-17 0.00061731715686619282
   vertex 7.6119897130411118e-05 0.0036666670348495245 0.00061731715686619282
   vertex 0.00016852992121130228 -1.4867641759632163e-17 0.0004444301885087043
  endloop
 endfacet
 facet normal -0.88192123416401635 0 -0.47139679329691908
  outer loop
   vertex 0.00016852992121130228 -1.4867641759632163e-17 0.0004444301885087043
   vertex 7.6119897130411118e-05 0.0036666670348495245 0.00061731715686619282
   vertex 0.00016852992121130228 0.0036666670348495245 0.0004444301885087043
  endloop
 endfacet
 facet normal -0.77301112296467955 -0 -0.6343924682504396
  outer loop
   vertex 0.00016852992121130228 -1.4867641759632163e-17 0.0004444301885087043
   vertex 0.00016852992121130228 0.0036666670348495245 0.0004444301885087043
   vertex 0.00029289314989000559 -1.4737855467161368e-17 0.00029289282974787056
  endloop
 endfacet
 facet normal -0.77301112296467955 0 -0.6343924682504396
  outer loop
   vertex 0.00029289314989000559 -1.4737855467161368e-17 0.00029289282974787056
   vertex 0.00016852992121130228 0.0036666670348495245 0.0004444301885087043
   vertex 0.00029289314989000559 0.0036666670348495245 0.00029289282974787056
  endloop
 endfacet
 facet normal -0.63439225807356292 -0 -0.77301129545196556
  outer loop
   vertex 0.00029289314989000559 -1.4737855467161368e-17 0.00029289282974787056
   vertex 0.00029289314989000559 0.0036666670348495245 0.00029289282974787056
   vertex 0.00044443004298955202 -1.4579710114569805e-17 0.00016853005217853934
  endloop
 endfacet
 facet normal -0.63439225807356292 0 -0.77301129545196556
  outer loop
   vertex 0.00044443004298955202 -1.4579710114569805e-17 0.00016853005217853934
   vertex 0.00029289314989000559 0.0036666670348495245 0.00029289282974787056
   vertex 0.00044443004298955202 0.0036666670348495245 0.00016853005217853934
  endloop
 endfacet
 facet normal -0.47139867779160227 -0 -0.88192022687787874
  outer loop
   vertex 0.00044443004298955202 -1.4579710114569805e-17 0.00016853005217853934
   vertex 0.00044443004298955202 0.0036666670348495245 0.00016853005217853934
   vertex 0.00061731610912829638 -1.4399285479359738e-17 7.6120035373605788e-05
  endloop
 endfacet
 facet normal -0.47139867779160233 0 -0.88192022687787885
  outer loop
   vertex 0.00061731610912829638 -1.4399285479359738e-17 7.6120035373605788e-05
   vertex 0.00044443004298955202 0.0036666670348495245 0.00016853005217853934
   vertex 0.00061731610912829638 0.0036666670348495245 7.6120035373605788e-05
  endloop
 endfacet
 facet normal -0.29028090945909357 -0 -0.95694147867233847
  outer loop
   vertex 0.00061731610912829638 -1.4399285479359738e-17 7.6120035373605788e-05
   vertex 0.00061731610912829638 0.0036666670348495245 7.6120035373605788e-05
   vertex 0.00080491008702665567 -1.4203510026341913e-17 1.9214830899727531e-05
  endloop
 endfacet
 facet normal -0.29028090945909357 0 -0.95694147867233847
  outer loop
   vertex 0.00080491008702665567 -1.4203510026341913e-17 1.9214830899727531e-05
   vertex 0.00061731610912829638 0.0036666670348495245 7.6120035373605788e-05
   vertex 0.00080491008702665567 0.0036666670348495245 1.9214830899727531e-05
  endloop
 endfacet
 facet normal -0.098019090009905135 -0 -0.9951845346435152
  outer loop
   vertex 0.00080491008702665567 -1.4203510026341913e-17 1.9214830899727531e-05
   vertex 0.00080491008702665567 0.0036666670348495245 1.9214830899727531e-05
   vertex 0.00099999981466680765 -1.3999912753451786e-17 -2.1606683109354208e-10
  endloop
 endfacet
 facet normal -0.098019090009905135 0 -0.99518453464351531
  outer loop
   vertex 0.00099999981466680765 -1.3999912753451786e-17 -2.1606683109354208e-10
   vertex 0.00080491008702665567 0.0036666670348495245 1.9214830899727531e-05
   vertex 0.00080491008702665567 0.0073333331383764744 1.9214830899727531e-05
  endloop
 endfacet
 facet normal -0.098019090009905135 0 -0.99518453464351531
  outer loop
   vertex 0.00099999981466680765 -1.3999912753451786e-17 -2.1606683109354208e-10
   vertex 0.00080491008702665567 0.0073333331383764744 1.9214830899727531e-05
   vertex 0.00099999981466680765 0.010999999940395355 -2.1606683109354208e-10
  endloop
 endfacet
 facet normal -0.098019090009905122 0 -0.9951845346435152
  outer loop
   vertex 0.00099999981466680765 0.010999999940395355 -2.1606683109354208e-10
   vertex 0.00080491008702665567 0.0073333331383764744 1.9214830899727531e-05
   vertex 0.00080491008702665567 0.010999999940395355 1.9214830899727531e-05
  endloop
 endfacet
 facet normal -0.29028090945909352 0 -0.95694147867233847
  outer loop
   vertex 0.00080491008702665567 0.010999999940395355 1.9214830899727531e-05
   vertex 0.00080491008702665567 0.0073333331383764744 1.9214830899727531e-05
   vertex 0.00061731610912829638 0.010999999940395355 7.6120035373605788e-05
  endloop
 endfacet
 facet normal -0.29028090945909352 0 -0.95694147867233847
  outer loop
   vertex 0.00061731610912829638 0.010999999940395355 7.6120035373605788e-05
   vertex 0.00080491008702665567 0.0073333331383764744 1.9214830899727531e-05
   vertex 0.00061731610912829638 0.0073333331383764744 7.6120035373605788e-05
  endloop
 endfacet
 facet normal -0.47139867779160222 0 -0.88192022687787874
  outer loop
   vertex 0.00061731610912829638 0.010999999940395355 7.6120035373605788e-05
   vertex 0.00061731610912829638 0.0073333331383764744 7.6120035373605788e-05
   vertex 0.00044443004298955202 0.010999999940395355 0.00016853005217853934
  endloop
 endfacet
 facet normal -0.47139867779160222 0 -0.88192022687787874
  outer loop
   vertex 0.00044443004298955202 0.010999999940395355 0.00016853005217853934
   vertex 0.00061731610912829638 0.0073333331383764744 7.6120035373605788e-05
   vertex 0.00044443004298955202 0.0073333331383764744 0.00016853005217853934
  endloop
 endfacet
 facet normal -0.63439225807356292 0 -0.77301129545196556
  outer loop
   vertex 0.00044443004298955202 0.010999999940395355 0.00016853005217853934
   vertex 0.00044443004298955202 0.0073333331383764744 0.00016853005217853934
   vertex 0.00029289314989000559 0.010999999940395355 0.00029289282974787056
  endloop
 endfacet
 facet normal -0.63439225807356292 0 -0.77301129545196556
  outer loop
   vertex 0.00029289314989000559 0.010999999940395355 0.00029289282974787056
   vertex 0.00044443004298955202 0.0073333331383764744 0.00016853005217853934
   vertex 0.00029289314989000559 0.0073333331383764744 0.00029289282974787056
  endloop
 endfacet
 facet normal -0.77301112296467966 0 -0.6343924682504396
  outer loop
   vertex 0.00029289314989000559 0.010999999940395355 0.00029289282974787056
   vertex 0.00029289314989000559 0.0073333331383764744 0.00029289282974787056
   vertex 0.00016852992121130228 0.010999999940395355 0.0004444301885087043
  endloop
 endfacet
 facet normal -0.77301112296467966 0 -0.6343924682504396
  outer loop
   vertex 0.00016852992121130228 0.010999999940395355 0.0004444301885087043
   vertex 0.00029289314989000559 0.0073333331383764744 0.00029289282974787056
   vertex 0.00016852992121130228 0.0073333331383764744 0.0004444301885087043
  endloop
 endfacet
 facet normal -0.88192123416401635 0 -0.47139679329691908
  outer loop
   vertex 0.00016852992121130228 0.010999999940395355 0.0004444301885087043
   vertex 0.00016852992121130228 0.0073333331383764744 0.0004444301885087043
   vertex 7.6119897130411118e-05 0.010999999940395355 0.00061731715686619282
  endloop
 endfacet
 facet normal -0.88192123416401635 0 -0.47139679329691908
  outer loop
   vertex 7.6119897130411118e-05 0.010999999940395355 0.00061731715686619282
   vertex 0.00016852992121130228 0.0073333331383764744 0.0004444301885087043
   vertex 7.6119897130411118e-05 0.0073333331383764744 0.00061731715686619282
  endloop
 endfacet
 facet normal -0.95694173819953499 0 -0.29028005389907957
  outer loop
   vertex 7.6119897130411118e-05 0.010999999940395355 0.00061731715686619282
   vertex 7.6119897130411118e-05 0.0073333331383764744 0.00061731715686619282
   vertex 1.9215158317820169e-05 0.010999999940395355 0.0008049102034419775
  endloop
 endfacet
 facet normal -0.95694173819953499 0 -0.29028005389907957
  outer loop
   vertex 1.9215158317820169e-05 0.010999999940395355 0.0008049102034419775
   vertex 7.6119897130411118e-05 0.0073333331383764744 0.00061731715686619282
   vertex 1.9215158317820169e-05 0.0073333331383764744 0.0008049102034419775
  endloop
 endfacet
 facet normal -0.9569417381995351 0 -0.29028005389907963
  outer loop
   vertex 7.6119897130411118e-05 0.0036666670348495245 0.00061731715686619282
   vertex 1.9215158317820169e-05 0.0036666670348495245 0.0008049102034419775
   vertex 1.9215158317820169e-05 0.0073333331383764744 0.0008049102034419775
  endloop
 endfacet
 facet normal -0.9569417381995351 0 -0.29028005389907963
  outer loop
   vertex 7.6119897130411118e-05 0.0036666670348495245 0.00061731715686619282
   vertex 1.9215158317820169e-05 0.0073333331383764744 0.0008049102034419775
   vertex 7.6119897130411118e-05 0.0073333331383764744 0.00061731715686619282
  endloop
 endfacet
 facet normal -0.88192123416401635 0 -0.47139679329691908
  outer loop
   vertex 0.00016852992121130228 0.0036666670348495245 0.0004444301885087043
   vertex 7.6119897130411118e-05 0.0036666670348495245 0.00061731715686619282
   vertex 7.6119897130411118e-05 0.0073333331383764744 0.00061731715686619282
  endloop
 endfacet
 facet normal -0.88192123416401635 0 -0.47139679329691908
  outer loop
   vertex 0.00016852992121130228 0.0036666670348495245 0.0004444301885087043
   vertex 7.6119897130411118e-05 0.0073333331383764744 0.00061731715686619282
   vertex 0.00016852992121130228 0.0073333331383764744 0.0004444301885087043
  endloop
 endfacet
 facet normal -0.77301112296467955 0 -0.6343924682504396
  outer loop
   vertex 0.00029289314989000559 0.0036666670348495245 0.00029289282974787056
   vertex 0.00016852992121130228 0.0036666670348495245 0.0004444301885087043
   vertex 0.00016852992121130228 0.0073333331383764744 0.0004444301885087043
  endloop
 endfacet
 facet normal -0.77301112296467955 0 -0.6343924682504396
  outer loop
   vertex 0.00029289314989000559 0.0036666670348495245 0.00029289282974787056
   vertex 0.00016852992121130228 0.0073333331383764744 0.0004444301885087043
   vertex 0.00029289314989000559 0.0073333331383764744 0.00029289282974787056
  endloop
 endfacet
 facet normal -0.63439225807356292 0 -0.77301129545196556
  outer loop
   vertex 0.00044443004298955202 0.0036666670348495245 0.00016853005217853934
   vertex 0.00029289314989000559 0.0036666670348495245 0.00029289282974787056
   vertex 0.00029289314989000559 0.0073333331383764744 0.00029289282974787056
  endloop
 endfacet
 facet normal -0.63439225807356292 0 -0.77301129545196556
  outer loop
   vertex 0.00044443004298955202 0.0036666670348495245 0.00016853005217853934
   vertex 0.00029289314989000559 0.0073333331383764744 0.00029289282974787056
   vertex 0.00044443004298955202 0.0073333331383764744 0.00016853005217853934
  endloop
 endfacet
 facet normal -0.47139867779160222 0 -0.88192022687787874
  outer loop
   vertex 0.00061731610912829638 0.0036666670348495245 7.6120035373605788e-05
   vertex 0.00044443004298955202 0.0036666670348495245 0.00016853005217853934
   vertex 0.00044443004298955202 0.0073333331383764744 0.00016853005217853934
  endloop
 endfacet
 facet normal -0.47139867779160222 0 -0.88192022687787874
  outer loop
   vertex 0.00061731610912829638 0.0036666670348495245 7.6120035373605788e-05
   vertex 0.00044443004298955202 0.0073333331383764744 0.00016853005217853934
   vertex 0.00061731610912829638 0.0073333331383764744 7.6120035373605788e-05
  endloop
 endfacet
 facet normal -0.29028090945909352 0 -0.95694147867233836
  outer loop
   vertex 0.00080491008702665567 0.0036666670348495245 1.9214830899727531e-05
   vertex 0.00061731610912829638 0.0036666670348495245 7.6120035373605788e-05
   vertex 0.00061731610912829638 0.0073333331383764744 7.6120035373605788e-05
  endloop
 endfacet
 facet normal -0.29028090945909352 0 -0.95694147867233836
  outer loop
   vertex 0.00080491008702665567 0.0036666670348495245 1.9214830899727531e-05
   vertex 0.00061731610912829638 0.0073333331383764744 7.6120035373605788e-05
   vertex 0.00080491008702665567 0.0073333331383764744 1.9214830899727531e-05
  endloop
 endfacet
 facet normal -0 0 -1
  outer loop
   vertex 0.00099999981466680765 0.010999999940395355 -2.1606683109354208e-10
   vertex 0.021000001579523087 0.010999999940395355 -2.1606683109354208e-10
   vertex 0.00099999981466680765 -1.3999912753451786e-17 -2.1606683109354208e-10
  endloop
 endfacet
 facet normal 0 -0 -1
  outer loop
   vertex 0.00099999981466680765 -1.3999912753451786e-17 -2.1606683109354208e-10
   vertex 0.021000001579523087 0.010999999940395355 -2.1606683109354208e-10
   vertex 0.021000001579523087 6.8722818763589456e-18 -2.1606683109354208e-10
  endloop
 endfacet
 facet normal 0 1 0
  outer loop
   vertex 0.00080491008702665567 0.010999999940395355 1.9214830899727531e-05
   vertex 0.00061731610912829638 0.010999999940395355 7.6120035373605788e-05
   vertex 0.00099999981466680765 0.010999999940395355 -2.1606683109354208e-10
  endloop
 endfacet
 facet normal -0 1 -0
  outer loop
   vertex 0.00099999981466680765 0.010999999940395355 -2.1606683109354208e-10
   vertex 0.00061731610912829638 0.010999999940395355 7.6120035373605788e-05
   vertex 0.00044443004298955202 0.010999999940395355 0.00016853005217853934
  endloop
 endfacet
 facet normal -0 1 -0
  outer loop
   vertex 0.00099999981466680765 0.010999999940395355 -2.1606683109354208e-10
   vertex 0.00044443004298955202 0.010999999940395355 0.00016853005217853934
   vertex 0.00029289314989000559 0.010999999940395355 0.00029289282974787056
  endloop
 endfacet
 facet normal 0 1 0
  outer loop
   vertex 0.00029289314989000559 0.010999999940395355 0.00029289282974787056
   vertex 0.00016852992121130228 0.010999999940395355 0.0004444301885087043
   vertex 0.00099999981466680765 0.010999999940395355 -2.1606683109354208e-10
  endloop
 endfacet
 facet normal -0 1 -0
  outer loop
   vertex 0.00099999981466680765 0.010999999940395355 -2.1606683109354208e-10
   vertex 0.00016852992121130228 0.010999999940395355 0.0004444301885087043
   vertex 7.6119897130411118e-05 0.010999999940395355 0.00061731715686619282
  endloop
 endfacet
 facet normal -0 1 -0
  outer loop
   vertex 0.00099999981466680765 0.010999999940395355 -2.1606683109354208e-10
   vertex 7.6119897130411118e-05 0.010999999940395355 0.00061731715686619282
   vertex 1.9215158317820169e-05 0.010999999940395355 0.0008049102034419775
  endloop
 endfacet
 facet normal 0 1 0
  outer loop
   vertex 1.9215158317820169e-05 0.010999999940395355 0.0008049102034419775
   vertex 1.1175870645585562e-10 0.010999999940395355 0.00099999993108212948
   vertex 0.00099999981466680765 0.010999999940395355 -2.1606683109354208e-10
  endloop
 endfacet
 facet normal -0 1 0
  outer loop
   vertex 0.00099999981466680765 0.010999999940395355 -2.1606683109354208e-10
   vertex 1.1175870645585562e-10 0.010999999940395355 0.00099999993108212948
   vertex 0.02200000174343586 0.010999999940395355 0.00099999993108212948
  endloop
 endfacet
 facet normal 0 1 0
  outer loop
   vertex 0.00099999981466680765 0.010999999940395355 -2.1606683109354208e-10
   vertex 0.02200000174343586 0.010999999940395355 0.00099999993108212948
   vertex 0.021000001579523087 0.010999999940395355 -2.1606683109354208e-10
  endloop
 endfacet
 facet normal 0 1 0
  outer loop
   vertex 0.021000001579523087 0.010999999940395355 -2.1606683109354208e-10
   vertex 0.02200000174343586 0.010999999940395355 0.00099999993108212948
   vertex 0.021980790421366692 0.010999999940395355 0.0008049102034419775
  endloop
 endfacet
 facet normal 0 1 0
  outer loop
   vertex 0.021000001579523087 0.010999999940395355 -2.1606683109354208e-10
   vertex 0.021980790421366692 0.010999999940395355 0.0008049102034419775
   vertex 0.021923881024122238 0.010999999940395355 0.00061731715686619282
  endloop
 endfacet
 facet normal 0 1 0
  outer loop
   vertex 0.02200000174343586 0.010999999940395355 0.00099999993108212948
   vertex 1.1175870645585562e-10 0.010999999940395355 0.00099999993108212948
   vertex 0.02200000174343586 0.010999999940395355 0.018500000238418579
  endloop
 endfacet
 facet normal 0 1 0
  outer loop
   vertex 0.02200000174343586 0.010999999940395355 0.018500000238418579
   vertex 1.1175870645585562e-10 0.010999999940395355 0.00099999993108212948
   vertex 1.1175870645585562e-10 0.010999999940395355 0.018500000238418579
  endloop
 endfacet
 facet normal 0 1 0
  outer loop
   vertex 0.02200000174343586 0.010999999940395355 0.018500000238418579
   vertex 1.1175870645585562e-10 0.010999999940395355 0.018500000238418579
   vertex 0.021000001579523087 0.010999999940395355 0.019500000402331352
  endloop
 endfacet
 facet normal 0 1 0
  outer loop
   vertex 0.021000001579523087 0.010999999940395355 0.019500000402331352
   vertex 1.1175870645585562e-10 0.010999999940395355 0.018500000238418579
   vertex 0.00099999981466680765 0.010999999940395355 0.019500000402331352
  endloop
 endfacet
 facet normal 0 1 0
  outer loop
   vertex 0.00099999981466680765 0.010999999940395355 0.019500000402331352
   vertex 1.1175870645585562e-10 0.010999999940395355 0.018500000238418579
   vertex 1.9215158317820169e-05 0.010999999940395355 0.018695089966058731
  endloop
 endfacet
 facet normal 0 1 0
  outer loop
   vertex 0.00099999981466680765 0.010999999940395355 0.019500000402331352
   vertex 1.9215158317820169e-05 0.010999999940395355 0.018695089966058731
   vertex 7.6119897130411118e-05 0.010999999940395355 0.01888267882168293
  endloop
 endfacet
 facet normal -0 1 0
  outer loop
   vertex 7.6119897130411118e-05 0.010999999940395355 0.01888267882168293
   vertex 0.00016852992121130228 0.010999999940395355 0.019055569544434547
   vertex 0.00099999981466680765 0.010999999940395355 0.019500000402331352
  endloop
 endfacet
 facet normal 0 1 0
  outer loop
   vertex 0.00099999981466680765 0.010999999940395355 0.019500000402331352
   vertex 0.00016852992121130228 0.010999999940395355 0.019055569544434547
   vertex 0.00029289314989000559 0.010999999940395355 0.01920711062848568
  endloop
 endfacet
 facet normal 0 1 0
  outer loop
   vertex 0.00099999981466680765 0.010999999940395355 0.019500000402331352
   vertex 0.00029289314989000559 0.010999999940395355 0.01920711062848568
   vertex 0.00044443004298955202 0.010999999940395355 0.019331470131874084
  endloop
 endfacet
 facet normal -0 1 0
  outer loop
   vertex 0.00044443004298955202 0.010999999940395355 0.019331470131874084
   vertex 0.00061731610912829638 0.010999999940395355 0.019423879683017731
   vertex 0.00099999981466680765 0.010999999940395355 0.019500000402331352
  endloop
 endfacet
 facet normal 0 1 0
  outer loop
   vertex 0.00099999981466680765 0.010999999940395355 0.019500000402331352
   vertex 0.00061731610912829638 0.010999999940395355 0.019423879683017731
   vertex 0.00080491008702665567 0.010999999940395355 0.019480789080262184
  endloop
 endfacet
 facet normal 0 1 0
  outer loop
   vertex 0.021195091307163239 0.010999999940395355 0.019480789080262184
   vertex 0.021382680162787437 0.010999999940395355 0.019423879683017731
   vertex 0.021000001579523087 0.010999999940395355 0.019500000402331352
  endloop
 endfacet
 facet normal 0 1 0
  outer loop
   vertex 0.021000001579523087 0.010999999940395355 0.019500000402331352
   vertex 0.021382680162787437 0.010999999940395355 0.019423879683017731
   vertex 0.021555570885539055 0.010999999940395355 0.019331470131874084
  endloop
 endfacet
 facet normal 0 1 0
  outer loop
   vertex 0.021000001579523087 0.010999999940395355 0.019500000402331352
   vertex 0.021555570885539055 0.010999999940395355 0.019331470131874084
   vertex 0.021707110106945038 0.010999999940395355 0.01920711062848568
  endloop
 endfacet
 facet normal 0 1 0
  outer loop
   vertex 0.021707110106945038 0.010999999940395355 0.01920711062848568
   vertex 0.021831471472978592 0.010999999940395355 0.019055569544434547
   vertex 0.021000001579523087 0.010999999940395355 0.019500000402331352
  endloop
 endfacet
 facet normal 0 1 0
  outer loop
   vertex 0.021000001579523087 0.010999999940395355 0.019500000402331352
   vertex 0.021831471472978592 0.010999999940395355 0.019055569544434547
   vertex 0.021923881024122238 0.010999999940395355 0.01888267882168293
  endloop
 endfacet
 facet normal 0 1 0
  outer loop
   vertex 0.021000001579523087 0.010999999940395355 0.019500000402331352
   vertex 0.021923881024122238 0.010999999940395355 0.01888267882168293
   vertex 0.021980790421366692 0.010999999940395355 0.018695089966058731
  endloop
 endfacet
 facet normal 0 1 0
  outer loop
   vertex 0.021980790421366692 0.010999999940395355 0.018695089966058731
   vertex 0.02200000174343586 0.010999999940395355 0.018500000238418579
   vertex 0.021000001579523087 0.010999999940395355 0.019500000402331352
  endloop
 endfacet
 facet normal 0 1 -0
  outer loop
   vertex 0.021923881024122238 0.010999999940395355 0.00061731715686619282
   vertex 0.021831471472978592 0.010999999940395355 0.0004444301885087043
   vertex 0.021000001579523087 0.010999999940395355 -2.1606683109354208e-10
  endloop
 endfacet
 facet normal 0 1 0
  outer loop
   vertex 0.021000001579523087 0.010999999940395355 -2.1606683109354208e-10
   vertex 0.021831471472978592 0.010999999940395355 0.0004444301885087043
   vertex 0.021707110106945038 0.010999999940395355 0.00029289282974787056
  endloop
 endfacet
 facet normal 0 1 0
  outer loop
   vertex 0.021000001579523087 0.010999999940395355 -2.1606683109354208e-10
   vertex 0.021707110106945038 0.010999999940395355 0.00029289282974787056
   vertex 0.021555570885539055 0.010999999940395355 0.00016853005217853934
  endloop
 endfacet
 facet normal 0 1 -0
  outer loop
   vertex 0.021555570885539055 0.010999999940395355 0.00016853005217853934
   vertex 0.021382680162787437 0.010999999940395355 7.6120035373605788e-05
   vertex 0.021000001579523087 0.010999999940395355 -2.1606683109354208e-10
  endloop
 endfacet
 facet normal 0 1 0
  outer loop
   vertex 0.021000001579523087 0.010999999940395355 -2.1606683109354208e-10
   vertex 0.021382680162787437 0.010999999940395355 7.6120035373605788e-05
   vertex 0.021195091307163239 0.010999999940395355 1.9214830899727531e-05
  endloop
 endfacet
 facet normal 0.098019090009905122 0 -0.9951845346435152
  outer loop
   vertex 0.021195091307163239 0.010999999940395355 1.9214830899727531e-05
   vertex 0.021195091307163239 0.0073333331383764744 1.9214830899727531e-05
   vertex 0.021000001579523087 0.010999999940395355 -2.1606683109354208e-10
  endloop
 endfacet
 facet normal 0.098019090009905135 0 -0.99518453464351531
  outer loop
   vertex 0.021000001579523087 0.010999999940395355 -2.1606683109354208e-10
   vertex 0.021195091307163239 0.0073333331383764744 1.9214830899727531e-05
   vertex 0.021195091307163239 0.0036666670348495245 1.9214830899727531e-05
  endloop
 endfacet
 facet normal 0.098019090009905135 0 -0.99518453464351531
  outer loop
   vertex 0.021000001579523087 0.010999999940395355 -2.1606683109354208e-10
   vertex 0.021195091307163239 0.0036666670348495245 1.9214830899727531e-05
   vertex 0.021000001579523087 6.8722818763589456e-18 -2.1606683109354208e-10
  endloop
 endfacet
 facet normal 0.098019090009905135 0 -0.99518453464351531
  outer loop
   vertex 0.021000001579523087 6.8722818763589456e-18 -2.1606683109354208e-10
   vertex 0.021195091307163239 0.0036666670348495245 1.9214830899727531e-05
   vertex 0.021195091307163239 7.0758791492490725e-18 1.9214830899727531e-05
  endloop
 endfacet
 facet normal 0.29028816790292988 0 -0.95693927684862035
  outer loop
   vertex 0.021195091307163239 7.0758791492490725e-18 1.9214830899727531e-05
   vertex 0.021195091307163239 0.0036666670348495245 1.9214830899727531e-05
   vertex 0.021382680162787437 7.2716479848219976e-18 7.6120035373605788e-05
  endloop
 endfacet
 facet normal 0.29028816790292988 0 -0.95693927684862035
  outer loop
   vertex 0.021382680162787437 7.2716479848219976e-18 7.6120035373605788e-05
   vertex 0.021195091307163239 0.0036666670348495245 1.9214830899727531e-05
   vertex 0.021382680162787437 0.0036666670348495245 7.6120035373605788e-05
  endloop
 endfacet
 facet normal 0.47138880251406096 0 -0.88192550528055347
  outer loop
   vertex 0.021382680162787437 7.2716479848219976e-18 7.6120035373605788e-05
   vertex 0.021382680162787437 0.0036666670348495245 7.6120035373605788e-05
   vertex 0.021555570885539055 7.4520792374769644e-18 0.00016853005217853934
  endloop
 endfacet
 facet normal 0.47138880251406096 0 -0.88192550528055347
  outer loop
   vertex 0.021555570885539055 7.4520792374769644e-18 0.00016853005217853934
   vertex 0.021382680162787437 0.0036666670348495245 7.6120035373605788e-05
   vertex 0.021555570885539055 0.0036666670348495245 0.00016853005217853934
  endloop
 endfacet
 facet normal 0.63438643370740611 0 -0.77301607533608185
  outer loop
   vertex 0.021555570885539055 7.4520792374769644e-18 0.00016853005217853934
   vertex 0.021555570885539055 0.0036666670348495245 0.00016853005217853934
   vertex 0.021707110106945038 7.6102262444297527e-18 0.00029289282974787056
  endloop
 endfacet
 facet normal 0.63438643370740599 0 -0.77301607533608185
  outer loop
   vertex 0.021707110106945038 7.6102262444297527e-18 0.00029289282974787056
   vertex 0.021555570885539055 0.0036666670348495245 0.00016853005217853934
   vertex 0.021707110106945038 0.0036666670348495245 0.00029289282974787056
  endloop
 endfacet
 facet normal 0.77301578247835978 0 -0.63438679056185365
  outer loop
   vertex 0.021707110106945038 7.6102262444297527e-18 0.00029289282974787056
   vertex 0.021707110106945038 0.0036666670348495245 0.00029289282974787056
   vertex 0.021831471472978592 7.7400125369005478e-18 0.0004444301885087043
  endloop
 endfacet
 facet normal 0.77301578247835978 0 -0.63438679056185365
  outer loop
   vertex 0.021831471472978592 7.7400125369005478e-18 0.0004444301885087043
   vertex 0.021707110106945038 0.0036666670348495245 0.00029289282974787056
   vertex 0.021831471472978592 0.0036666670348495245 0.0004444301885087043
  endloop
 endfacet
 facet normal 0.88192223713209328 0 -0.47139491687111323
  outer loop
   vertex 0.021831471472978592 7.7400125369005478e-18 0.0004444301885087043
   vertex 0.021831471472978592 0.0036666670348495245 0.0004444301885087043
   vertex 0.021923881024122238 7.8364502157956551e-18 0.00061731715686619282
  endloop
 endfacet
 facet normal 0.88192223713209328 0 -0.47139491687111323
  outer loop
   vertex 0.021923881024122238 7.8364502157956551e-18 0.00061731715686619282
   vertex 0.021831471472978592 0.0036666670348495245 0.0004444301885087043
   vertex 0.021923881024122238 0.0036666670348495245 0.00061731715686619282
  endloop
 endfacet
 facet normal 0.95693513697533783 0 -0.2903018147066796
  outer loop
   vertex 0.021923881024122238 7.8364502157956551e-18 0.00061731715686619282
   vertex 0.021923881024122238 0.0036666670348495245 0.00061731715686619282
   vertex 0.021980790421366692 7.8958434381381876e-18 0.0008049102034419775
  endloop
 endfacet
 facet normal 0.95693513697533783 0 -0.2903018147066796
  outer loop
   vertex 0.021980790421366692 7.8958434381381876e-18 0.0008049102034419775
   vertex 0.021923881024122238 0.0036666670348495245 0.00061731715686619282
   vertex 0.021980790421366692 0.0036666670348495245 0.0008049102034419775
  endloop
 endfacet
 facet normal 0.99518638799133252 0 -0.098000271207609499
  outer loop
   vertex 0.021980790421366692 7.8958434381381876e-18 0.0008049102034419775
   vertex 0.021980790421366692 0.0036666670348495245 0.0008049102034419775
   vertex 0.02200000174343586 7.9158909874640228e-18 0.00099999993108212948
  endloop
 endfacet
 facet normal 0.99518638799133252 0 -0.098000271207609499
  outer loop
   vertex 0.02200000174343586 7.9158909874640228e-18 0.00099999993108212948
   vertex 0.021980790421366692 0.0036666670348495245 0.0008049102034419775
   vertex 0.021980790421366692 0.0073333331383764744 0.0008049102034419775
  endloop
 endfacet
 facet normal 0.99518638799133241 0 -0.098000271207609499
  outer loop
   vertex 0.02200000174343586 7.9158909874640228e-18 0.00099999993108212948
   vertex 0.021980790421366692 0.0073333331383764744 0.0008049102034419775
   vertex 0.02200000174343586 0.010999999940395355 0.00099999993108212948
  endloop
 endfacet
 facet normal 0.99518638799133252 0 -0.098000271207609499
  outer loop
   vertex 0.02200000174343586 0.010999999940395355 0.00099999993108212948
   vertex 0.021980790421366692 0.0073333331383764744 0.0008049102034419775
   vertex 0.021980790421366692 0.010999999940395355 0.0008049102034419775
  endloop
 endfacet
 facet normal 0.95693513697533783 0 -0.2903018147066796
  outer loop
   vertex 0.021980790421366692 0.010999999940395355 0.0008049102034419775
   vertex 0.021980790421366692 0.0073333331383764744 0.0008049102034419775
   vertex 0.021923881024122238 0.010999999940395355 0.00061731715686619282
  endloop
 endfacet
 facet normal 0.95693513697533783 0 -0.2903018147066796
  outer loop
   vertex 0.021923881024122238 0.010999999940395355 0.00061731715686619282
   vertex 0.021980790421366692 0.0073333331383764744 0.0008049102034419775
   vertex 0.021923881024122238 0.0073333331383764744 0.00061731715686619282
  endloop
 endfacet
 facet normal 0.88192223713209328 0 -0.47139491687111323
  outer loop
   vertex 0.021923881024122238 0.010999999940395355 0.00061731715686619282
   vertex 0.021923881024122238 0.0073333331383764744 0.00061731715686619282
   vertex 0.021831471472978592 0.010999999940395355 0.0004444301885087043
  endloop
 endfacet
 facet normal 0.88192223713209328 0 -0.47139491687111323
  outer loop
   vertex 0.021831471472978592 0.010999999940395355 0.0004444301885087043
   vertex 0.021923881024122238 0.0073333331383764744 0.00061731715686619282
   vertex 0.021831471472978592 0.0073333331383764744 0.0004444301885087043
  endloop
 endfacet
 facet normal 0.77301578247835978 0 -0.63438679056185365
  outer loop
   vertex 0.021831471472978592 0.010999999940395355 0.0004444301885087043
   vertex 0.021831471472978592 0.0073333331383764744 0.0004444301885087043
   vertex 0.021707110106945038 0.010999999940395355 0.00029289282974787056
  endloop
 endfacet
 facet normal 0.77301578247835978 0 -0.63438679056185365
  outer loop
   vertex 0.021707110106945038 0.010999999940395355 0.00029289282974787056
   vertex 0.021831471472978592 0.0073333331383764744 0.0004444301885087043
   vertex 0.021707110106945038 0.0073333331383764744 0.00029289282974787056
  endloop
 endfacet
 facet normal 0.63438643370740611 0 -0.77301607533608196
  outer loop
   vertex 0.021707110106945038 0.010999999940395355 0.00029289282974787056
   vertex 0.021707110106945038 0.0073333331383764744 0.00029289282974787056
   vertex 0.021555570885539055 0.010999999940395355 0.00016853005217853934
  endloop
 endfacet
 facet normal 0.63438643370740611 0 -0.77301607533608196
  outer loop
   vertex 0.021555570885539055 0.010999999940395355 0.00016853005217853934
   vertex 0.021707110106945038 0.0073333331383764744 0.00029289282974787056
   vertex 0.021555570885539055 0.0073333331383764744 0.00016853005217853934
  endloop
 endfacet
 facet normal 0.47138880251406096 0 -0.88192550528055347
  outer loop
   vertex 0.021555570885539055 0.010999999940395355 0.00016853005217853934
   vertex 0.021555570885539055 0.0073333331383764744 0.00016853005217853934
   vertex 0.021382680162787437 0.010999999940395355 7.6120035373605788e-05
  endloop
 endfacet
 facet normal 0.47138880251406096 0 -0.88192550528055347
  outer loop
   vertex 0.021382680162787437 0.010999999940395355 7.6120035373605788e-05
   vertex 0.021555570885539055 0.0073333331383764744 0.00016853005217853934
   vertex 0.021382680162787437 0.0073333331383764744 7.6120035373605788e-05
  endloop
 endfacet
 facet normal 0.29028816790292988 0 -0.95693927684862035
  outer loop
   vertex 0.021382680162787437 0.010999999940395355 7.6120035373605788e-05
   vertex 0.021382680162787437 0.0073333331383764744 7.6120035373605788e-05
   vertex 0.021195091307163239 0.010999999940395355 1.9214830899727531e-05
  endloop
 endfacet
 facet normal 0.29028816790292988 0 -0.95693927684862035
  outer loop
   vertex 0.021195091307163239 0.010999999940395355 1.9214830899727531e-05
   vertex 0.021382680162787437 0.0073333331383764744 7.6120035373605788e-05
   vertex 0.021195091307163239 0.0073333331383764744 1.9214830899727531e-05
  endloop
 endfacet
 facet normal 0.29028816790292988 0 -0.95693927684862023
  outer loop
   vertex 0.021382680162787437 0.0036666670348495245 7.6120035373605788e-05
   vertex 0.021195091307163239 0.0036666670348495245 1.9214830899727531e-05
   vertex 0.021195091307163239 0.0073333331383764744 1.9214830899727531e-05
  endloop
 endfacet
 facet normal 0.29028816790292988 0 -0.95693927684862023
  outer loop
   vertex 0.021382680162787437 0.0036666670348495245 7.6120035373605788e-05
   vertex 0.021195091307163239 0.0073333331383764744 1.9214830899727531e-05
   vertex 0.021382680162787437 0.0073333331383764744 7.6120035373605788e-05
  endloop
 endfacet
 facet normal 0.47138880251406096 0 -0.88192550528055347
  outer loop
   vertex 0.021555570885539055 0.0036666670348495245 0.00016853005217853934
   vertex 0.021382680162787437 0.0036666670348495245 7.6120035373605788e-05
   vertex 0.021382680162787437 0.0073333331383764744 7.6120035373605788e-05
  endloop
 endfacet
 facet normal 0.47138880251406096 0 -0.88192550528055347
  outer loop
   vertex 0.021555570885539055 0.0036666670348495245 0.00016853005217853934
   vertex 0.021382680162787437 0.0073333331383764744 7.6120035373605788e-05
   vertex 0.021555570885539055 0.0073333331383764744 0.00016853005217853934
  endloop
 endfacet
 facet normal 0.63438643370740599 0 -0.77301607533608185
  outer loop
   vertex 0.021707110106945038 0.0036666670348495245 0.00029289282974787056
   vertex 0.021555570885539055 0.0036666670348495245 0.00016853005217853934
   vertex 0.021555570885539055 0.0073333331383764744 0.00016853005217853934
  endloop
 endfacet
 facet normal 0.63438643370740599 0 -0.77301607533608185
  outer loop
   vertex 0.021707110106945038 0.0036666670348495245 0.00029289282974787056
   vertex 0.021555570885539055 0.0073333331383764744 0.00016853005217853934
   vertex 0.021707110106945038 0.0073333331383764744 0.00029289282974787056
  endloop
 endfacet
 facet normal 0.77301578247835967 0 -0.63438679056185365
  outer loop
   vertex 0.021831471472978592 0.0036666670348495245 0.0004444301885087043
   vertex 0.021707110106945038 0.0036666670348495245 0.00029289282974787056
   vertex 0.021707110106945038 0.0073333331383764744 0.00029289282974787056
  endloop
 endfacet
 facet normal 0.77301578247835967 0 -0.63438679056185365
  outer loop
   vertex 0.021831471472978592 0.0036666670348495245 0.0004444301885087043
   vertex 0.021707110106945038 0.0073333331383764744 0.00029289282974787056
   vertex 0.021831471472978592 0.0073333331383764744 0.0004444301885087043
  endloop
 endfacet
 facet normal 0.88192223713209328 0 -0.47139491687111323
  outer loop
   vertex 0.021923881024122238 0.0036666670348495245 0.00061731715686619282
   vertex 0.021831471472978592 0.0036666670348495245 0.0004444301885087043
   vertex 0.021831471472978592 0.0073333331383764744 0.0004444301885087043
  endloop
 endfacet
 facet normal 0.88192223713209328 0 -0.47139491687111323
  outer loop
   vertex 0.021923881024122238 0.0036666670348495245 0.00061731715686619282
   vertex 0.021831471472978592 0.0073333331383764744 0.0004444301885087043
   vertex 0.021923881024122238 0.0073333331383764744 0.00061731715686619282
  endloop
 endfacet
 facet normal 0.95693513697533794 0 -0.2903018147066796
  outer loop
   vertex 0.021980790421366692 0.0036666670348495245 0.0008049102034419775
   vertex 0.021923881024122238 0.0036666670348495245 0.00061731715686619282
   vertex 0.021923881024122238 0.0073333331383764744 0.00061731715686619282
  endloop
 endfacet
 facet normal 0.95693513697533794 0 -0.2903018147066796
  outer loop
   vertex 0.021980790421366692 0.0036666670348495245 0.0008049102034419775
   vertex 0.021923881024122238 0.0073333331383764744 0.00061731715686619282
   vertex 0.021980790421366692 0.0073333331383764744 0.0008049102034419775
  endloop
 endfacet
 facet normal 1 0 0
  outer loop
   vertex 0.02200000174343586 0.010999999940395355 0.00099999993108212948
   vertex 0.02200000174343586 0.010999999940395355 0.018500000238418579
   vertex 0.02200000174343586 7.9158909874640228e-18 0.00099999993108212948
  endloop
 endfacet
 facet normal 1 0 0
  outer loop
   vertex 0.02200000174343586 7.9158909874640228e-18 0.00099999993108212948
   vertex 0.02200000174343586 0.010999999940395355 0.018500000238418579
   vertex 0.02200000174343586 7.9158909874640228e-18 0.018500000238418579
  endloop
 endfacet
 facet normal 0.99518638799133252 -0 0.098000271207609499
  outer loop
   vertex 0.021980790421366692 0.010999999940395355 0.018695089966058731
   vertex 0.021980790421366692 0.0073333331383764744 0.018695089966058731
   vertex 0.02200000174343586 0.010999999940395355 0.018500000238418579
  endloop
 endfacet
 facet normal 0.99518638799133252 0 0.098000271207609499
  outer loop
   vertex 0.02200000174343586 0.010999999940395355 0.018500000238418579
   vertex 0.021980790421366692 0.0073333331383764744 0.018695089966058731
   vertex 0.021980790421366692 0.0036666670348495245 0.018695089966058731
  endloop
 endfacet
 facet normal 0.99518638799133241 0 0.098000271207609499
  outer loop
   vertex 0.02200000174343586 0.010999999940395355 0.018500000238418579
   vertex 0.021980790421366692 0.0036666670348495245 0.018695089966058731
   vertex 0.02200000174343586 7.9158909874640228e-18 0.018500000238418579
  endloop
 endfacet
 facet normal 0.99518638799133252 0 0.098000271207609499
  outer loop
   vertex 0.02200000174343586 7.9158909874640228e-18 0.018500000238418579
   vertex 0.021980790421366692 0.0036666670348495245 0.018695089966058731
   vertex 0.021980790421366692 7.8958434381381876e-18 0.018695089966058731
  endloop
 endfacet
 facet normal 0.95693333523900115 0 0.29030775378615248
  outer loop
   vertex 0.021980790421366692 7.8958434381381876e-18 0.018695089966058731
   vertex 0.021980790421366692 0.0036666670348495245 0.018695089966058731
   vertex 0.021923881024122238 7.8364502157956551e-18 0.01888267882168293
  endloop
 endfacet
 facet normal 0.95693333523900115 0 0.29030775378615248
  outer loop
   vertex 0.021923881024122238 7.8364502157956551e-18 0.01888267882168293
   vertex 0.021980790421366692 0.0036666670348495245 0.018695089966058731
   vertex 0.021923881024122238 0.0036666670348495245 0.01888267882168293
  endloop
 endfacet
 facet normal 0.88192649278974566 0 0.47138695496967098
  outer loop
   vertex 0.021923881024122238 7.8364502157956551e-18 0.01888267882168293
   vertex 0.021923881024122238 0.0036666670348495245 0.01888267882168293
   vertex 0.021831471472978592 7.7400125369005478e-18 0.019055569544434547
  endloop
 endfacet
 facet normal 0.88192649278974566 0 0.47138695496967098
  outer loop
   vertex 0.021831471472978592 7.7400125369005478e-18 0.019055569544434547
   vertex 0.021923881024122238 0.0036666670348495245 0.01888267882168293
   vertex 0.021831471472978592 0.0036666670348495245 0.019055569544434547
  endloop
 endfacet
 facet normal 0.77302343011881858 0 0.63437747161081937
  outer loop
   vertex 0.021831471472978592 7.7400125369005478e-18 0.019055569544434547
   vertex 0.021831471472978592 0.0036666670348495245 0.019055569544434547
   vertex 0.021707110106945038 7.6102262444297527e-18 0.01920711062848568
  endloop
 endfacet
 facet normal 0.77302343011881858 0 0.63437747161081937
  outer loop
   vertex 0.021707110106945038 7.6102262444297527e-18 0.01920711062848568
   vertex 0.021831471472978592 0.0036666670348495245 0.019055569544434547
   vertex 0.021707110106945038 0.0036666670348495245 0.01920711062848568
  endloop
 endfacet
 facet normal 0.63437645325791137 0 0.77302426582346884
  outer loop
   vertex 0.021707110106945038 7.6102262444297527e-18 0.01920711062848568
   vertex 0.021707110106945038 0.0036666670348495245 0.01920711062848568
   vertex 0.021555570885539055 7.4520792374769644e-18 0.019331470131874084
  endloop
 endfacet
 facet normal 0.63437645325791137 0 0.77302426582346873
  outer loop
   vertex 0.021555570885539055 7.4520792374769644e-18 0.019331470131874084
   vertex 0.021707110106945038 0.0036666670348495245 0.01920711062848568
   vertex 0.021555570885539055 0.0036666670348495245 0.019331470131874084
  endloop
 endfacet
 facet normal 0.47138695496967103 0 0.88192649278974578
  outer loop
   vertex 0.021555570885539055 7.4520792374769644e-18 0.019331470131874084
   vertex 0.021555570885539055 0.0036666670348495245 0.019331470131874084
   vertex 0.021382680162787437 7.2716479848219976e-18 0.019423879683017731
  endloop
 endfacet
 facet normal 0.47138695496967103 0 0.88192649278974578
  outer loop
   vertex 0.021382680162787437 7.2716479848219976e-18 0.019423879683017731
   vertex 0.021555570885539055 0.0036666670348495245 0.019331470131874084
   vertex 0.021382680162787437 0.0036666670348495245 0.019423879683017731
  endloop
 endfacet
 facet normal 0.29030775378615248 0 0.95693333523900115
  outer loop
   vertex 0.021382680162787437 7.2716479848219976e-18 0.019423879683017731
   vertex 0.021382680162787437 0.0036666670348495245 0.019423879683017731
   vertex 0.021195091307163239 7.0758791492490725e-18 0.019480789080262184
  endloop
 endfacet
 facet normal 0.29030775378615248 0 0.95693333523900115
  outer loop
   vertex 0.021195091307163239 7.0758791492490725e-18 0.019480789080262184
   vertex 0.021382680162787437 0.0036666670348495245 0.019423879683017731
   vertex 0.021195091307163239 0.0036666670348495245 0.019480789080262184
  endloop
 endfacet
 facet normal 0.098000271207609499 0 0.99518638799133252
  outer loop
   vertex 0.021195091307163239 7.0758791492490725e-18 0.019480789080262184
   vertex 0.021195091307163239 0.0036666670348495245 0.019480789080262184
   vertex 0.021000001579523087 6.8722818763589456e-18 0.019500000402331352
  endloop
 endfacet
 facet normal 0.098000271207609499 -0 0.99518638799133252
  outer loop
   vertex 0.021000001579523087 6.8722818763589456e-18 0.019500000402331352
   vertex 0.021195091307163239 0.0036666670348495245 0.019480789080262184
   vertex 0.021195091307163239 0.0073333331383764744 0.019480789080262184
  endloop
 endfacet
 facet normal 0.098000271207609485 0 0.99518638799133241
  outer loop
   vertex 0.021000001579523087 6.8722818763589456e-18 0.019500000402331352
   vertex 0.021195091307163239 0.0073333331383764744 0.019480789080262184
   vertex 0.021000001579523087 0.010999999940395355 0.019500000402331352
  endloop
 endfacet
 facet normal 0.098000271207609499 -0 0.99518638799133252
  outer loop
   vertex 0.021000001579523087 0.010999999940395355 0.019500000402331352
   vertex 0.021195091307163239 0.0073333331383764744 0.019480789080262184
   vertex 0.021195091307163239 0.010999999940395355 0.019480789080262184
  endloop
 endfacet
 facet normal 0.29030775378615248 -0 0.95693333523900126
  outer loop
   vertex 0.021195091307163239 0.010999999940395355 0.019480789080262184
   vertex 0.021195091307163239 0.0073333331383764744 0.019480789080262184
   vertex 0.021382680162787437 0.010999999940395355 0.019423879683017731
  endloop
 endfacet
 facet normal 0.29030775378615248 0 0.95693333523900126
  outer loop
   vertex 0.021382680162787437 0.010999999940395355 0.019423879683017731
   vertex 0.021195091307163239 0.0073333331383764744 0.019480789080262184
   vertex 0.021382680162787437 0.0073333331383764744 0.019423879683017731
  endloop
 endfacet
 facet normal 0.47138695496967098 -0 0.88192649278974566
  outer loop
   vertex 0.021382680162787437 0.010999999940395355 0.019423879683017731
   vertex 0.021382680162787437 0.0073333331383764744 0.019423879683017731
   vertex 0.021555570885539055 0.010999999940395355 0.019331470131874084
  endloop
 endfacet
 facet normal 0.47138695496967098 0 0.88192649278974566
  outer loop
   vertex 0.021555570885539055 0.010999999940395355 0.019331470131874084
   vertex 0.021382680162787437 0.0073333331383764744 0.019423879683017731
   vertex 0.021555570885539055 0.0073333331383764744 0.019331470131874084
  endloop
 endfacet
 facet normal 0.63437645325791137 -0 0.77302426582346873
  outer loop
   vertex 0.021555570885539055 0.010999999940395355 0.019331470131874084
   vertex 0.021555570885539055 0.0073333331383764744 0.019331470131874084
   vertex 0.021707110106945038 0.010999999940395355 0.01920711062848568
  endloop
 endfacet
 facet normal 0.63437645325791137 0 0.77302426582346873
  outer loop
   vertex 0.021707110106945038 0.010999999940395355 0.01920711062848568
   vertex 0.021555570885539055 0.0073333331383764744 0.019331470131874084
   vertex 0.021707110106945038 0.0073333331383764744 0.01920711062848568
  endloop
 endfacet
 facet normal 0.77302343011881858 -0 0.63437747161081937
  outer loop
   vertex 0.021707110106945038 0.010999999940395355 0.01920711062848568
   vertex 0.021707110106945038 0.0073333331383764744 0.01920711062848568
   vertex 0.021831471472978592 0.010999999940395355 0.019055569544434547
  endloop
 endfacet
 facet normal 0.77302343011881858 0 0.63437747161081937
  outer loop
   vertex 0.021831471472978592 0.010999999940395355 0.019055569544434547
   vertex 0.021707110106945038 0.0073333331383764744 0.01920711062848568
   vertex 0.021831471472978592 0.0073333331383764744 0.019055569544434547
  endloop
 endfacet
 facet normal 0.88192649278974566 -0 0.47138695496967098
  outer loop
   vertex 0.021831471472978592 0.010999999940395355 0.019055569544434547
   vertex 0.021831471472978592 0.0073333331383764744 0.019055569544434547
   vertex 0.021923881024122238 0.010999999940395355 0.01888267882168293
  endloop
 endfacet
 facet normal 0.88192649278974566 0 0.47138695496967098
  outer loop
   vertex 0.021923881024122238 0.010999999940395355 0.01888267882168293
   vertex 0.021831471472978592 0.0073333331383764744 0.019055569544434547
   vertex 0.021923881024122238 0.0073333331383764744 0.01888267882168293
  endloop
 endfacet
 facet normal 0.95693333523900126 -0 0.29030775378615248
  outer loop
   vertex 0.021923881024122238 0.010999999940395355 0.01888267882168293
   vertex 0.021923881024122238 0.0073333331383764744 0.01888267882168293
   vertex 0.021980790421366692 0.010999999940395355 0.018695089966058731
  endloop
 endfacet
 facet normal 0.95693333523900126 0 0.29030775378615248
  outer loop
   vertex 0.021980790421366692 0.010999999940395355 0.018695089966058731
   vertex 0.021923881024122238 0.0073333331383764744 0.01888267882168293
   vertex 0.021980790421366692 0.0073333331383764744 0.018695089966058731
  endloop
 endfacet
 facet normal 0.95693333523900126 -0 0.29030775378615248
  outer loop
   vertex 0.021923881024122238 0.0036666670348495245 0.01888267882168293
   vertex 0.021980790421366692 0.0036666670348495245 0.018695089966058731
   vertex 0.021980790421366692 0.0073333331383764744 0.018695089966058731
  endloop
 endfacet
 facet normal 0.95693333523900126 0 0.29030775378615248
  outer loop
   vertex 0.021923881024122238 0.0036666670348495245 0.01888267882168293
   vertex 0.021980790421366692 0.0073333331383764744 0.018695089966058731
   vertex 0.021923881024122238 0.0073333331383764744 0.01888267882168293
  endloop
 endfacet
 facet normal 0.88192649278974566 -0 0.47138695496967103
  outer loop
   vertex 0.021831471472978592 0.0036666670348495245 0.019055569544434547
   vertex 0.021923881024122238 0.0036666670348495245 0.01888267882168293
   vertex 0.021923881024122238 0.0073333331383764744 0.01888267882168293
  endloop
 endfacet
 facet normal 0.88192649278974566 0 0.47138695496967103
  outer loop
   vertex 0.021831471472978592 0.0036666670348495245 0.019055569544434547
   vertex 0.021923881024122238 0.0073333331383764744 0.01888267882168293
   vertex 0.021831471472978592 0.0073333331383764744 0.019055569544434547
  endloop
 endfacet
 facet normal 0.77302343011881858 -0 0.63437747161081937
  outer loop
   vertex 0.021707110106945038 0.0036666670348495245 0.01920711062848568
   vertex 0.021831471472978592 0.0036666670348495245 0.019055569544434547
   vertex 0.021831471472978592 0.0073333331383764744 0.019055569544434547
  endloop
 endfacet
 facet normal 0.77302343011881858 0 0.63437747161081937
  outer loop
   vertex 0.021707110106945038 0.0036666670348495245 0.01920711062848568
   vertex 0.021831471472978592 0.0073333331383764744 0.019055569544434547
   vertex 0.021707110106945038 0.0073333331383764744 0.01920711062848568
  endloop
 endfacet
 facet normal 0.63437645325791137 -0 0.77302426582346873
  outer loop
   vertex 0.021555570885539055 0.0036666670348495245 0.019331470131874084
   vertex 0.021707110106945038 0.0036666670348495245 0.01920711062848568
   vertex 0.021707110106945038 0.0073333331383764744 0.01920711062848568
  endloop
 endfacet
 facet normal 0.63437645325791137 0 0.77302426582346873
  outer loop
   vertex 0.021555570885539055 0.0036666670348495245 0.019331470131874084
   vertex 0.021707110106945038 0.0073333331383764744 0.01920711062848568
   vertex 0.021555570885539055 0.0073333331383764744 0.019331470131874084
  endloop
 endfacet
 facet normal 0.47138695496967103 -0 0.88192649278974566
  outer loop
   vertex 0.021382680162787437 0.0036666670348495245 0.019423879683017731
   vertex 0.021555570885539055 0.0036666670348495245 0.019331470131874084
   vertex 0.021555570885539055 0.0073333331383764744 0.019331470131874084
  endloop
 endfacet
 facet normal 0.47138695496967103 0 0.88192649278974566
  outer loop
   vertex 0.021382680162787437 0.0036666670348495245 0.019423879683017731
   vertex 0.021555570885539055 0.0073333331383764744 0.019331470131874084
   vertex 0.021382680162787437 0.0073333331383764744 0.019423879683017731
  endloop
 endfacet
 facet normal 0.29030775378615248 -0 0.95693333523900126
  outer loop
   vertex 0.021195091307163239 0.0036666670348495245 0.019480789080262184
   vertex 0.021382680162787437 0.0036666670348495245 0.019423879683017731
   vertex 0.021382680162787437 0.0073333331383764744 0.019423879683017731
  endloop
 endfacet
 facet normal 0.29030775378615248 0 0.95693333523900126
  outer loop
   vertex 0.021195091307163239 0.0036666670348495245 0.019480789080262184
   vertex 0.021382680162787437 0.0073333331383764744 0.019423879683017731
   vertex 0.021195091307163239 0.0073333331383764744 0.019480789080262184
  endloop
 endfacet
 facet normal -0 0 1
  outer loop
   vertex 0.021000001579523087 0.010999999940395355 0.019500000402331352
   vertex 0.00099999981466680765 0.010999999940395355 0.019500000402331352
   vertex 0.021000001579523087 6.8722818763589456e-18 0.019500000402331352
  endloop
 endfacet
 facet normal 0 0 1
  outer loop
   vertex 0.021000001579523087 6.8722818763589456e-18 0.019500000402331352
   vertex 0.00099999981466680765 0.010999999940395355 0.019500000402331352
   vertex 0.00099999981466680765 -1.3999912753451786e-17 0.019500000402331352
  endloop
 endfacet
 facet normal -0.098000271207609499 0 0.99518638799133252
  outer loop
   vertex 0.00080491008702665567 0.010999999940395355 0.019480789080262184
   vertex 0.00080491008702665567 0.0073333331383764744 0.019480789080262184
   vertex 0.00099999981466680765 0.010999999940395355 0.019500000402331352
  endloop
 endfacet
 facet normal -0.098000271207609499 0 0.99518638799133252
  outer loop
   vertex 0.00099999981466680765 0.010999999940395355 0.019500000402331352
   vertex 0.00080491008702665567 0.0073333331383764744 0.019480789080262184
   vertex 0.00080491008702665567 0.0036666670348495245 0.019480789080262184
  endloop
 endfacet
 facet normal -0.098000271207609499 0 0.99518638799133241
  outer loop
   vertex 0.00099999981466680765 0.010999999940395355 0.019500000402331352
   vertex 0.00080491008702665567 0.0036666670348495245 0.019480789080262184
   vertex 0.00099999981466680765 -1.3999912753451786e-17 0.019500000402331352
  endloop
 endfacet
 facet normal -0.098000271207609513 0 0.99518638799133252
  outer loop
   vertex 0.00099999981466680765 -1.3999912753451786e-17 0.019500000402331352
   vertex 0.00080491008702665567 0.0036666670348495245 0.019480789080262184
   vertex 0.00080491008702665567 -1.4203510026341913e-17 0.019480789080262184
  endloop
 endfacet
 facet normal -0.29030049494272281 0 0.95693553734617376
  outer loop
   vertex 0.00080491008702665567 -1.4203510026341913e-17 0.019480789080262184
   vertex 0.00080491008702665567 0.0036666670348495245 0.019480789080262184
   vertex 0.00061731610912829638 -1.4399285479359738e-17 0.019423879683017731
  endloop
 endfacet
 facet normal -0.29030049494272281 0 0.95693553734617376
  outer loop
   vertex 0.00061731610912829638 -1.4399285479359738e-17 0.019423879683017731
   vertex 0.00080491008702665567 0.0036666670348495245 0.019480789080262184
   vertex 0.00061731610912829638 0.0036666670348495245 0.019423879683017731
  endloop
 endfacet
 facet normal -0.47139683023062318 0 0.88192121442253613
  outer loop
   vertex 0.00061731610912829638 -1.4399285479359738e-17 0.019423879683017731
   vertex 0.00061731610912829638 0.0036666670348495245 0.019423879683017731
   vertex 0.00044443004298955202 -1.4579710114569805e-17 0.019331470131874084
  endloop
 endfacet
 facet normal -0.47139683023062318 0 0.88192121442253613
  outer loop
   vertex 0.00044443004298955202 -1.4579710114569805e-17 0.019331470131874084
   vertex 0.00061731610912829638 0.0036666670348495245 0.019423879683017731
   vertex 0.00044443004298955202 0.0036666670348495245 0.019331470131874084
  endloop
 endfacet
 facet normal -0.6343822776558613 0 0.77301948603910486
  outer loop
   vertex 0.00044443004298955202 -1.4579710114569805e-17 0.019331470131874084
   vertex 0.00044443004298955202 0.0036666670348495245 0.019331470131874084
   vertex 0.00029289314989000559 -1.4737855467161368e-17 0.01920711062848568
  endloop
 endfacet
 facet normal -0.6343822776558613 0 0.77301948603910486
  outer loop
   vertex 0.00029289314989000559 -1.4737855467161368e-17 0.01920711062848568
   vertex 0.00044443004298955202 0.0036666670348495245 0.019331470131874084
   vertex 0.00029289314989000559 0.0036666670348495245 0.01920711062848568
  endloop
 endfacet
 facet normal -0.77301877069593361 0 0.63438314932834383
  outer loop
   vertex 0.00029289314989000559 -1.4737855467161368e-17 0.01920711062848568
   vertex 0.00029289314989000559 0.0036666670348495245 0.01920711062848568
   vertex 0.00016852992121130228 -1.4867641759632163e-17 0.019055569544434547
  endloop
 endfacet
 facet normal -0.77301877069593361 0 0.63438314932834383
  outer loop
   vertex 0.00016852992121130228 -1.4867641759632163e-17 0.019055569544434547
   vertex 0.00029289314989000559 0.0036666670348495245 0.01920711062848568
   vertex 0.00016852992121130228 0.0036666670348495245 0.019055569544434547
  endloop
 endfacet
 facet normal -0.88192548985070918 0 0.4713888313818928
  outer loop
   vertex 0.00016852992121130228 -1.4867641759632163e-17 0.019055569544434547
   vertex 0.00016852992121130228 0.0036666670348495245 0.019055569544434547
   vertex 7.6119897130411118e-05 -1.496408274724972e-17 0.01888267882168293
  endloop
 endfacet
 facet normal -0.88192548985070929 0 0.4713888313818928
  outer loop
   vertex 7.6119897130411118e-05 -1.496408274724972e-17 0.01888267882168293
   vertex 0.00016852992121130228 0.0036666670348495245 0.019055569544434547
   vertex 7.6119897130411118e-05 0.0036666670348495245 0.01888267882168293
  endloop
 endfacet
 facet normal -0.95693993672087407 0 0.2902859926152993
  outer loop
   vertex 7.6119897130411118e-05 -1.496408274724972e-17 0.01888267882168293
   vertex 7.6119897130411118e-05 0.0036666670348495245 0.01888267882168293
   vertex 1.9215158317820169e-05 -1.5023469352147352e-17 0.018695089966058731
  endloop
 endfacet
 facet normal -0.95693993672087407 0 0.2902859926152993
  outer loop
   vertex 1.9215158317820169e-05 -1.5023469352147352e-17 0.018695089966058731
   vertex 7.6119897130411118e-05 0.0036666670348495245 0.01888267882168293
   vertex 1.9215158317820169e-05 0.0036666670348495245 0.018695089966058731
  endloop
 endfacet
 facet normal -0.99518453484626124 0 0.0980190879514313
  outer loop
   vertex 1.9215158317820169e-05 -1.5023469352147352e-17 0.018695089966058731
   vertex 1.9215158317820169e-05 0.0036666670348495245 0.018695089966058731
   vertex 1.1175870645585562e-10 -1.5043521864556863e-17 0.018500000238418579
  endloop
 endfacet
 facet normal -0.99518453484626135 0 0.0980190879514313
  outer loop
   vertex 1.1175870645585562e-10 -1.5043521864556863e-17 0.018500000238418579
   vertex 1.9215158317820169e-05 0.0036666670348495245 0.018695089966058731
   vertex 1.9215158317820169e-05 0.0073333331383764744 0.018695089966058731
  endloop
 endfacet
 facet normal -0.99518453484626135 0 0.0980190879514313
  outer loop
   vertex 1.1175870645585562e-10 -1.5043521864556863e-17 0.018500000238418579
   vertex 1.9215158317820169e-05 0.0073333331383764744 0.018695089966058731
   vertex 1.1175870645585562e-10 0.010999999940395355 0.018500000238418579
  endloop
 endfacet
 facet normal -0.99518453484626124 0 0.0980190879514313
  outer loop
   vertex 1.1175870645585562e-10 0.010999999940395355 0.018500000238418579
   vertex 1.9215158317820169e-05 0.0073333331383764744 0.018695089966058731
   vertex 1.9215158317820169e-05 0.010999999940395355 0.018695089966058731
  endloop
 endfacet
 facet normal -0.95693993672087407 0 0.2902859926152993
  outer loop
   vertex 1.9215158317820169e-05 0.010999999940395355 0.018695089966058731
   vertex 1.9215158317820169e-05 0.0073333331383764744 0.018695089966058731
   vertex 7.6119897130411118e-05 0.010999999940395355 0.01888267882168293
  endloop
 endfacet
 facet normal -0.95693993672087407 0 0.2902859926152993
  outer loop
   vertex 7.6119897130411118e-05 0.010999999940395355 0.01888267882168293
   vertex 1.9215158317820169e-05 0.0073333331383764744 0.018695089966058731
   vertex 7.6119897130411118e-05 0.0073333331383764744 0.01888267882168293
  endloop
 endfacet
 facet normal -0.88192548985070918 0 0.47138883138189286
  outer loop
   vertex 7.6119897130411118e-05 0.010999999940395355 0.01888267882168293
   vertex 7.6119897130411118e-05 0.0073333331383764744 0.01888267882168293
   vertex 0.00016852992121130228 0.010999999940395355 0.019055569544434547
  endloop
 endfacet
 facet normal -0.88192548985070918 0 0.47138883138189286
  outer loop
   vertex 0.00016852992121130228 0.010999999940395355 0.019055569544434547
   vertex 7.6119897130411118e-05 0.0073333331383764744 0.01888267882168293
   vertex 0.00016852992121130228 0.0073333331383764744 0.019055569544434547
  endloop
 endfacet
 facet normal -0.7730187706959335 0 0.63438314932834383
  outer loop
   vertex 0.00016852992121130228 0.010999999940395355 0.019055569544434547
   vertex 0.00016852992121130228 0.0073333331383764744 0.019055569544434547
   vertex 0.00029289314989000559 0.010999999940395355 0.01920711062848568
  endloop
 endfacet
 facet normal -0.7730187706959335 0 0.63438314932834383
  outer loop
   vertex 0.00029289314989000559 0.010999999940395355 0.01920711062848568
   vertex 0.00016852992121130228 0.0073333331383764744 0.019055569544434547
   vertex 0.00029289314989000559 0.0073333331383764744 0.01920711062848568
  endloop
 endfacet
 facet normal -0.63438227765586119 0 0.77301948603910486
  outer loop
   vertex 0.00029289314989000559 0.010999999940395355 0.01920711062848568
   vertex 0.00029289314989000559 0.0073333331383764744 0.01920711062848568
   vertex 0.00044443004298955202 0.010999999940395355 0.019331470131874084
  endloop
 endfacet
 facet normal -0.63438227765586119 0 0.77301948603910486
  outer loop
   vertex 0.00044443004298955202 0.010999999940395355 0.019331470131874084
   vertex 0.00029289314989000559 0.0073333331383764744 0.01920711062848568
   vertex 0.00044443004298955202 0.0073333331383764744 0.019331470131874084
  endloop
 endfacet
 facet normal -0.47139683023062318 0 0.88192121442253624
  outer loop
   vertex 0.00044443004298955202 0.010999999940395355 0.019331470131874084
   vertex 0.00044443004298955202 0.0073333331383764744 0.019331470131874084
   vertex 0.00061731610912829638 0.010999999940395355 0.019423879683017731
  endloop
 endfacet
 facet normal -0.47139683023062318 0 0.88192121442253624
  outer loop
   vertex 0.00061731610912829638 0.010999999940395355 0.019423879683017731
   vertex 0.00044443004298955202 0.0073333331383764744 0.019331470131874084
   vertex 0.00061731610912829638 0.0073333331383764744 0.019423879683017731
  endloop
 endfacet
 facet normal -0.29030049494272275 0 0.95693553734617365
  outer loop
   vertex 0.00061731610912829638 0.010999999940395355 0.019423879683017731
   vertex 0.00061731610912829638 0.0073333331383764744 0.019423879683017731
   vertex 0.00080491008702665567 0.010999999940395355 0.019480789080262184
  endloop
 endfacet
 facet normal -0.29030049494272275 0 0.95693553734617365
  outer loop
   vertex 0.00080491008702665567 0.010999999940395355 0.019480789080262184
   vertex 0.00061731610912829638 0.0073333331383764744 0.019423879683017731
   vertex 0.00080491008702665567 0.0073333331383764744 0.019480789080262184
  endloop
 endfacet
 facet normal -0.29030049494272275 0 0.95693553734617376
  outer loop
   vertex 0.00061731610912829638 0.0036666670348495245 0.019423879683017731
   vertex 0.00080491008702665567 0.0036666670348495245 0.019480789080262184
   vertex 0.00080491008702665567 0.0073333331383764744 0.019480789080262184
  endloop
 endfacet
 facet normal -0.29030049494272275 0 0.95693553734617376
  outer loop
   vertex 0.00061731610912829638 0.0036666670348495245 0.019423879683017731
   vertex 0.00080491008702665567 0.0073333331383764744 0.019480789080262184
   vertex 0.00061731610912829638 0.0073333331383764744 0.019423879683017731
  endloop
 endfacet
 facet normal -0.47139683023062318 0 0.88192121442253624
  outer loop
   vertex 0.00044443004298955202 0.0036666670348495245 0.019331470131874084
   vertex 0.00061731610912829638 0.0036666670348495245 0.019423879683017731
   vertex 0.00061731610912829638 0.0073333331383764744 0.019423879683017731
  endloop
 endfacet
 facet normal -0.47139683023062318 0 0.88192121442253624
  outer loop
   vertex 0.00044443004298955202 0.0036666670348495245 0.019331470131874084
   vertex 0.00061731610912829638 0.0073333331383764744 0.019423879683017731
   vertex 0.00044443004298955202 0.0073333331383764744 0.019331470131874084
  endloop
 endfacet
 facet normal -0.63438227765586119 0 0.77301948603910475
  outer loop
   vertex 0.00029289314989000559 0.0036666670348495245 0.01920711062848568
   vertex 0.00044443004298955202 0.0036666670348495245 0.019331470131874084
   vertex 0.00044443004298955202 0.0073333331383764744 0.019331470131874084
  endloop
 endfacet
 facet normal -0.63438227765586119 0 0.77301948603910475
  outer loop
   vertex 0.00029289314989000559 0.0036666670348495245 0.01920711062848568
   vertex 0.00044443004298955202 0.0073333331383764744 0.019331470131874084
   vertex 0.00029289314989000559 0.0073333331383764744 0.01920711062848568
  endloop
 endfacet
 facet normal -0.7730187706959335 0 0.63438314932834372
  outer loop
   vertex 0.00016852992121130228 0.0036666670348495245 0.019055569544434547
   vertex 0.00029289314989000559 0.0036666670348495245 0.01920711062848568
   vertex 0.00029289314989000559 0.0073333331383764744 0.01920711062848568
  endloop
 endfacet
 facet normal -0.7730187706959335 0 0.63438314932834372
  outer loop
   vertex 0.00016852992121130228 0.0036666670348495245 0.019055569544434547
   vertex 0.00029289314989000559 0.0073333331383764744 0.01920711062848568
   vertex 0.00016852992121130228 0.0073333331383764744 0.019055569544434547
  endloop
 endfacet
 facet normal -0.88192548985070918 0 0.4713888313818928
  outer loop
   vertex 7.6119897130411118e-05 0.0036666670348495245 0.01888267882168293
   vertex 0.00016852992121130228 0.0036666670348495245 0.019055569544434547
   vertex 0.00016852992121130228 0.0073333331383764744 0.019055569544434547
  endloop
 endfacet
 facet normal -0.88192548985070918 0 0.4713888313818928
  outer loop
   vertex 7.6119897130411118e-05 0.0036666670348495245 0.01888267882168293
   vertex 0.00016852992121130228 0.0073333331383764744 0.019055569544434547
   vertex 7.6119897130411118e-05 0.0073333331383764744 0.01888267882168293
  endloop
 endfacet
 facet normal -0.95693993672087396 0 0.29028599261529925
  outer loop
   vertex 1.9215158317820169e-05 0.0036666670348495245 0.018695089966058731
   vertex 7.6119897130411118e-05 0.0036666670348495245 0.01888267882168293
   vertex 7.6119897130411118e-05 0.0073333331383764744 0.01888267882168293
  endloop
 endfacet
 facet normal -0.95693993672087396 0 0.29028599261529925
  outer loop
   vertex 1.9215158317820169e-05 0.0036666670348495245 0.018695089966058731
   vertex 7.6119897130411118e-05 0.0073333331383764744 0.01888267882168293
   vertex 1.9215158317820169e-05 0.0073333331383764744 0.018695089966058731
  endloop
 endfacet
 facet normal -1 0 0
  outer loop
   vertex 1.1175870645585562e-10 -1.5043521864556863e-17 0.00099999993108212948
   vertex 1.1175870645585562e-10 -1.5043521864556863e-17 0.018500000238418579
   vertex 1.1175870645585562e-10 0.010999999940395355 0.00099999993108212948
  endloop
 endfacet
 facet normal -1 0 0
  outer loop
   vertex 1.1175870645585562e-10 0.010999999940395355 0.00099999993108212948
   vertex 1.1175870645585562e-10 -1.5043521864556863e-17 0.018500000238418579
   vertex 1.1175870645585562e-10 0.010999999940395355 0.018500000238418579
  endloop
 endfacet
 facet normal 0 -1 0
  outer loop
   vertex 0.013000000268220901 0.0099999997764825821 0.016999999061226845
   vertex 0.0090000005438923836 0.0099999997764825821 0.016999999061226845
   vertex 0.013000000268220901 0.0099999997764825821 0.015500000678002834
  endloop
 endfacet
 facet normal 0 -1 0
  outer loop
   vertex 0.013000000268220901 0.0099999997764825821 0.015500000678002834
   vertex 0.0090000005438923836 0.0099999997764825821 0.016999999061226845
   vertex 0.0090000005438923836 0.0099999997764825821 0.015500000678002834
  endloop
 endfacet
 facet normal 0 -1 0
  outer loop
   vertex 0.013000000268220901 0.0099999997764825821 0.015500000678002834
   vertex 0.0090000005438923836 0.0099999997764825821 0.015500000678002834
   vertex 0.0139999995008111 0.0099999997764825821 0.014000000432133675
  endloop
 endfacet
 facet normal 0 -1 -0
  outer loop
   vertex 0.0139999995008111 0.0099999997764825821 0.014000000432133675
   vertex 0.0090000005438923836 0.0099999997764825821 0.015500000678002834
   vertex 0.0080000003799796104 0.0099999997764825821 0.014000000432133675
  endloop
 endfacet
 facet normal 0 -1 0
  outer loop
   vertex 0.0139999995008111 0.0099999997764825821 0.014000000432133675
   vertex 0.0080000003799796104 0.0099999997764825821 0.014000000432133675
   vertex 0.017000000923871994 0.0099999997764825821 0.0070000002160668373
  endloop
 endfacet
 facet normal 0 -1 -0
  outer loop
   vertex 0.017000000923871994 0.0099999997764825821 0.0070000002160668373
   vertex 0.0080000003799796104 0.0099999997764825821 0.014000000432133675
   vertex 0.004999999888241291 0.0099999997764825821 0.0070000002160668373
  endloop
 endfacet
 facet normal -0 -1 0
  outer loop
   vertex 0.004999999888241291 0.0099999997764825821 0.0070000002160668373
   vertex 0.0080000003799796104 0.0099999997764825821 0.014000000432133675
   vertex 0.004999999888241291 0.0099999997764825821 0.014000000432133675
  endloop
 endfacet
 facet normal 0 -1 0
  outer loop
   vertex 0.0090000005438923836 0.0099999997764825821 0.015500000678002834
   vertex 0.0080000003799796104 0.0099999997764825821 0.015500000678002834
   vertex 0.0080000003799796104 0.0099999997764825821 0.014000000432133675
  endloop
 endfacet
 facet normal -0 -1 -0
  outer loop
   vertex 0.017000000923871994 0.0099999997764825821 0.0070000002160668373
   vertex 0.017000000923871994 0.0099999997764825821 0.014000000432133675
   vertex 0.0139999995008111 0.0099999997764825821 0.014000000432133675
  endloop
 endfacet
 facet normal -0 -1 -0
  outer loop
   vertex 0.0139999995008111 0.0099999997764825821 0.014000000432133675
   vertex 0.0139999995008111 0.0099999997764825821 0.015500000678002834
   vertex 0.013000000268220901 0.0099999997764825821 0.015500000678002834
  endloop
 endfacet
 facet normal 0 0 -1
  outer loop
   vertex 0.013000000268220901 -1.4765958721677704e-18 0.016999999061226845
   vertex 0.0090000005438923836 -5.6510349015274932e-18 0.016999999061226845
   vertex 0.013000000268220901 0.0099999997764825821 0.016999999061226845
  endloop
 endfacet
 facet normal 0 0 -1
  outer loop
   vertex 0.013000000268220901 0.0099999997764825821 0.016999999061226845
   vertex 0.0090000005438923836 -5.6510349015274932e-18 0.016999999061226845
   vertex 0.0090000005438923836 0.0099999997764825821 0.016999999061226845
  endloop
 endfacet
 facet normal -1 0 0
  outer loop
   vertex 0.013000000268220901 -1.4765958721677704e-18 0.015500000678002834
   vertex 0.013000000268220901 -1.4765958721677704e-18 0.016999999061226845
   vertex 0.013000000268220901 0.0099999997764825821 0.015500000678002834
  endloop
 endfacet
 facet normal -1 0 0
  outer loop
   vertex 0.013000000268220901 0.0099999997764825821 0.015500000678002834
   vertex 0.013000000268220901 -1.4765958721677704e-18 0.016999999061226845
   vertex 0.013000000268220901 0.0099999997764825821 0.016999999061226845
  endloop
 endfacet
 facet normal 0 0 -1
  outer loop
   vertex 0.0139999995008111 -4.329868127614815e-19 0.015500000678002834
   vertex 0.013000000268220901 -1.4765958721677704e-18 0.015500000678002834
   vertex 0.0139999995008111 0.0099999997764825821 0.015500000678002834
  endloop
 endfacet
 facet normal 0 0 -1
  outer loop
   vertex 0.0139999995008111 0.0099999997764825821 0.015500000678002834
   vertex 0.013000000268220901 -1.4765958721677704e-18 0.015500000678002834
   vertex 0.013000000268220901 0.0099999997764825821 0.015500000678002834
  endloop
 endfacet
 facet normal -1 0 0
  outer loop
   vertex 0.0139999995008111 -4.329868127614815e-19 0.014000000432133675
   vertex 0.0139999995008111 -4.329868127614815e-19 0.015500000678002834
   vertex 0.0139999995008111 0.0099999997764825821 0.014000000432133675
  endloop
 endfacet
 facet normal -1 0 0
  outer loop
   vertex 0.0139999995008111 0.0099999997764825821 0.014000000432133675
   vertex 0.0139999995008111 -4.329868127614815e-19 0.015500000678002834
   vertex 0.0139999995008111 0.0099999997764825821 0.015500000678002834
  endloop
 endfacet
 facet normal 0 0 -1
  outer loop
   vertex 0.017000000923871994 2.6978429503967993e-18 0.014000000432133675
   vertex 0.0139999995008111 -4.329868127614815e-19 0.014000000432133675
   vertex 0.017000000923871994 0.0099999997764825821 0.014000000432133675
  endloop
 endfacet
 facet normal 0 0 -1
  outer loop
   vertex 0.017000000923871994 0.0099999997764825821 0.014000000432133675
   vertex 0.0139999995008111 -4.329868127614815e-19 0.014000000432133675
   vertex 0.0139999995008111 0.0099999997764825821 0.014000000432133675
  endloop
 endfacet
 facet normal -1 0 0
  outer loop
   vertex 0.017000000923871994 2.6978429503967993e-18 0.0070000002160668373
   vertex 0.017000000923871994 2.6978429503967993e-18 0.014000000432133675
   vertex 0.017000000923871994 0.0099999997764825821 0.0070000002160668373
  endloop
 endfacet
 facet normal -1 0 0
  outer loop
   vertex 0.017000000923871994 0.0099999997764825821 0.0070000002160668373
   vertex 0.017000000923871994 2.6978429503967993e-18 0.014000000432133675
   vertex 0.017000000923871994 0.0099999997764825821 0.014000000432133675
  endloop
 endfacet
 facet normal 0 0 1
  outer loop
   vertex 0.004999999888241291 -9.8254738274896395e-18 0.0070000002160668373
   vertex 0.017000000923871994 2.6978429503967993e-18 0.0070000002160668373
   vertex 0.004999999888241291 0.0099999997764825821 0.0070000002160668373
  endloop
 endfacet
 facet normal 0 -0 1
  outer loop
   vertex 0.004999999888241291 0.0099999997764825821 0.0070000002160668373
   vertex 0.017000000923871994 2.6978429503967993e-18 0.0070000002160668373
   vertex 0.017000000923871994 0.0099999997764825821 0.0070000002160668373
  endloop
 endfacet
 facet normal 1 0 0
  outer loop
   vertex 0.004999999888241291 -9.8254738274896395e-18 0.014000000432133675
   vertex 0.004999999888241291 -9.8254738274896395e-18 0.0070000002160668373
   vertex 0.004999999888241291 0.0099999997764825821 0.014000000432133675
  endloop
 endfacet
 facet normal 1 0 0
  outer loop
   vertex 0.004999999888241291 0.0099999997764825821 0.014000000432133675
   vertex 0.004999999888241291 -9.8254738274896395e-18 0.0070000002160668373
   vertex 0.004999999888241291 0.0099999997764825821 0.0070000002160668373
  endloop
 endfacet
 facet normal 0 0 -1
  outer loop
   vertex 0.0080000003799796104 -6.6946444262228766e-18 0.014000000432133675
   vertex 0.004999999888241291 -9.8254738274896395e-18 0.014000000432133675
   vertex 0.0080000003799796104 0.0099999997764825821 0.014000000432133675
  endloop
 endfacet
 facet normal 0 0 -1
  outer loop
   vertex 0.0080000003799796104 0.0099999997764825821 0.014000000432133675
   vertex 0.004999999888241291 -9.8254738274896395e-18 0.014000000432133675
   vertex 0.004999999888241291 0.0099999997764825821 0.014000000432133675
  endloop
 endfacet
 facet normal 1 0 0
  outer loop
   vertex 0.0080000003799796104 -6.6946444262228766e-18 0.015500000678002834
   vertex 0.0080000003799796104 -6.6946444262228766e-18 0.014000000432133675
   vertex 0.0080000003799796104 0.0099999997764825821 0.015500000678002834
  endloop
 endfacet
 facet normal 1 0 0
  outer loop
   vertex 0.0080000003799796104 0.0099999997764825821 0.015500000678002834
   vertex 0.0080000003799796104 -6.6946444262228766e-18 0.014000000432133675
   vertex 0.0080000003799796104 0.0099999997764825821 0.014000000432133675
  endloop
 endfacet
 facet normal 0 0 -1
  outer loop
   vertex 0.0090000005438923836 -5.6510349015274932e-18 0.015500000678002834
   vertex 0.0080000003799796104 -6.6946444262228766e-18 0.015500000678002834
   vertex 0.0090000005438923836 0.0099999997764825821 0.015500000678002834
  endloop
 endfacet
 facet normal 0 0 -1
  outer loop
   vertex 0.0090000005438923836 0.0099999997764825821 0.015500000678002834
   vertex 0.0080000003799796104 -6.6946444262228766e-18 0.015500000678002834
   vertex 0.0080000003799796104 0.0099999997764825821 0.015500000678002834
  endloop
 endfacet
 facet normal 1 0 0
  outer loop
   vertex 0.0090000005438923836 -5.6510349015274932e-18 0.016999999061226845
   vertex 0.0090000005438923836 -5.6510349015274932e-18 0.015500000678002834
   vertex 0.0090000005438923836 0.0099999997764825821 0.016999999061226845
  endloop
 endfacet
 facet normal 1 0 0
  outer loop
   vertex 0.0090000005438923836 0.0099999997764825821 0.016999999061226845
   vertex 0.0090000005438923836 -5.6510349015274932e-18 0.015500000678002834
   vertex 0.0090000005438923836 0.0099999997764825821 0.015500000678002834
  endloop
 endfacet
 facet normal 1.0436122140945961e-15 -1 2.7929403747648459e-21
  outer loop
   vertex 1.9215158317820169e-05 -1.5023469352147352e-17 0.0008049102034419775
   vertex 0.00099999981466680765 -1.3999912753451786e-17 -2.1606683109354208e-10
   vertex 1.1175870645585562e-10 -1.5043521864556863e-17 0.00099999993108212948
  endloop
 endfacet
 facet normal 1.0436095270227517e-15 -1 1.0586972305254947e-22
  outer loop
   vertex 1.1175870645585562e-10 -1.5043521864556863e-17 0.00099999993108212948
   vertex 0.00099999981466680765 -1.3999912753451786e-17 -2.1606683109354208e-10
   vertex 0.004999999888241291 -9.8254738274896395e-18 0.0070000002160668373
  endloop
 endfacet
 facet normal 1.0436096540664311e-15 -1 0
  outer loop
   vertex 1.1175870645585562e-10 -1.5043521864556863e-17 0.00099999993108212948
   vertex 0.004999999888241291 -9.8254738274896395e-18 0.0070000002160668373
   vertex 1.1175870645585562e-10 -1.5043521864556863e-17 0.018500000238418579
  endloop
 endfacet
 facet normal 1.0436096540664313e-15 -1 0
  outer loop
   vertex 1.1175870645585562e-10 -1.5043521864556863e-17 0.018500000238418579
   vertex 0.004999999888241291 -9.8254738274896395e-18 0.0070000002160668373
   vertex 0.004999999888241291 -9.8254738274896395e-18 0.014000000432133675
  endloop
 endfacet
 facet normal 1.0436095437390345e-15 -1 -1.2258599627151959e-22
  outer loop
   vertex 1.1175870645585562e-10 -1.5043521864556863e-17 0.018500000238418579
   vertex 0.004999999888241291 -9.8254738274896395e-18 0.014000000432133675
   vertex 0.00099999981466680765 -1.3999912753451786e-17 0.019500000402331352
  endloop
 endfacet
 facet normal 1.0436096514768982e-15 -1 -4.4231184421194994e-23
  outer loop
   vertex 0.00099999981466680765 -1.3999912753451786e-17 0.019500000402331352
   vertex 0.004999999888241291 -9.8254738274896395e-18 0.014000000432133675
   vertex 0.0080000003799796104 -6.6946444262228766e-18 0.015500000678002834
  endloop
 endfacet
 facet normal 1.0436095876159583e-15 -1 -1.5598784575925616e-22
  outer loop
   vertex 0.00099999981466680765 -1.3999912753451786e-17 0.019500000402331352
   vertex 0.0080000003799796104 -6.6946444262228766e-18 0.015500000678002834
   vertex 0.0090000005438923836 -5.6510349015274932e-18 0.016999999061226845
  endloop
 endfacet
 facet normal 1.0436093536344801e-15 -1 0
  outer loop
   vertex 0.0090000005438923836 -5.6510349015274932e-18 0.016999999061226845
   vertex 0.0080000003799796104 -6.6946444262228766e-18 0.015500000678002834
   vertex 0.0090000005438923836 -5.6510349015274932e-18 0.015500000678002834
  endloop
 endfacet
 facet normal 1.0436084374295643e-15 -1 -1.8089321152964063e-21
  outer loop
   vertex 1.9215158317820169e-05 -1.5023469352147352e-17 0.0008049102034419775
   vertex 7.6119897130411118e-05 -1.496408274724972e-17 0.00061731715686619282
   vertex 0.00099999981466680765 -1.3999912753451786e-17 -2.1606683109354208e-10
  endloop
 endfacet
 facet normal 1.0436036636259897e-15 -1 -8.9534277121134245e-21
  outer loop
   vertex 0.00099999981466680765 -1.3999912753451786e-17 -2.1606683109354208e-10
   vertex 7.6119897130411118e-05 -1.496408274724972e-17 0.00061731715686619282
   vertex 0.00016852992121130228 -1.4867641759632163e-17 0.0004444301885087043
  endloop
 endfacet
 facet normal 1.0436098554028847e-15 -1 2.6305593916722659e-21
  outer loop
   vertex 0.00099999981466680765 -1.3999912753451786e-17 -2.1606683109354208e-10
   vertex 0.00016852992121130228 -1.4867641759632163e-17 0.0004444301885087043
   vertex 0.00029289314989000559 -1.4737855467161368e-17 0.00029289282974787056
  endloop
 endfacet
 facet normal 1.0436079412369826e-15 -1 -1.99064785773774e-21
  outer loop
   vertex 0.00029289314989000559 -1.4737855467161368e-17 0.00029289282974787056
   vertex 0.00044443004298955202 -1.4579710114569805e-17 0.00016853005217853934
   vertex 0.00099999981466680765 -1.3999912753451786e-17 -2.1606683109354208e-10
  endloop
 endfacet
 facet normal 1.0436141674549963e-15 -1 1.8534439749745806e-20
  outer loop
   vertex 0.00099999981466680765 -1.3999912753451786e-17 -2.1606683109354208e-10
   vertex 0.00044443004298955202 -1.4579710114569805e-17 0.00016853005217853934
   vertex 0.00061731610912829638 -1.4399285479359738e-17 7.6120035373605788e-05
  endloop
 endfacet
 facet normal 1.0436063019943116e-15 -1 -2.1008041833956257e-20
  outer loop
   vertex 0.00099999981466680765 -1.3999912753451786e-17 -2.1606683109354208e-10
   vertex 0.00061731610912829638 -1.4399285479359738e-17 7.6120035373605788e-05
   vertex 0.00080491008702665567 -1.4203510026341913e-17 1.9214830899727531e-05
  endloop
 endfacet
 facet normal 1.0436096393994852e-15 -1 4.1654449553918257e-23
  outer loop
   vertex 0.00099999981466680765 -1.3999912753451786e-17 -2.1606683109354208e-10
   vertex 0.021000001579523087 6.8722818763589456e-18 -2.1606683109354208e-10
   vertex 0.004999999888241291 -9.8254738274896395e-18 0.0070000002160668373
  endloop
 endfacet
 facet normal 1.0436096414243543e-15 -1 4.6282721816376142e-23
  outer loop
   vertex 0.004999999888241291 -9.8254738274896395e-18 0.0070000002160668373
   vertex 0.021000001579523087 6.8722818763589456e-18 -2.1606683109354208e-10
   vertex 0.017000000923871994 2.6978429503967993e-18 0.0070000002160668373
  endloop
 endfacet
 facet normal 1.0436091656389296e-15 -1 -2.2559469158072038e-22
  outer loop
   vertex 0.017000000923871994 2.6978429503967993e-18 0.0070000002160668373
   vertex 0.021000001579523087 6.8722818763589456e-18 -2.1606683109354208e-10
   vertex 0.02200000174343586 7.9158909874640228e-18 0.00099999993108212948
  endloop
 endfacet
 facet normal 1.043609436352528e-15 -1 0
  outer loop
   vertex 0.017000000923871994 2.6978429503967993e-18 0.0070000002160668373
   vertex 0.02200000174343586 7.9158909874640228e-18 0.00099999993108212948
   vertex 0.02200000174343586 7.9158909874640228e-18 0.018500000238418579
  endloop
 endfacet
 facet normal 1.0436095616363915e-15 -1 -1.2086994921998634e-20
  outer loop
   vertex 0.021195091307163239 7.0758791492490725e-18 1.9214830899727531e-05
   vertex 0.021382680162787437 7.2716479848219976e-18 7.6120035373605788e-05
   vertex 0.021000001579523087 6.8722818763589456e-18 -2.1606683109354208e-10
  endloop
 endfacet
 facet normal 1.0436028480315559e-15 -1 2.166424392045868e-20
  outer loop
   vertex 0.021000001579523087 6.8722818763589456e-18 -2.1606683109354208e-10
   vertex 0.021382680162787437 7.2716479848219976e-18 7.6120035373605788e-05
   vertex 0.021555570885539055 7.4520792374769644e-18 0.00016853005217853934
  endloop
 endfacet
 facet normal 1.0436123296129332e-15 -1 -9.5923110036248182e-21
  outer loop
   vertex 0.021000001579523087 6.8722818763589456e-18 -2.1606683109354208e-10
   vertex 0.021555570885539055 7.4520792374769644e-18 0.00016853005217853934
   vertex 0.021707110106945038 7.6102262444297527e-18 0.00029289282974787056
  endloop
 endfacet
 facet normal 1.0436011853882925e-15 -1 1.731230959958991e-20
  outer loop
   vertex 0.021707110106945038 7.6102262444297527e-18 0.00029289282974787056
   vertex 0.021831471472978592 7.7400125369005478e-18 0.0004444301885087043
   vertex 0.021000001579523087 6.8722818763589456e-18 -2.1606683109354208e-10
  endloop
 endfacet
 facet normal 1.0436186339347716e-15 -1 -1.5331589045674802e-20
  outer loop
   vertex 0.021000001579523087 6.8722818763589456e-18 -2.1606683109354208e-10
   vertex 0.021831471472978592 7.7400125369005478e-18 0.0004444301885087043
   vertex 0.021923881024122238 7.8364502157956551e-18 0.00061731715686619282
  endloop
 endfacet
 facet normal 1.043599017369353e-15 -1 1.4026634711421665e-20
  outer loop
   vertex 0.021000001579523087 6.8722818763589456e-18 -2.1606683109354208e-10
   vertex 0.021923881024122238 7.8364502157956551e-18 0.00061731715686619282
   vertex 0.021980790421366692 7.8958434381381876e-18 0.0008049102034419775
  endloop
 endfacet
 facet normal 1.0436177992079568e-15 -1 -8.8591638636345134e-21
  outer loop
   vertex 0.021980790421366692 7.8958434381381876e-18 0.0008049102034419775
   vertex 0.02200000174343586 7.9158909874640228e-18 0.00099999993108212948
   vertex 0.021000001579523087 6.8722818763589456e-18 -2.1606683109354208e-10
  endloop
 endfacet
 facet normal 1.0436177992081215e-15 -1 8.8591638798567297e-21
  outer loop
   vertex 0.021980790421366692 7.8958434381381876e-18 0.018695089966058731
   vertex 0.021000001579523087 6.8722818763589456e-18 0.019500000402331352
   vertex 0.02200000174343586 7.9158909874640228e-18 0.018500000238418579
  endloop
 endfacet
 facet normal 1.0436092012591549e-15 -1 2.6121491307137378e-22
  outer loop
   vertex 0.02200000174343586 7.9158909874640228e-18 0.018500000238418579
   vertex 0.021000001579523087 6.8722818763589456e-18 0.019500000402331352
   vertex 0.017000000923871994 2.6978429503967993e-18 0.014000000432133675
  endloop
 endfacet
 facet normal 1.043609436352528e-15 -1 0
  outer loop
   vertex 0.02200000174343586 7.9158909874640228e-18 0.018500000238418579
   vertex 0.017000000923871994 2.6978429503967993e-18 0.014000000432133675
   vertex 0.017000000923871994 2.6978429503967993e-18 0.0070000002160668373
  endloop
 endfacet
 facet normal 1.0435990170266018e-15 -1 -1.4027052064145893e-20
  outer loop
   vertex 0.021980790421366692 7.8958434381381876e-18 0.018695089966058731
   vertex 0.021923881024122238 7.8364502157956551e-18 0.01888267882168293
   vertex 0.021000001579523087 6.8722818763589456e-18 0.019500000402331352
  endloop
 endfacet
 facet normal 1.0436186336973416e-15 -1 1.5331129208308374e-20
  outer loop
   vertex 0.021000001579523087 6.8722818763589456e-18 0.019500000402331352
   vertex 0.021923881024122238 7.8364502157956551e-18 0.01888267882168293
   vertex 0.021831471472978592 7.7400125369005478e-18 0.019055569544434547
  endloop
 endfacet
 facet normal 1.0436011857767111e-15 -1 -1.7311565262601176e-20
  outer loop
   vertex 0.021000001579523087 6.8722818763589456e-18 0.019500000402331352
   vertex 0.021831471472978592 7.7400125369005478e-18 0.019055569544434547
   vertex 0.021707110106945038 7.6102262444297527e-18 0.01920711062848568
  endloop
 endfacet
 facet normal 1.043612329734529e-15 -1 9.5927117248043142e-21
  outer loop
   vertex 0.021707110106945038 7.6102262444297527e-18 0.01920711062848568
   vertex 0.021555570885539055 7.4520792374769644e-18 0.019331470131874084
   vertex 0.021000001579523087 6.8722818763589456e-18 0.019500000402331352
  endloop
 endfacet
 facet normal 1.0436028479547812e-15 -1 -2.1664496727851649e-20
  outer loop
   vertex 0.021000001579523087 6.8722818763589456e-18 0.019500000402331352
   vertex 0.021555570885539055 7.4520792374769644e-18 0.019331470131874084
   vertex 0.021382680162787437 7.2716479848219976e-18 0.019423879683017731
  endloop
 endfacet
 facet normal 1.0436095611648625e-15 -1 1.2084550130525645e-20
  outer loop
   vertex 0.021000001579523087 6.8722818763589456e-18 0.019500000402331352
   vertex 0.021382680162787437 7.2716479848219976e-18 0.019423879683017731
   vertex 0.021195091307163239 7.0758791492490725e-18 0.019480789080262184
  endloop
 endfacet
 facet normal 1.0436096393994852e-15 -1 9.7193669487158677e-24
  outer loop
   vertex 0.00099999981466680765 -1.3999912753451786e-17 0.019500000402331352
   vertex 0.0090000005438923836 -5.6510349015274932e-18 0.016999999061226845
   vertex 0.021000001579523087 6.8722818763589456e-18 0.019500000402331352
  endloop
 endfacet
 facet normal 1.0436098292632978e-15 -1 -9.0162652267960831e-22
  outer loop
   vertex 0.021000001579523087 6.8722818763589456e-18 0.019500000402331352
   vertex 0.0090000005438923836 -5.6510349015274932e-18 0.016999999061226845
   vertex 0.013000000268220901 -1.4765958721677704e-18 0.016999999061226845
  endloop
 endfacet
 facet normal 1.0436096014321453e-15 -1 -1.7256710639700067e-22
  outer loop
   vertex 0.021000001579523087 6.8722818763589456e-18 0.019500000402331352
   vertex 0.013000000268220901 -1.4765958721677704e-18 0.016999999061226845
   vertex 0.0139999995008111 -4.329868127614815e-19 0.015500000678002834
  endloop
 endfacet
 facet normal 1.0436098602827246e-15 -1 0
  outer loop
   vertex 0.0139999995008111 -4.329868127614815e-19 0.015500000678002834
   vertex 0.013000000268220901 -1.4765958721677704e-18 0.016999999061226845
   vertex 0.013000000268220901 -1.4765958721677704e-18 0.015500000678002834
  endloop
 endfacet
 facet normal 1.0436063028138727e-15 -1 2.1003792506311113e-20
  outer loop
   vertex 0.00080491008702665567 -1.4203510026341913e-17 0.019480789080262184
   vertex 0.00061731610912829638 -1.4399285479359738e-17 0.019423879683017731
   vertex 0.00099999981466680765 -1.3999912753451786e-17 0.019500000402331352
  endloop
 endfacet
 facet normal 1.0436141675206771e-15 -1 -1.8534656026503512e-20
  outer loop
   vertex 0.00099999981466680765 -1.3999912753451786e-17 0.019500000402331352
   vertex 0.00061731610912829638 -1.4399285479359738e-17 0.019423879683017731
   vertex 0.00044443004298955202 -1.4579710114569805e-17 0.019331470131874084
  endloop
 endfacet
 facet normal 1.0436079412117489e-15 -1 1.9907310167570576e-21
  outer loop
   vertex 0.00099999981466680765 -1.3999912753451786e-17 0.019500000402331352
   vertex 0.00044443004298955202 -1.4579710114569805e-17 0.019331470131874084
   vertex 0.00029289314989000559 -1.4737855467161368e-17 0.01920711062848568
  endloop
 endfacet
 facet normal 1.0436098553438647e-15 -1 -2.6304462903545279e-21
  outer loop
   vertex 0.00029289314989000559 -1.4737855467161368e-17 0.01920711062848568
   vertex 0.00016852992121130228 -1.4867641759632163e-17 0.019055569544434547
   vertex 0.00099999981466680765 -1.3999912753451786e-17 0.019500000402331352
  endloop
 endfacet
 facet normal 1.0436036637646456e-15 -1 8.9531591731675733e-21
  outer loop
   vertex 0.00099999981466680765 -1.3999912753451786e-17 0.019500000402331352
   vertex 0.00016852992121130228 -1.4867641759632163e-17 0.019055569544434547
   vertex 7.6119897130411118e-05 -1.496408274724972e-17 0.01888267882168293
  endloop
 endfacet
 facet normal 1.0436084373853624e-15 -1 1.8089859374233727e-21
  outer loop
   vertex 0.00099999981466680765 -1.3999912753451786e-17 0.019500000402331352
   vertex 7.6119897130411118e-05 -1.496408274724972e-17 0.01888267882168293
   vertex 1.9215158317820169e-05 -1.5023469352147352e-17 0.018695089966058731
  endloop
 endfacet
 facet normal 1.0436122140946488e-15 -1 -2.7929403793621799e-21
  outer loop
   vertex 1.9215158317820169e-05 -1.5023469352147352e-17 0.018695089966058731
   vertex 1.1175870645585562e-10 -1.5043521864556863e-17 0.018500000238418579
   vertex 0.00099999981466680765 -1.3999912753451786e-17 0.019500000402331352
  endloop
 endfacet
 facet normal 1.0436094260128393e-15 -1 0
  outer loop
   vertex 0.0139999995008111 -4.329868127614815e-19 0.014000000432133675
   vertex 0.017000000923871994 2.6978429503967993e-18 0.014000000432133675
   vertex 0.0139999995008111 -4.329868127614815e-19 0.015500000678002834
  endloop
 endfacet
 facet normal 1.0436094618573051e-15 -1 7.1688953556636976e-23
  outer loop
   vertex 0.0139999995008111 -4.329868127614815e-19 0.015500000678002834
   vertex 0.017000000923871994 2.6978429503967993e-18 0.014000000432133675
   vertex 0.021000001579523087 6.8722818763589456e-18 0.019500000402331352
  endloop
 endfacet
 facet normal 1.0436096293613059e-15 -1 0
  outer loop
   vertex 0.004999999888241291 -9.8254738274896395e-18 0.014000000432133675
   vertex 0.0080000003799796104 -6.6946444262228766e-18 0.014000000432133675
   vertex 0.0080000003799796104 -6.6946444262228766e-18 0.015500000678002834
  endloop
 endfacet
endsolid
