solid Visualization Toolkit generated SLA File
 facet normal 1 0 0
  outer loop
   vertex 0.0017000001389533281 -2.4202862181673874e-18 0.013700000010430813
   vertex 0.0017000001389533281 -4.0856208212795712e-18 0.0017000000225380063
   vertex 0.0017000001389533281 0.014999999664723873 0.013700000010430813
  endloop
 endfacet
 facet normal 1 0 0
  outer loop
   vertex 0.0017000001389533281 0.014999999664723873 0.013700000010430813
   vertex 0.0017000001389533281 -4.0856208212795712e-18 0.0017000000225380063
   vertex 0.0017000001389533281 0.014999999664723873 0.0017000000225380063
  endloop
 endfacet
 facet normal 0 0 -1
  outer loop
   vertex 0.0066999997943639755 -1.3100632183576492e-18 0.013700000010430813
   vertex 0.0017000001389533281 -2.4202862181673874e-18 0.013700000010430813
   vertex 0.0066999997943639755 0.014999999664723873 0.013700000010430813
  endloop
 endfacet
 facet normal 0 0 -1
  outer loop
   vertex 0.0066999997943639755 0.014999999664723873 0.013700000010430813
   vertex 0.0017000001389533281 -2.4202862181673874e-18 0.013700000010430813
   vertex 0.0017000001389533281 0.014999999664723873 0.013700000010430813
  endloop
 endfacet
 facet normal -1 0 -0
  outer loop
   vertex 0.0066999997943639755 -2.9753976146746799e-18 0.0017000000225380063
   vertex 0.0066999997943639755 -1.3100632183576492e-18 0.013700000010430813
   vertex 0.0066999997943639755 0.014999999664723873 0.0017000000225380063
  endloop
 endfacet
 facet normal -1 0 0
  outer loop
   vertex 0.0066999997943639755 0.014999999664723873 0.0017000000225380063
   vertex 0.0066999997943639755 -1.3100632183576492e-18 0.013700000010430813
   vertex 0.0066999997943639755 0.014999999664723873 0.013700000010430813
  endloop
 endfacet
 facet normal 0 0 1
  outer loop
   vertex 0.0017000001389533281 -4.0856208212795712e-18 0.0017000000225380063
   vertex 0.0066999997943639755 -2.9753976146746799e-18 0.0017000000225380063
   vertex 0.0017000001389533281 0.014999999664723873 0.0017000000225380063
  endloop
 endfacet
 facet normal 0 -0 1
  outer loop
   vertex 0.0017000001389533281 0.014999999664723873 0.0017000000225380063
   vertex 0.0066999997943639755 -2.9753976146746799e-18 0.0017000000225380063
   vertex 0.0066999997943639755 0.014999999664723873 0.0017000000225380063
  endloop
 endfacet
 facet normal 1 0 0
  outer loop
   vertex 0.0068999999202787876 -1.2378986375500277e-18 0.013899999670684338
   vertex 0.0068999999202787876 -2.9587444009924561e-18 0.001500000013038516
   vertex 0.0068999999202787876 0.014999999664723873 0.013899999670684338
  endloop
 endfacet
 facet normal 1 0 0
  outer loop
   vertex 0.0068999999202787876 0.014999999664723873 0.013899999670684338
   vertex 0.0068999999202787876 -2.9587444009924561e-18 0.001500000013038516
   vertex 0.0068999999202787876 0.014999999664723873 0.001500000013038516
  endloop
 endfacet
 facet normal 0 0 1
  outer loop
   vertex 0.001500000013038516 -2.4369396386447644e-18 0.013899999670684338
   vertex 0.0068999999202787876 -1.2378986375500277e-18 0.013899999670684338
   vertex 0.001500000013038516 0.014999999664723873 0.013899999670684338
  endloop
 endfacet
 facet normal 0 -0 1
  outer loop
   vertex 0.001500000013038516 0.014999999664723873 0.013899999670684338
   vertex 0.0068999999202787876 -1.2378986375500277e-18 0.013899999670684338
   vertex 0.0068999999202787876 0.014999999664723873 0.013899999670684338
  endloop
 endfacet
 facet normal -1 0 -0
  outer loop
   vertex 0.001500000013038516 -4.1577852986896162e-18 0.001500000013038516
   vertex 0.001500000013038516 -2.4369396386447644e-18 0.013899999670684338
   vertex 0.001500000013038516 0.014999999664723873 0.001500000013038516
  endloop
 endfacet
 facet normal -1 0 0
  outer loop
   vertex 0.001500000013038516 0.014999999664723873 0.001500000013038516
   vertex 0.001500000013038516 -2.4369396386447644e-18 0.013899999670684338
   vertex 0.001500000013038516 0.014999999664723873 0.013899999670684338
  endloop
 endfacet
 facet normal 0 0 -1
  outer loop
   vertex 0.0068999999202787876 -2.9587444009924561e-18 0.001500000013038516
   vertex 0.001500000013038516 -4.1577852986896162e-18 0.001500000013038516
   vertex 0.0068999999202787876 0.014999999664723873 0.001500000013038516
  endloop
 endfacet
 facet normal 0 0 -1
  outer loop
   vertex 0.0068999999202787876 0.014999999664723873 0.001500000013038516
   vertex 0.001500000013038516 -4.1577852986896162e-18 0.001500000013038516
   vertex 0.001500000013038516 0.014999999664723873 0.001500000013038516
  endloop
 endfacet
 facet normal 2.2204465662382314e-16 -1 1.3877872141462452e-16
  outer loop
   vertex 0.0017000001389533281 -4.0856208212795712e-18 0.0017000000225380063
   vertex 0.0068999999202787876 -2.9587444009924561e-18 0.001500000013038516
   vertex 0.0066999997943639755 -2.9753976146746799e-18 0.0017000000225380063
  endloop
 endfacet
 facet normal 2.2204382318981427e-16 -1 1.387778879801305e-16
  outer loop
   vertex 0.0066999997943639755 -2.9753976146746799e-18 0.0017000000225380063
   vertex 0.0068999999202787876 -2.9587444009924561e-18 0.001500000013038516
   vertex 0.0068999999202787876 -1.2378986375500277e-18 0.013899999670684338
  endloop
 endfacet
 facet normal 2.2204513349093617e-16 -1 1.387778664997701e-16
  outer loop
   vertex 0.0066999997943639755 -2.9753976146746799e-18 0.0017000000225380063
   vertex 0.0068999999202787876 -1.2378986375500277e-18 0.013899999670684338
   vertex 0.0066999997943639755 -1.3100632183576492e-18 0.013700000010430813
  endloop
 endfacet
 facet normal 2.2204461526478966e-16 -1 1.3877838472712321e-16
  outer loop
   vertex 0.0066999997943639755 -1.3100632183576492e-18 0.013700000010430813
   vertex 0.0068999999202787876 -1.2378986375500277e-18 0.013899999670684338
   vertex 0.0017000001389533281 -2.4202862181673874e-18 0.013700000010430813
  endloop
 endfacet
 facet normal 2.2204463364658084e-16 -1 1.3877790679976098e-16
  outer loop
   vertex 0.0017000001389533281 -2.4202862181673874e-18 0.013700000010430813
   vertex 0.0068999999202787876 -1.2378986375500277e-18 0.013899999670684338
   vertex 0.001500000013038516 -2.4369396386447644e-18 0.013899999670684338
  endloop
 endfacet
 facet normal 2.2204460648849914e-16 -1 1.3877787964161602e-16
  outer loop
   vertex 0.0017000001389533281 -2.4202862181673874e-18 0.013700000010430813
   vertex 0.001500000013038516 -2.4369396386447644e-18 0.013899999670684338
   vertex 0.001500000013038516 -4.1577852986896162e-18 0.001500000013038516
  endloop
 endfacet
 facet normal 2.2204461449888115e-16 -1 1.3877762616623058e-16
  outer loop
   vertex 0.0068999999202787876 -2.9587444009924561e-18 0.001500000013038516
   vertex 0.0017000001389533281 -4.0856208212795712e-18 0.0017000000225380063
   vertex 0.001500000013038516 -4.1577852986896162e-18 0.001500000013038516
  endloop
 endfacet
 facet normal 2.220443569325621e-16 -1 1.3877788373269954e-16
  outer loop
   vertex 0.001500000013038516 -4.1577852986896162e-18 0.001500000013038516
   vertex 0.0017000001389533281 -4.0856208212795712e-18 0.0017000000225380063
   vertex 0.0017000001389533281 -2.4202862181673874e-18 0.013700000010430813
  endloop
 endfacet
 facet normal 0 1 0
  outer loop
   vertex 0.0066999997943639755 0.014999999664723873 0.0017000000225380063
   vertex 0.0068999999202787876 0.014999999664723873 0.001500000013038516
   vertex 0.0017000001389533281 0.014999999664723873 0.0017000000225380063
  endloop
 endfacet
 facet normal 0 1 0
  outer loop
   vertex 0.0017000001389533281 0.014999999664723873 0.0017000000225380063
   vertex 0.0068999999202787876 0.014999999664723873 0.001500000013038516
   vertex 0.001500000013038516 0.014999999664723873 0.001500000013038516
  endloop
 endfacet
 facet normal 0 1 0
  outer loop
   vertex 0.0017000001389533281 0.014999999664723873 0.0017000000225380063
   vertex 0.001500000013038516 0.014999999664723873 0.001500000013038516
   vertex 0.001500000013038516 0.014999999664723873 0.013899999670684338
  endloop
 endfacet
 facet normal 0 1 0
  outer loop
   vertex 0.0066999997943639755 0.014999999664723873 0.0017000000225380063
   vertex 0.0066999997943639755 0.014999999664723873 0.013700000010430813
   vertex 0.0068999999202787876 0.014999999664723873 0.001500000013038516
  endloop
 endfacet
 facet normal -0 1 0
  outer loop
   vertex 0.0068999999202787876 0.014999999664723873 0.001500000013038516
   vertex 0.0066999997943639755 0.014999999664723873 0.013700000010430813
   vertex 0.0068999999202787876 0.014999999664723873 0.013899999670684338
  endloop
 endfacet
 facet normal 0 1 -0
  outer loop
   vertex 0.0068999999202787876 0.014999999664723873 0.013899999670684338
   vertex 0.0066999997943639755 0.014999999664723873 0.013700000010430813
   vertex 0.0017000001389533281 0.014999999664723873 0.013700000010430813
  endloop
 endfacet
 facet normal 0 1 -0
  outer loop
   vertex 0.0068999999202787876 0.014999999664723873 0.013899999670684338
   vertex 0.0017000001389533281 0.014999999664723873 0.013700000010430813
   vertex 0.001500000013038516 0.014999999664723873 0.013899999670684338
  endloop
 endfacet
 facet normal 0 1 0
  outer loop
   vertex 0.001500000013038516 0.014999999664723873 0.013899999670684338
   vertex 0.0017000001389533281 0.014999999664723873 0.013700000010430813
   vertex 0.0017000001389533281 0.014999999664723873 0.0017000000225380063
  endloop
 endfacet
 facet normal 0 0 -1
  outer loop
   vertex 0.0068999999202787876 -1.2378986375500277e-18 0.013899999670684338
   vertex 0.001500000013038516 -2.4369396386447644e-18 0.013899999670684338
   vertex 0.0068999999202787876 0.014999999664723873 0.013899999670684338
  endloop
 endfacet
 facet normal 0 0 -1
  outer loop
   vertex 0.0068999999202787876 0.014999999664723873 0.013899999670684338
   vertex 0.001500000013038516 -2.4369396386447644e-18 0.013899999670684338
   vertex 0.001500000013038516 0.014999999664723873 0.013899999670684338
  endloop
 endfacet
 facet normal -1 0 -0
  outer loop
   vertex 0.0068999999202787876 -2.9587444009924561e-18 0.001500000013038516
   vertex 0.0068999999202787876 -1.2378986375500277e-18 0.013899999670684338
   vertex 0.0068999999202787876 0.014999999664723873 0.001500000013038516
  endloop
 endfacet
 facet normal -1 0 0
  outer loop
   vertex 0.0068999999202787876 0.014999999664723873 0.001500000013038516
   vertex 0.0068999999202787876 -1.2378986375500277e-18 0.013899999670684338
   vertex 0.0068999999202787876 0.014999999664723873 0.013899999670684338
  endloop
 endfacet
 facet normal 0 0 1
  outer loop
   vertex 0.001500000013038516 -4.1577852986896162e-18 0.001500000013038516
   vertex 0.0068999999202787876 -2.9587444009924561e-18 0.001500000013038516
   vertex 0.001500000013038516 0.014999999664723873 0.001500000013038516
  endloop
 endfacet
 facet normal 0 -0 1
  outer loop
   vertex 0.001500000013038516 0.014999999664723873 0.001500000013038516
   vertex 0.0068999999202787876 -2.9587444009924561e-18 0.001500000013038516
   vertex 0.0068999999202787876 0.014999999664723873 0.001500000013038516
  endloop
 endfacet
 facet normal 1 0 0
  outer loop
   vertex 0.001500000013038516 -2.4369396386447644e-18 0.013899999670684338
   vertex 0.001500000013038516 -4.1577852986896162e-18 0.001500000013038516
   vertex 0.001500000013038516 0.014999999664723873 0.013899999670684338
  endloop
 endfacet
 facet normal 1 0 0
  outer loop
   vertex 0.001500000013038516 0.014999999664723873 0.013899999670684338
   vertex 0.001500000013038516 -4.1577852986896162e-18 0.001500000013038516
   vertex 0.001500000013038516 0.014999999664723873 0.001500000013038516
  endloop
 endfacet
 facet normal 0 0 1
  outer loop
   vertex 2.0563602209922038e-10 -2.5618395684420556e-18 0.015399999916553497
   vertex 0.00839999970048666 -6.9666485017953733e-19 0.015399999916553497
   vertex 2.0563602209922038e-10 0.014999999664723873 0.015399999916553497
  endloop
 endfacet
 facet normal 0 -0 1
  outer loop
   vertex 2.0563602209922038e-10 0.014999999664723873 0.015399999916553497
   vertex 0.00839999970048666 -6.9666485017953733e-19 0.015399999916553497
   vertex 0.00839999970048666 0.014999999664723873 0.015399999916553497
  endloop
 endfacet
 facet normal -1 0 -0
  outer loop
   vertex 2.0563602209922038e-10 -4.6990186724698003e-18 -2.2538006183570047e-11
   vertex 2.0563602209922038e-10 -2.5618395684420556e-18 0.015399999916553497
   vertex 2.0563602209922038e-10 0.014999999664723873 -2.2538006183570047e-11
  endloop
 endfacet
 facet normal -1 0 0
  outer loop
   vertex 2.0563602209922038e-10 0.014999999664723873 -2.2538006183570047e-11
   vertex 2.0563602209922038e-10 -2.5618395684420556e-18 0.015399999916553497
   vertex 2.0563602209922038e-10 0.014999999664723873 0.015399999916553497
  endloop
 endfacet
 facet normal 0 0 -1
  outer loop
   vertex 0.00839999970048666 -2.8338442644000117e-18 -2.2538006183570047e-11
   vertex 2.0563602209922038e-10 -4.6990186724698003e-18 -2.2538006183570047e-11
   vertex 0.00839999970048666 0.014999999664723873 -2.2538006183570047e-11
  endloop
 endfacet
 facet normal 0 0 -1
  outer loop
   vertex 0.00839999970048666 0.014999999664723873 -2.2538006183570047e-11
   vertex 2.0563602209922038e-10 -4.6990186724698003e-18 -2.2538006183570047e-11
   vertex 2.0563602209922038e-10 0.014999999664723873 -2.2538006183570047e-11
  endloop
 endfacet
 facet normal 1 0 0
  outer loop
   vertex 0.00839999970048666 -6.9666485017953733e-19 0.015399999916553497
   vertex 0.00839999970048666 -2.8338442644000117e-18 -2.2538006183570047e-11
   vertex 0.00839999970048666 0.014999999664723873 0.015399999916553497
  endloop
 endfacet
 facet normal 1 0 0
  outer loop
   vertex 0.00839999970048666 0.014999999664723873 0.015399999916553497
   vertex 0.00839999970048666 -2.8338442644000117e-18 -2.2538006183570047e-11
   vertex 0.00839999970048666 0.014999999664723873 -2.2538006183570047e-11
  endloop
 endfacet
 facet normal 2.2204461449888115e-16 -1 1.387776599065832e-16
  outer loop
   vertex 0.0068999999202787876 -2.9587444009924561e-18 0.001500000013038516
   vertex 0.001500000013038516 -4.1577852986896162e-18 0.001500000013038516
   vertex 2.0563602209922038e-10 -4.6990186724698003e-18 -2.2538006183570047e-11
  endloop
 endfacet
 facet normal 2.2204439476381495e-16 -1 1.3877787964161605e-16
  outer loop
   vertex 2.0563602209922038e-10 -4.6990186724698003e-18 -2.2538006183570047e-11
   vertex 0.001500000013038516 -4.1577852986896162e-18 0.001500000013038516
   vertex 0.001500000013038516 -2.4369396386447644e-18 0.013899999670684338
  endloop
 endfacet
 facet normal 2.2204453556926005e-16 -1 1.3877786444678545e-16
  outer loop
   vertex 2.0563602209922038e-10 -4.6990186724698003e-18 -2.2538006183570047e-11
   vertex 0.001500000013038516 -2.4369396386447644e-18 0.013899999670684338
   vertex 2.0563602209922038e-10 -2.5618395684420556e-18 0.015399999916553497
  endloop
 endfacet
 facet normal 2.2204463364658084e-16 -1 1.3877796252407752e-16
  outer loop
   vertex 2.0563602209922038e-10 -2.5618395684420556e-18 0.015399999916553497
   vertex 0.001500000013038516 -2.4369396386447644e-18 0.013899999670684338
   vertex 0.0068999999202787876 -1.2378986375500277e-18 0.013899999670684338
  endloop
 endfacet
 facet normal 2.2204462267002591e-16 -1 1.3877791203193526e-16
  outer loop
   vertex 2.0563602209922038e-10 -2.5618395684420556e-18 0.015399999916553497
   vertex 0.0068999999202787876 -1.2378986375500277e-18 0.013899999670684338
   vertex 0.00839999970048666 -6.9666485017953733e-19 0.015399999916553497
  endloop
 endfacet
 facet normal 2.2204464672183818e-16 -1 1.387778879801305e-16
  outer loop
   vertex 0.00839999970048666 -6.9666485017953733e-19 0.015399999916553497
   vertex 0.0068999999202787876 -1.2378986375500277e-18 0.013899999670684338
   vertex 0.0068999999202787876 -2.9587444009924561e-18 0.001500000013038516
  endloop
 endfacet
 facet normal 2.2204467814473799e-16 -1 1.3877788458917058e-16
  outer loop
   vertex 0.00839999970048666 -6.9666485017953733e-19 0.015399999916553497
   vertex 0.0068999999202787876 -2.9587444009924561e-18 0.001500000013038516
   vertex 0.00839999970048666 -2.8338442644000117e-18 -2.2538006183570047e-11
  endloop
 endfacet
 facet normal 2.2204458574231781e-16 -1 1.3877779218676608e-16
  outer loop
   vertex 0.00839999970048666 -2.8338442644000117e-18 -2.2538006183570047e-11
   vertex 0.0068999999202787876 -2.9587444009924561e-18 0.001500000013038516
   vertex 2.0563602209922038e-10 -4.6990186724698003e-18 -2.2538006183570047e-11
  endloop
 endfacet
 facet normal 0 1 0
  outer loop
   vertex 0.001500000013038516 0.014999999664723873 0.001500000013038516
   vertex 2.0563602209922038e-10 0.014999999664723873 0.015399999916553497
   vertex 0.001500000013038516 0.014999999664723873 0.013899999670684338
  endloop
 endfacet
 facet normal -0 1 0
  outer loop
   vertex 0.001500000013038516 0.014999999664723873 0.013899999670684338
   vertex 2.0563602209922038e-10 0.014999999664723873 0.015399999916553497
   vertex 0.00839999970048666 0.014999999664723873 0.015399999916553497
  endloop
 endfacet
 facet normal 0 1 0
  outer loop
   vertex 0.001500000013038516 0.014999999664723873 0.013899999670684338
   vertex 0.00839999970048666 0.014999999664723873 0.015399999916553497
   vertex 0.0068999999202787876 0.014999999664723873 0.013899999670684338
  endloop
 endfacet
 facet normal 0 1 0
  outer loop
   vertex 0.0068999999202787876 0.014999999664723873 0.013899999670684338
   vertex 0.00839999970048666 0.014999999664723873 0.015399999916553497
   vertex 0.00839999970048666 0.014999999664723873 -2.2538006183570047e-11
  endloop
 endfacet
 facet normal 0 1 0
  outer loop
   vertex 0.0068999999202787876 0.014999999664723873 0.013899999670684338
   vertex 0.00839999970048666 0.014999999664723873 -2.2538006183570047e-11
   vertex 0.0068999999202787876 0.014999999664723873 0.001500000013038516
  endloop
 endfacet
 facet normal 0 1 0
  outer loop
   vertex 0.0068999999202787876 0.014999999664723873 0.001500000013038516
   vertex 0.00839999970048666 0.014999999664723873 -2.2538006183570047e-11
   vertex 0.001500000013038516 0.014999999664723873 0.001500000013038516
  endloop
 endfacet
 facet normal 0 1 0
  outer loop
   vertex 0.001500000013038516 0.014999999664723873 0.001500000013038516
   vertex 0.00839999970048666 0.014999999664723873 -2.2538006183570047e-11
   vertex 2.0563602209922038e-10 0.014999999664723873 -2.2538006183570047e-11
  endloop
 endfacet
 facet normal 0 1 0
  outer loop
   vertex 0.001500000013038516 0.014999999664723873 0.001500000013038516
   vertex 2.0563602209922038e-10 0.014999999664723873 -2.2538006183570047e-11
   vertex 2.0563602209922038e-10 0.014999999664723873 0.015399999916553497
  endloop
 endfacet
 facet normal 0 0 1
  outer loop
   vertex 0.0024499997962266207 -2.3578361498711652e-18 0.01295000035315752
   vertex 0.0039499998092651367 -2.0247691878896978e-18 0.01295000035315752
   vertex 0.0024499997962266207 0.014999999664723873 0.01295000035315752
  endloop
 endfacet
 facet normal 0 -0 1
  outer loop
   vertex 0.0024499997962266207 0.014999999664723873 0.01295000035315752
   vertex 0.0039499998092651367 -2.0247691878896978e-18 0.01295000035315752
   vertex 0.0039499998092651367 0.014999999664723873 0.01295000035315752
  endloop
 endfacet
 facet normal -1 0 -0
  outer loop
   vertex 0.0024499997962266207 -3.8150037207991729e-18 0.0024500000290572643
   vertex 0.0024499997962266207 -2.3578361498711652e-18 0.01295000035315752
   vertex 0.0024499997962266207 0.014999999664723873 0.0024500000290572643
  endloop
 endfacet
 facet normal -1 0 0
  outer loop
   vertex 0.0024499997962266207 0.014999999664723873 0.0024500000290572643
   vertex 0.0024499997962266207 -2.3578361498711652e-18 0.01295000035315752
   vertex 0.0024499997962266207 0.014999999664723873 0.01295000035315752
  endloop
 endfacet
 facet normal 0 0 -1
  outer loop
   vertex 0.0039499998092651367 -3.4819369656128586e-18 0.0024500000290572643
   vertex 0.0024499997962266207 -3.8150037207991729e-18 0.0024500000290572643
   vertex 0.0039499998092651367 0.014999999664723873 0.0024500000290572643
  endloop
 endfacet
 facet normal 0 0 -1
  outer loop
   vertex 0.0039499998092651367 0.014999999664723873 0.0024500000290572643
   vertex 0.0024499997962266207 -3.8150037207991729e-18 0.0024500000290572643
   vertex 0.0024499997962266207 0.014999999664723873 0.0024500000290572643
  endloop
 endfacet
 facet normal 1 0 0
  outer loop
   vertex 0.0039499998092651367 -2.0247691878896978e-18 0.01295000035315752
   vertex 0.0039499998092651367 -3.4819369656128586e-18 0.0024500000290572643
   vertex 0.0039499998092651367 0.014999999664723873 0.01295000035315752
  endloop
 endfacet
 facet normal 1 0 0
  outer loop
   vertex 0.0039499998092651367 0.014999999664723873 0.01295000035315752
   vertex 0.0039499998092651367 -3.4819369656128586e-18 0.0024500000290572643
   vertex 0.0039499998092651367 0.014999999664723873 0.0024500000290572643
  endloop
 endfacet
 facet normal 2.2204450152745563e-16 -1 1.3877787930906806e-16
  outer loop
   vertex 0.0039499998092651367 -3.4819369656128586e-18 0.0024500000290572643
   vertex 0.0039499998092651367 -2.0247691878896978e-18 0.01295000035315752
   vertex 0.0024499997962266207 -3.8150037207991729e-18 0.0024500000290572643
  endloop
 endfacet
 facet normal 2.2204463939088989e-16 -1 1.3877785961429218e-16
  outer loop
   vertex 0.0024499997962266207 -3.8150037207991729e-18 0.0024500000290572643
   vertex 0.0039499998092651367 -2.0247691878896978e-18 0.01295000035315752
   vertex 0.0024499997962266207 -2.3578361498711652e-18 0.01295000035315752
  endloop
 endfacet
 facet normal 0 1 -0
  outer loop
   vertex 0.0039499998092651367 0.014999999664723873 0.01295000035315752
   vertex 0.0039499998092651367 0.014999999664723873 0.0024500000290572643
   vertex 0.0024499997962266207 0.014999999664723873 0.01295000035315752
  endloop
 endfacet
 facet normal 0 1 0
  outer loop
   vertex 0.0024499997962266207 0.014999999664723873 0.01295000035315752
   vertex 0.0039499998092651367 0.014999999664723873 0.0024500000290572643
   vertex 0.0024499997962266207 0.014999999664723873 0.0024500000290572643
  endloop
 endfacet
 facet normal 0 0 1
  outer loop
   vertex 2.0563602209922038e-10 0.014999999664723873 0.015399999916553497
   vertex 0.00839999970048666 0.014999999664723873 0.015399999916553497
   vertex 2.0563602209922038e-10 0.017000000923871994 0.015399999916553497
  endloop
 endfacet
 facet normal 0 -0 1
  outer loop
   vertex 2.0563602209922038e-10 0.017000000923871994 0.015399999916553497
   vertex 0.00839999970048666 0.014999999664723873 0.015399999916553497
   vertex 0.00839999970048666 0.017000000923871994 0.015399999916553497
  endloop
 endfacet
 facet normal -1 0 0
  outer loop
   vertex 2.0563602209922038e-10 0.014999999664723873 -2.2538006183570047e-11
   vertex 2.0563602209922038e-10 0.014999999664723873 0.015399999916553497
   vertex 2.0563602209922038e-10 0.017000000923871994 -2.2538006183570047e-11
  endloop
 endfacet
 facet normal -1 0 0
  outer loop
   vertex 2.0563602209922038e-10 0.017000000923871994 -2.2538006183570047e-11
   vertex 2.0563602209922038e-10 0.014999999664723873 0.015399999916553497
   vertex 2.0563602209922038e-10 0.017000000923871994 0.015399999916553497
  endloop
 endfacet
 facet normal 0 0 -1
  outer loop
   vertex 0.00839999970048666 0.014999999664723873 -2.2538006183570047e-11
   vertex 2.0563602209922038e-10 0.014999999664723873 -2.2538006183570047e-11
   vertex 0.00839999970048666 0.017000000923871994 -2.2538006183570047e-11
  endloop
 endfacet
 facet normal 0 0 -1
  outer loop
   vertex 0.00839999970048666 0.017000000923871994 -2.2538006183570047e-11
   vertex 2.0563602209922038e-10 0.014999999664723873 -2.2538006183570047e-11
   vertex 2.0563602209922038e-10 0.017000000923871994 -2.2538006183570047e-11
  endloop
 endfacet
 facet normal 1 0 0
  outer loop
   vertex 0.00839999970048666 0.014999999664723873 0.015399999916553497
   vertex 0.00839999970048666 0.014999999664723873 -2.2538006183570047e-11
   vertex 0.00839999970048666 0.017000000923871994 0.015399999916553497
  endloop
 endfacet
 facet normal 1 0 0
  outer loop
   vertex 0.00839999970048666 0.017000000923871994 0.015399999916553497
   vertex 0.00839999970048666 0.014999999664723873 -2.2538006183570047e-11
   vertex 0.00839999970048666 0.017000000923871994 -2.2538006183570047e-11
  endloop
 endfacet
 facet normal 0 1 -0
  outer loop
   vertex 0.00839999970048666 0.017000000923871994 0.015399999916553497
   vertex 0.00839999970048666 0.017000000923871994 -2.2538006183570047e-11
   vertex 2.0563602209922038e-10 0.017000000923871994 0.015399999916553497
  endloop
 endfacet
 facet normal 0 1 0
  outer loop
   vertex 2.0563602209922038e-10 0.017000000923871994 0.015399999916553497
   vertex 0.00839999970048666 0.017000000923871994 -2.2538006183570047e-11
   vertex 2.0563602209922038e-10 0.017000000923871994 -2.2538006183570047e-11
  endloop
 endfacet
 facet normal 0 -1 -0
  outer loop
   vertex 0.00839999970048666 0.014999999664723873 -2.2538006183570047e-11
   vertex 0.00839999970048666 0.014999999664723873 0.015399999916553497
   vertex 2.0563602209922038e-10 0.014999999664723873 -2.2538006183570047e-11
  endloop
 endfacet
 facet normal -0 -1 0
  outer loop
   vertex 2.0563602209922038e-10 0.014999999664723873 -2.2538006183570047e-11
   vertex 0.00839999970048666 0.014999999664723873 0.015399999916553497
   vertex 2.0563602209922038e-10 0.014999999664723873 0.015399999916553497
  endloop
 endfacet
endsolid
